<?xml version="1.0" standalone="no"?>
<!DOCTYPE svg PUBLIC "-//W3C//DTD SVG 20010904//EN"
 "http://www.w3.org/TR/2001/REC-SVG-20010904/DTD/svg10.dtd">
<svg version="1.0" xmlns="http://www.w3.org/2000/svg"
 width="2000.000000pt" height="2000.000000pt" viewBox="0 0 2000.000000 2000.000000"
 preserveAspectRatio="xMidYMid meet">
<metadata>
Created by potrace 1.14, written by Peter Selinger 2001-2017
</metadata>
<g transform="translate(0.000000,2000.000000) scale(0.100000,-0.100000)"
fill="#000000" stroke="none">
<path d="M10256 12358 c-144 -19 -281 -137 -321 -276 -13 -43 -15 -79 -11
-161 15 -255 17 -348 18 -546 0 -197 -7 -431 -17 -605 -9 -151 -16 -256 -20
-295 -1 -22 -6 -80 -10 -130 -3 -49 -8 -103 -10 -120 -2 -16 -6 -61 -10 -100
-3 -38 -8 -83 -10 -100 -2 -16 -7 -66 -11 -110 -3 -43 -8 -88 -10 -98 -2 -10
-6 -48 -9 -85 -3 -37 -7 -83 -10 -102 -9 -65 -15 -115 -20 -170 -3 -30 -7 -71
-10 -90 -2 -19 -7 -60 -10 -90 -4 -30 -8 -66 -10 -80 -2 -14 -6 -54 -10 -90
-4 -36 -8 -76 -10 -90 -3 -25 -9 -76 -20 -175 -3 -27 -7 -66 -10 -85 -2 -19
-7 -62 -10 -95 -7 -74 -12 -117 -22 -220 -14 -143 -9 -234 16 -292 91 -206
384 -218 565 -23 20 22 34 40 31 40 -3 0 3 17 14 38 23 45 34 114 46 282 3 41
8 91 10 110 2 19 7 67 10 105 5 68 12 134 20 205 2 19 6 67 10 105 3 39 8 81
10 95 2 14 7 54 10 90 3 36 7 79 9 95 2 17 7 64 11 105 4 41 9 82 10 91 2 9 6
52 10 95 8 100 11 110 32 110 10 1 47 4 83 8 l65 7 87 -153 c270 -477 445
-939 523 -1378 9 -52 25 -113 35 -136 62 -142 247 -208 410 -145 129 49 209
167 204 301 -4 124 -171 712 -259 915 -7 17 -16 41 -20 55 -4 14 -18 48 -30
75 -13 28 -33 75 -46 105 -55 132 -209 426 -334 640 -2 3 27 26 63 52 107 74
248 204 309 285 15 21 30 40 33 43 14 14 50 70 50 79 0 5 4 11 9 13 25 10 154
292 188 413 24 85 63 239 69 270 2 17 7 37 9 45 2 8 7 35 10 60 3 25 8 57 10
71 3 14 7 50 10 80 3 30 7 70 10 89 2 19 7 87 11 150 5 102 3 121 -16 172 -50
134 -194 201 -362 168 -84 -16 -152 -52 -208 -111 -61 -64 -72 -100 -85 -279
-3 -47 -8 -92 -10 -100 -2 -8 -6 -37 -10 -63 -5 -40 -18 -108 -50 -261 -25
-117 -127 -344 -203 -451 -117 -166 -307 -307 -478 -354 l-36 -10 6 97 c4 53
9 138 12 187 2 50 7 115 9 145 25 319 23 1221 -4 1355 -30 156 -155 244 -315
223z m126 -134 c34 -18 57 -52 69 -101 28 -120 31 -904 4 -1348 -11 -189 -17
-273 -20 -305 -1 -19 -6 -71 -9 -115 -4 -44 -9 -99 -11 -121 -5 -49 -18 -48
145 -2 205 59 340 136 481 277 232 231 375 603 414 1081 11 133 14 151 36 181
40 57 134 101 212 100 88 -1 133 -23 166 -81 22 -40 23 -49 17 -149 -8 -143
-17 -233 -31 -311 -2 -14 -7 -45 -10 -70 -22 -163 -91 -405 -156 -547 -10 -23
-19 -44 -19 -47 0 -2 -19 -37 -42 -78 -115 -203 -262 -356 -473 -493 -49 -32
-92 -60 -93 -61 -2 -1 27 -53 65 -116 285 -465 485 -951 628 -1523 57 -228 52
-285 -30 -353 -71 -58 -182 -66 -254 -19 -58 38 -73 74 -97 227 -6 41 -46 204
-73 305 -103 374 -321 860 -544 1208 -54 85 -52 84 -149 63 -12 -3 -45 -8 -73
-10 -87 -9 -150 -17 -154 -22 -6 -6 -8 -19 -15 -112 -4 -42 -9 -88 -11 -102
-4 -23 -7 -47 -20 -177 -2 -27 -7 -73 -10 -103 -9 -87 -13 -131 -20 -195 -3
-33 -7 -76 -10 -95 -2 -19 -7 -64 -10 -100 -3 -36 -7 -76 -9 -90 -3 -14 -7
-61 -11 -105 -3 -44 -8 -96 -10 -115 -2 -19 -7 -69 -10 -110 -18 -215 -23
-238 -76 -295 -102 -110 -282 -116 -345 -12 -21 35 -25 136 -10 272 4 39 9 90
12 115 2 25 6 63 9 85 2 22 7 69 10 105 3 36 10 99 15 140 19 147 26 208 35
300 4 36 8 72 10 80 1 8 6 47 10 85 7 72 10 97 19 175 3 25 8 70 11 100 4 30
8 66 10 80 2 14 6 59 10 100 4 41 8 86 10 100 2 14 6 59 10 100 3 41 8 91 10
110 2 19 7 68 10 109 6 75 9 102 20 246 3 44 8 103 10 130 4 48 12 203 21 410
5 121 5 598 0 675 -18 265 -17 329 2 372 26 58 65 103 119 135 73 43 144 48
205 17z"/>
<path d="M7772 12108 c-119 -18 -231 -107 -272 -218 -33 -88 -31 -170 8 -295
17 -55 58 -199 92 -320 161 -580 248 -837 375 -1100 129 -269 248 -439 444
-636 94 -94 230 -211 278 -238 16 -9 16 -14 -1 -88 -19 -79 -60 -221 -75 -258
-5 -11 -21 -53 -37 -94 -86 -225 -229 -349 -288 -250 -30 51 -46 145 -52 298
-8 253 -17 286 -105 370 -71 69 -138 94 -249 95 -101 1 -156 -18 -213 -72 -60
-58 -80 -116 -80 -232 -1 -73 12 -277 18 -300 2 -8 7 -44 10 -80 8 -81 46
-227 79 -309 32 -80 104 -188 159 -238 45 -42 159 -113 181 -113 6 0 16 -4 22
-9 19 -18 160 -44 238 -44 141 0 241 23 360 81 93 45 149 85 222 157 175 173
287 410 404 858 9 35 17 47 31 47 36 0 118 38 163 75 63 52 98 126 99 210 0
54 -5 75 -34 131 -20 41 -50 80 -77 103 -50 41 -49 18 -8 251 8 47 17 105 21
130 3 25 10 70 15 100 8 47 36 261 55 420 3 25 12 97 20 160 8 63 17 140 20
170 3 30 8 71 10 90 3 19 7 54 10 78 3 23 7 59 10 80 2 20 6 57 9 82 2 25 12
104 21 175 9 72 18 150 21 175 2 25 7 56 9 70 3 14 8 62 11 106 8 110 -11 175
-71 241 -101 113 -270 161 -397 114 -56 -22 -128 -77 -128 -99 0 -7 -4 -12 -8
-12 -12 0 -30 -62 -41 -145 -35 -243 -41 -289 -46 -350 -3 -33 -7 -67 -10 -75
-2 -8 -7 -53 -10 -100 -4 -47 -9 -92 -10 -101 -2 -9 -6 -52 -10 -95 -4 -43 -8
-90 -10 -104 -2 -14 -6 -59 -10 -100 -4 -41 -8 -86 -10 -100 -2 -14 -6 -54
-10 -90 -4 -36 -8 -76 -10 -90 -2 -14 -7 -54 -10 -90 -4 -36 -9 -73 -11 -84
-2 -10 -6 -44 -9 -75 -4 -31 -8 -67 -10 -81 -2 -14 -9 -63 -15 -110 -14 -105
-20 -143 -24 -148 -12 -11 -142 191 -210 326 -40 80 -165 369 -171 397 -1 5
-7 21 -12 35 -6 14 -20 57 -33 95 -12 39 -26 79 -30 90 -5 11 -27 79 -49 150
-37 120 -72 245 -181 634 -22 79 -50 164 -62 189 -58 115 -185 179 -316 160z
m130 -132 c20 -10 48 -35 63 -56 23 -33 57 -125 69 -185 9 -45 80 -296 166
-585 102 -341 218 -647 327 -859 52 -101 178 -301 219 -347 10 -12 51 -61 89
-108 56 -69 71 -82 77 -68 12 29 73 431 102 677 14 113 18 142 21 165 2 14 7
54 10 90 3 36 8 76 10 90 2 14 7 63 10 110 4 47 9 92 10 100 2 8 6 53 10 100
4 47 9 92 10 101 2 8 6 53 10 100 4 46 8 91 10 99 2 8 6 44 10 80 16 155 55
402 67 426 25 52 62 69 146 69 91 -1 138 -21 195 -84 51 -56 55 -95 32 -271
-2 -19 -7 -57 -10 -85 -8 -69 -13 -107 -25 -205 -6 -47 -13 -103 -16 -125 -2
-22 -7 -56 -9 -75 -3 -19 -7 -56 -10 -82 -9 -86 -15 -142 -20 -178 -2 -19 -7
-57 -10 -85 -3 -27 -8 -66 -10 -85 -3 -19 -8 -55 -10 -80 -3 -25 -8 -63 -11
-85 -2 -22 -7 -58 -10 -80 -4 -36 -9 -72 -19 -145 -2 -14 -6 -50 -10 -80 -3
-30 -10 -77 -15 -105 -5 -27 -11 -68 -14 -90 -7 -59 -14 -98 -45 -262 l-27
-148 22 -17 c12 -10 25 -18 29 -18 3 0 23 -16 45 -36 69 -64 91 -142 60 -211
-30 -66 -93 -104 -198 -118 -46 -6 -53 -10 -58 -33 -143 -605 -301 -890 -564
-1019 -108 -53 -107 -52 -195 -68 -206 -36 -394 19 -512 149 -87 97 -156 266
-179 441 -4 28 -8 57 -9 65 -4 23 -17 226 -20 305 -3 105 20 151 91 181 76 32
170 15 241 -42 59 -49 71 -89 77 -279 3 -88 8 -171 11 -185 3 -14 8 -41 12
-60 4 -19 7 -37 8 -40 7 -40 50 -140 58 -137 7 2 19 -1 27 -9 8 -7 46 -24 84
-38 54 -21 71 -24 78 -14 4 7 8 16 8 19 0 4 14 12 30 19 46 19 100 66 138 118
107 149 213 446 258 717 4 29 0 34 -70 83 -41 29 -81 58 -88 65 -7 6 -33 28
-58 48 -83 67 -175 164 -283 294 -100 121 -259 408 -336 605 -18 47 -39 99
-46 115 -21 50 -141 417 -150 459 -1 6 -9 36 -18 66 -87 293 -190 673 -191
705 -7 163 166 287 306 221z"/>
<path d="M6117 11934 c-1 -1 -42 -5 -92 -8 -117 -8 -329 -39 -470 -70 -11 -3
-54 -12 -95 -21 -221 -47 -324 -88 -394 -159 -147 -150 -116 -357 67 -442 29
-13 60 -24 69 -24 25 0 25 2 43 -155 14 -117 33 -267 40 -315 2 -14 6 -47 9
-75 7 -53 34 -262 41 -305 7 -50 15 -106 21 -160 4 -30 8 -64 10 -75 4 -33 14
-107 19 -150 3 -22 16 -120 29 -218 l23 -177 -42 -24 c-126 -74 -183 -208
-145 -341 20 -73 104 -154 185 -180 84 -27 78 -20 90 -115 3 -25 12 -83 20
-130 13 -78 17 -102 31 -195 35 -219 115 -541 155 -622 96 -198 344 -247 493
-99 106 105 118 188 62 420 -42 170 -78 353 -92 456 -3 25 -7 52 -9 60 -3 8
-7 33 -10 55 -4 22 -8 51 -11 65 -2 14 -7 48 -10 75 -4 28 -8 53 -11 58 -2 4
-1 7 4 8 28 3 86 13 218 40 431 88 757 262 934 500 228 306 318 728 252 1174
-6 39 -15 85 -20 103 -5 18 -10 33 -9 35 1 6 -27 100 -49 167 -64 193 -222
429 -366 547 -160 132 -420 245 -637 277 -83 13 -345 27 -353 20z m268 -128
c28 -3 59 -7 70 -10 11 -2 40 -7 65 -11 25 -4 85 -20 133 -36 241 -80 433
-220 565 -411 72 -105 175 -347 195 -463 3 -17 8 -41 12 -55 3 -14 7 -38 9
-55 3 -16 8 -52 12 -80 4 -27 7 -108 7 -180 0 -118 -3 -152 -19 -265 -9 -60
-53 -218 -80 -288 -80 -204 -222 -385 -379 -482 -67 -42 -77 -47 -170 -94
-129 -64 -354 -135 -512 -161 -41 -6 -82 -14 -108 -19 -11 -2 -47 -7 -80 -10
-97 -11 -97 -12 -90 -59 4 -23 8 -53 10 -67 7 -50 16 -106 20 -131 3 -14 7
-41 9 -60 17 -129 48 -299 83 -459 13 -63 27 -124 29 -135 2 -11 10 -43 19
-70 48 -159 -19 -288 -154 -300 -77 -6 -160 46 -196 122 -44 92 -147 572 -181
838 -3 28 -13 95 -23 150 l-16 100 -68 12 c-83 15 -135 43 -166 89 -30 44 -33
98 -8 149 25 51 57 79 135 116 34 17 61 33 58 37 -2 4 -6 32 -10 62 -3 30 -10
89 -16 130 -5 41 -12 98 -15 125 -3 28 -8 57 -10 65 -2 8 -7 42 -10 75 -7 66
-9 83 -26 200 -12 88 -14 102 -24 190 -4 33 -9 68 -11 79 -2 10 -6 44 -9 75
-4 31 -8 63 -10 71 -2 8 -7 40 -10 70 -3 30 -8 66 -10 80 -2 14 -11 81 -20
150 -8 69 -17 143 -20 165 -3 22 -8 67 -12 100 -3 33 -8 80 -12 104 l-6 45
-68 12 c-111 21 -164 63 -173 140 -8 56 29 119 94 165 45 32 167 75 262 93 14
2 70 14 125 26 55 11 116 23 135 26 19 3 41 7 48 9 86 29 480 49 627 31z"/>
<path d="M6208 11455 c-2 -2 -36 -6 -77 -9 -60 -5 -142 -20 -280 -51 -17 -4
-135 -38 -138 -40 -1 0 2 -30 7 -65 5 -36 11 -85 14 -110 3 -25 8 -62 11 -82
9 -64 13 -99 30 -228 8 -69 18 -141 21 -160 4 -33 10 -72 19 -150 2 -19 7 -51
9 -70 3 -19 8 -57 11 -85 3 -27 8 -57 10 -65 2 -8 6 -40 10 -70 7 -74 13 -121
25 -205 5 -38 12 -95 15 -125 3 -30 7 -62 10 -70 2 -8 6 -44 10 -80 3 -36 7
-75 9 -85 2 -11 7 -53 11 -93 l7 -72 67 6 c137 12 178 18 291 40 89 18 266 77
333 111 248 125 405 421 410 770 4 318 -102 593 -307 795 -116 115 -262 180
-416 187 -30 1 -67 4 -82 5 -15 2 -29 2 -30 1z m194 -135 c163 -38 309 -165
408 -354 60 -114 94 -229 107 -356 25 -242 -19 -450 -132 -620 -94 -142 -208
-212 -439 -271 -135 -35 -295 -58 -297 -43 0 5 -2 18 -4 29 -2 11 -7 49 -11
85 -3 36 -8 73 -10 84 -2 10 -6 44 -9 75 -4 31 -8 67 -10 81 -2 14 -7 52 -10
85 -3 33 -8 67 -10 75 -2 8 -7 40 -10 70 -3 30 -8 66 -10 80 -5 32 -25 183
-31 235 -3 22 -9 69 -14 105 -13 87 -34 248 -45 345 -4 28 -8 61 -10 75 -8 58
-18 136 -20 153 -2 17 22 27 95 41 14 3 50 10 80 16 30 6 80 13 110 17 30 3
56 6 58 8 8 7 169 -5 214 -15z"/>
<path d="M12938 11915 c-2 -2 -18 -5 -36 -8 -51 -8 -138 -56 -176 -97 -37 -40
-76 -109 -82 -146 -2 -13 -9 -52 -15 -87 -6 -34 -13 -75 -16 -92 -6 -36 -44
-266 -73 -430 -11 -66 -25 -142 -30 -170 -13 -65 -16 -81 -25 -135 -4 -25 -9
-54 -11 -65 -2 -11 -9 -47 -14 -80 -6 -33 -12 -73 -15 -90 -8 -40 -36 -195
-41 -219 -13 -71 -76 -426 -79 -448 -2 -15 -6 -35 -9 -45 -5 -18 -9 -40 -21
-117 -7 -42 -10 -57 -25 -131 -5 -27 -12 -66 -16 -85 -3 -19 -9 -57 -14 -85
-5 -27 -18 -102 -29 -165 -11 -63 -34 -194 -51 -290 -26 -148 -85 -494 -108
-635 -7 -45 -8 -138 -1 -175 2 -14 17 -46 32 -72 104 -178 371 -206 527 -57
19 19 67 78 105 132 39 54 173 234 298 400 400 530 880 1172 937 1253 81 115
147 209 207 298 29 44 53 75 53 69 0 -6 -50 -208 -111 -449 -145 -572 -236
-968 -270 -1164 -5 -30 -11 -65 -13 -76 -5 -25 -15 -85 -22 -134 -3 -19 -7
-46 -9 -60 -2 -14 -7 -52 -11 -85 -3 -33 -9 -87 -13 -120 -30 -224 42 -358
219 -405 116 -31 254 3 339 83 63 60 93 126 106 232 3 28 10 82 15 120 6 39
12 92 16 119 3 28 7 52 9 56 2 3 6 37 10 75 4 39 9 73 11 76 2 3 6 26 9 50 3
24 12 78 20 119 8 41 17 91 20 110 5 28 39 192 91 435 34 162 67 311 94 420
15 66 40 174 55 240 14 66 32 149 40 185 8 36 17 76 19 90 3 14 20 104 40 200
54 271 79 421 111 660 3 25 8 61 10 80 3 19 8 64 11 100 2 36 7 71 9 78 3 7 7
63 11 125 6 103 5 118 -15 163 -88 199 -401 261 -565 112 -11 -10 -23 -18 -28
-18 -4 0 -8 -6 -8 -14 0 -7 -7 -19 -16 -27 -9 -7 -23 -28 -32 -46 -24 -48
-186 -308 -296 -475 -98 -149 -122 -184 -302 -437 -60 -84 -121 -170 -135
-190 -26 -37 -307 -418 -322 -436 -4 -5 -38 -50 -74 -100 -37 -49 -99 -133
-138 -185 -39 -52 -77 -105 -85 -117 -41 -59 -154 -213 -156 -213 -2 0 -1 6 1
13 2 6 6 23 9 37 2 14 47 239 99 500 53 261 98 486 100 500 6 28 87 444 93
475 2 11 7 34 9 50 3 17 13 64 21 105 8 41 24 120 34 175 11 55 22 114 25 130
20 108 25 133 30 160 3 17 10 58 16 93 35 198 -84 345 -290 357 -33 2 -61 2
-63 0z m148 -138 c43 -22 82 -71 90 -112 7 -41 2 -76 -46 -325 -5 -30 -12 -66
-15 -80 -3 -14 -11 -59 -20 -100 -8 -41 -17 -88 -20 -105 -8 -47 -168 -860
-181 -920 -5 -25 -54 -272 -60 -305 -2 -14 -7 -36 -10 -50 -3 -14 -8 -36 -11
-50 -2 -14 -17 -90 -34 -170 -16 -80 -31 -154 -33 -165 -2 -11 -29 -144 -60
-297 -31 -152 -56 -282 -56 -289 0 -8 16 9 35 36 58 83 132 187 170 240 19 28
43 61 53 75 9 14 53 75 97 135 44 61 87 120 95 132 20 30 281 384 297 403 13
15 118 158 296 401 248 338 647 923 647 948 0 6 4 11 8 11 5 0 16 15 25 33 10
17 27 48 40 68 12 19 41 66 64 105 51 85 77 110 139 133 122 44 291 -25 310
-127 6 -32 -2 -198 -11 -224 -2 -7 -6 -40 -9 -73 -6 -69 -15 -149 -21 -185 -2
-14 -9 -61 -15 -105 -17 -119 -17 -119 -44 -275 -27 -153 -30 -166 -46 -245
-6 -27 -13 -63 -16 -80 -13 -69 -89 -419 -149 -680 -55 -241 -133 -594 -149
-675 -20 -103 -55 -292 -61 -325 -13 -81 -44 -291 -50 -335 -3 -25 -10 -72
-15 -105 -5 -33 -11 -87 -15 -120 -4 -32 -12 -73 -19 -90 -33 -76 -113 -125
-209 -127 -76 -2 -127 20 -171 75 -25 32 -30 47 -32 100 -1 34 2 91 6 127 5
36 11 90 15 120 8 71 43 290 55 344 5 22 11 57 15 76 19 116 96 447 245 1045
260 1048 280 1129 275 1133 -3 3 -8 -4 -12 -15 -19 -47 -649 -966 -741 -1080
-30 -38 -65 -86 -79 -108 -33 -51 -113 -158 -403 -538 -129 -170 -244 -322
-255 -337 -11 -16 -75 -102 -143 -192 -143 -190 -132 -175 -223 -303 -92 -130
-104 -142 -163 -170 -39 -19 -63 -23 -111 -21 -72 3 -114 24 -159 79 -28 35
-30 45 -30 105 1 37 16 153 33 257 18 105 34 201 36 215 2 14 8 50 14 80 6 30
13 71 16 90 10 61 44 244 50 270 4 14 8 32 10 40 5 24 14 110 20 190 3 41 7
82 10 90 2 8 6 31 9 50 3 19 16 80 30 135 14 55 28 114 31 130 11 59 37 196
50 273 2 15 9 52 15 82 6 30 13 73 16 95 3 22 7 46 10 54 3 8 7 30 10 50 5 30
47 263 70 391 10 50 11 59 19 115 3 28 10 68 15 90 13 56 38 193 44 235 3 19
12 76 21 125 9 50 18 104 21 120 3 17 7 37 9 45 2 8 6 35 9 60 3 25 8 55 10
66 2 12 7 38 10 58 19 120 117 197 241 192 33 -1 74 -10 91 -19z"/>
<path d="M2370 11601 c-87 -27 -150 -91 -180 -181 -75 -222 79 -469 424 -680
47 -29 85 -54 84 -55 -2 -2 -36 -5 -76 -8 -72 -5 -73 -5 -56 14 13 15 14 19 3
20 -8 0 -22 2 -32 4 -10 2 -55 6 -100 10 -163 12 -256 19 -372 30 -22 2 -78 6
-125 10 -139 11 -256 24 -280 30 -8 3 -33 7 -55 10 -22 4 -78 13 -125 21 -47
8 -137 24 -200 34 -63 11 -124 21 -135 24 -11 2 -40 7 -65 11 -25 4 -54 9 -65
11 -122 25 -244 23 -319 -5 -11 -5 -25 -10 -31 -11 -35 -10 -104 -66 -152
-124 -46 -56 -62 -211 -29 -288 9 -21 16 -39 16 -41 0 -3 -27 -7 -60 -11 -193
-22 -323 -129 -348 -288 -15 -100 22 -208 101 -290 41 -43 117 -98 136 -98 5
0 14 -6 20 -13 8 -11 5 -19 -14 -37 -35 -33 -65 -120 -65 -190 0 -105 47 -201
139 -287 62 -59 142 -98 257 -129 55 -14 102 -28 107 -31 4 -2 -10 -22 -32
-43 -147 -146 -56 -419 191 -569 101 -61 201 -91 443 -130 141 -24 181 -29
325 -45 30 -4 71 -9 90 -11 19 -3 69 -7 110 -10 41 -3 100 -8 130 -11 30 -2
129 -6 220 -9 l165 -4 95 33 c73 25 102 31 125 25 16 -5 45 -11 65 -14 19 -4
58 -10 85 -15 95 -16 289 -8 385 15 14 3 36 8 50 11 24 5 94 28 135 44 11 5
48 17 81 28 129 41 353 220 500 397 177 215 318 531 364 820 11 69 15 309 6
393 -10 88 -17 147 -21 162 -2 8 -7 31 -10 50 -11 69 -55 218 -89 301 -75 186
-169 327 -305 457 -119 113 -225 174 -566 325 -178 79 -318 146 -513 246 -124
63 -241 98 -331 99 -42 0 -87 -3 -101 -7z m165 -164 c54 -13 129 -44 220 -90
259 -130 320 -160 545 -259 296 -131 369 -175 486 -292 230 -231 357 -587 357
-1001 0 -186 -11 -261 -65 -425 -54 -167 -140 -335 -236 -465 -70 -94 -238
-254 -337 -321 -145 -98 -395 -171 -575 -168 -250 5 -495 94 -658 239 -34 30
-83 55 -109 55 -12 0 -14 -8 -10 -37 11 -66 104 -180 200 -245 21 -14 35 -28
30 -30 -13 -7 -305 5 -435 17 -161 16 -220 23 -323 36 -44 6 -93 13 -110 14
-84 9 -297 49 -355 67 -164 50 -281 148 -316 265 -11 38 -11 50 0 78 8 18 25
39 38 46 37 20 125 19 233 -2 95 -19 383 -68 490 -85 143 -21 225 11 225 90 0
29 -38 77 -83 105 -20 12 -74 26 -142 36 -118 17 -137 20 -230 36 -253 43
-716 157 -792 195 -139 71 -193 216 -109 300 38 38 95 55 179 55 79 -1 94 -4
297 -56 58 -15 112 -29 120 -30 38 -9 217 -47 235 -51 11 -2 40 -8 65 -14 121
-27 342 -60 417 -61 88 -2 107 15 98 90 -12 91 -68 123 -244 137 -47 3 -89 8
-92 10 -3 2 -34 6 -70 10 -35 3 -67 8 -70 10 -4 2 -38 8 -75 14 -38 5 -79 12
-90 14 -12 2 -38 7 -58 10 -21 3 -70 13 -109 21 -40 8 -195 37 -345 65 -150
28 -292 59 -315 69 -122 53 -189 173 -147 267 16 36 90 89 138 99 53 11 145
13 209 4 32 -4 78 -10 103 -13 25 -3 86 -13 135 -21 129 -23 134 -24 215 -40
14 -2 40 -7 59 -10 19 -3 100 -21 180 -40 299 -70 533 -96 589 -66 29 16 45
57 37 97 -7 39 -33 51 -135 60 -41 3 -82 8 -91 9 -9 2 -61 9 -115 15 -55 6
-178 27 -274 45 -96 19 -224 43 -285 55 -60 11 -121 22 -135 25 -14 3 -41 8
-60 11 -43 7 -128 45 -156 70 -77 70 -74 170 6 238 56 46 189 71 290 52 19 -4
98 -18 175 -31 77 -14 203 -36 280 -50 77 -13 158 -27 180 -30 22 -3 54 -7 70
-10 60 -9 247 -26 440 -40 50 -4 91 -8 93 -9 1 -2 -20 -30 -47 -64 -54 -67
-76 -120 -67 -157 7 -29 19 -26 96 25 66 43 112 65 188 90 116 36 183 45 357
44 401 -3 614 -158 734 -535 21 -66 26 -123 25 -274 -1 -132 -4 -161 -28 -238
-42 -141 -119 -277 -195 -345 -223 -200 -622 -124 -747 143 -72 155 -60 424
27 564 87 143 238 170 332 61 89 -104 73 -310 -40 -507 -48 -86 -51 -98 -24
-113 31 -16 86 -12 148 13 102 40 219 181 260 315 19 64 19 197 -2 268 -78
276 -303 423 -550 359 -201 -53 -355 -241 -411 -505 -3 -14 -7 -90 -9 -170 -7
-278 51 -456 192 -591 217 -209 528 -268 778 -149 163 78 323 246 414 435 39
81 77 205 95 307 19 108 14 355 -9 453 -9 39 -18 77 -20 87 -8 37 -66 164
-104 228 -53 89 -166 209 -249 264 -88 58 -160 90 -317 141 -71 23 -152 53
-180 66 -51 23 -246 137 -255 148 -3 4 -36 31 -74 61 -118 92 -185 193 -193
289 -12 129 56 180 192 148z"/>
<path d="M17391 11588 c-40 -11 -176 -72 -302 -134 -126 -63 -231 -114 -233
-114 -2 0 -50 -22 -107 -49 -57 -26 -138 -63 -179 -81 -223 -97 -361 -183
-473 -295 -195 -194 -311 -433 -382 -785 -1 -8 -6 -44 -10 -80 -4 -36 -9 -78
-11 -95 -6 -46 -5 -284 1 -340 14 -119 43 -233 92 -365 38 -102 125 -285 149
-311 8 -8 14 -19 14 -24 0 -18 144 -199 218 -272 101 -101 137 -130 252 -207
63 -42 124 -73 180 -92 47 -15 87 -28 90 -29 3 0 10 -3 15 -6 10 -6 104 -29
200 -48 71 -15 306 -6 395 14 100 23 104 22 190 -11 71 -27 83 -29 220 -28
129 0 349 11 390 19 8 2 53 6 100 10 47 3 92 8 100 10 8 2 42 7 75 10 33 3 71
8 85 10 14 2 45 7 70 10 101 14 116 16 130 20 8 2 31 7 50 10 77 12 198 42
250 62 8 4 17 7 20 7 37 9 150 86 207 142 96 94 137 177 140 281 2 89 -16 138
-68 192 -38 38 -47 53 -31 49 30 -8 230 60 292 99 177 113 256 310 187 465
-13 29 -34 61 -45 72 -27 23 -23 29 35 58 65 33 151 121 180 185 48 105 44
225 -11 312 -55 87 -179 154 -308 168 -49 5 -58 9 -52 22 41 100 40 195 -6
287 -42 85 -119 144 -228 173 -52 15 -165 20 -212 10 -19 -4 -51 -10 -70 -13
-19 -3 -44 -7 -55 -10 -11 -2 -56 -9 -100 -16 -44 -7 -89 -14 -100 -16 -17 -3
-95 -17 -289 -50 -16 -3 -32 -6 -35 -8 -3 -2 -35 -7 -71 -11 -36 -4 -72 -8
-80 -10 -22 -4 -127 -15 -185 -20 -27 -2 -81 -6 -120 -9 -38 -3 -101 -8 -140
-11 -38 -3 -92 -7 -120 -9 -27 -3 -86 -7 -130 -11 -44 -3 -89 -8 -100 -10 -11
-2 -26 -4 -34 -4 -11 -1 -10 -6 4 -21 18 -20 18 -20 -6 -16 -13 3 -51 5 -84 5
l-60 1 101 61 c306 186 460 397 441 606 -11 111 -71 199 -165 241 -60 27 -176
27 -271 0z m205 -153 c41 -17 64 -63 64 -128 0 -87 -43 -164 -147 -264 -60
-58 -202 -163 -219 -163 -4 0 -15 -6 -23 -14 -35 -31 -185 -98 -314 -140 -162
-53 -228 -82 -322 -146 -206 -140 -341 -370 -385 -660 -10 -63 -7 -299 3 -350
3 -14 8 -43 12 -64 8 -57 61 -211 96 -280 92 -181 254 -346 409 -418 101 -47
151 -58 260 -59 234 -1 473 123 596 308 105 159 143 459 89 708 -43 198 -190
384 -353 445 -309 116 -612 -125 -614 -489 -1 -110 42 -218 129 -326 86 -107
257 -172 306 -117 16 17 15 21 -13 65 -80 126 -115 237 -115 362 0 88 3 105
25 144 72 127 207 145 310 41 117 -116 157 -348 98 -570 -27 -101 -119 -205
-232 -260 -154 -76 -327 -71 -468 13 -119 72 -218 223 -270 412 -32 118 -32
366 0 478 45 156 102 265 189 358 123 132 290 191 543 192 261 2 401 -33 559
-139 49 -33 68 -41 78 -32 32 26 -1 110 -76 193 l-36 40 75 7 c41 4 107 9 145
12 205 16 255 21 310 29 22 4 58 9 80 12 22 3 74 12 115 20 41 8 89 16 105 19
17 2 86 14 155 26 69 12 139 24 155 26 17 3 55 10 85 16 77 15 177 13 229 -6
179 -65 194 -235 27 -316 -34 -16 -79 -32 -101 -35 -22 -3 -96 -17 -165 -30
-69 -13 -141 -27 -160 -30 -19 -3 -84 -17 -145 -30 -100 -21 -178 -34 -320
-51 -27 -3 -61 -7 -75 -9 -14 -2 -59 -7 -100 -10 -74 -6 -116 -23 -127 -51
-11 -28 8 -84 33 -101 28 -18 135 -22 229 -8 28 3 63 8 79 10 15 3 35 6 45 9
9 3 35 8 58 11 23 3 96 19 163 35 66 17 169 39 228 50 59 10 118 22 132 25 14
2 99 17 190 31 197 31 324 35 396 11 148 -50 173 -198 51 -302 -64 -55 -123
-77 -267 -100 -19 -3 -163 -30 -320 -60 -157 -30 -312 -59 -345 -65 -33 -5
-69 -12 -80 -14 -11 -2 -41 -6 -66 -10 -25 -4 -57 -9 -70 -11 -27 -5 -100 -13
-174 -21 -127 -13 -175 -29 -207 -74 -19 -27 -30 -86 -21 -119 11 -42 91 -44
318 -5 50 8 104 17 120 20 17 2 71 13 120 24 50 10 101 21 115 23 45 9 243 56
344 82 124 33 144 36 231 35 204 -1 271 -165 124 -302 -31 -28 -74 -56 -108
-69 -53 -20 -64 -23 -112 -34 -12 -2 -91 -22 -177 -44 -193 -49 -445 -101
-568 -116 -27 -4 -56 -8 -65 -11 -9 -3 -39 -7 -65 -9 -90 -9 -152 -35 -190
-78 -38 -45 -43 -80 -16 -113 42 -53 94 -57 297 -25 177 27 183 28 327 56 172
34 226 39 276 26 104 -28 97 -153 -14 -265 -97 -99 -255 -157 -519 -191 -27
-3 -61 -8 -75 -10 -60 -10 -261 -35 -320 -40 -143 -13 -170 -15 -290 -21 -184
-10 -244 -11 -253 -7 -4 3 19 24 51 47 97 72 182 186 182 244 0 41 -71 16
-139 -49 -40 -38 -178 -116 -262 -149 -125 -48 -240 -71 -372 -74 -188 -5
-447 72 -596 177 -104 73 -257 224 -335 329 -136 186 -262 493 -282 693 -9 79
-8 272 0 360 21 211 89 441 174 590 130 225 277 352 542 469 353 156 467 209
600 281 208 112 343 151 416 120z"/>
</g>
</svg>
