<svg width="60" height="60" viewBox="0 0 60 60" fill="none" xmlns="http://www.w3.org/2000/svg">
<g clip-path="url(#clip0_186_1021)">
<path d="M53.7344 52.2297C53.3232 51.9722 52.7808 52.0964 52.5229 52.5074C51.1853 54.641 49.5584 56.569 47.6843 58.2422H12.3171C6.66953 53.2 3.4375 45.9949 3.4375 38.4211C3.4375 29.2218 8.09652 20.8054 15.9004 15.9072C16.3115 15.6491 16.4356 15.1067 16.1775 14.6954C15.9195 14.2843 15.3771 14.1602 14.9658 14.4183C10.978 16.9212 7.64641 20.4084 5.33102 24.5031C2.94227 28.7272 1.67969 33.54 1.67969 38.4212C1.67969 46.6122 5.22543 54.3987 11.4079 59.7839C11.5679 59.9232 11.7729 60.0001 11.9852 60.0001H48.0166C48.2288 60.0001 48.4339 59.9234 48.5938 59.7839C50.7019 57.9477 52.525 55.8137 54.0123 53.4411C54.27 53.0299 54.1457 52.4875 53.7344 52.2297Z" fill="#CFB595"/>
<path d="M53.2086 38.0708C53.2098 37.9784 53.2104 37.8859 53.2104 37.7932C53.2104 24.9959 42.7989 14.5845 30.0016 14.5845C17.2044 14.5845 6.79297 24.9959 6.79297 37.7932C6.79297 37.8859 6.79355 37.9784 6.79473 38.0712C6.82145 40.3015 8.6552 42.1161 10.8827 42.1161H49.1207C51.3479 42.116 53.1818 40.3015 53.2086 38.0708ZM47.0279 40.3582C47.2112 38.9591 47.1302 37.5443 46.7866 36.1236C47.2698 35.6687 47.9102 35.26 48.5098 34.9778L48.982 36.7535C49.2985 37.9437 49.2325 39.2098 48.8001 40.3582H47.0279ZM43.3122 40.3582C43.8308 38.7592 43.8462 37.0446 43.3445 35.4143C43.7272 34.9668 44.0246 34.7513 44.3571 34.4495C45.2504 36.4487 45.551 38.4304 45.2521 40.3582H43.3122ZM39.5431 40.3582C39.7403 38.6628 39.5807 36.9652 39.0671 35.2792C39.6111 34.6981 40.2866 34.2288 40.9864 33.8496L41.6308 35.8254C42.1195 37.3239 42.0488 38.9189 41.4371 40.3582H39.5431ZM35.527 40.3582C36.2151 38.4607 36.2045 36.364 35.5009 34.4748C35.7999 34.118 36.0084 33.9434 36.4409 33.5122C37.6324 35.7881 38.0791 38.0848 37.7714 40.3582H35.527ZM31.9456 40.3582C32.0797 38.319 31.7312 36.3293 30.9056 34.407C31.2994 33.8781 31.8873 33.2806 32.7788 32.6693L33.6829 34.6732C34.4493 36.3719 34.4775 38.3325 33.7604 40.0519C33.7162 40.1576 33.6643 40.26 33.6055 40.3581H31.9456V40.3582ZM26.7139 40.3582C25.6096 38.0981 25.9188 35.4081 27.5224 33.4542L28.0381 32.8258C29.6821 35.2467 30.387 37.7241 30.1836 40.3582H26.7139ZM19.6207 40.3582C18.7726 38.4513 18.9537 36.2128 20.1111 34.4639L20.5171 33.8503C22.2011 35.8655 23.1014 38.0078 23.2532 40.3582H19.6207ZM16.7054 40.3582C16.5132 38.9063 16.0476 37.5109 15.3136 36.1825C15.6879 35.5671 16.1929 35.0242 16.7373 34.5526L17.5631 35.9735C17.2119 37.4125 17.2661 38.937 17.7379 40.3583L16.7054 40.3582ZM11.3694 40.3582C10.9405 38.7585 11.2128 37.0692 12.1345 35.6765L12.4839 35.1483C13.8194 36.7698 14.6393 38.5163 14.9292 40.3582H11.3694ZM14.0655 34.3094L14.5694 33.1215L14.9922 33.7796C14.7307 34.044 14.4934 34.3142 14.2805 34.5895C14.2102 34.4958 14.1385 34.4024 14.0655 34.3094ZM23.4506 35.0237C23.7782 34.4787 24.2705 33.8736 25.0221 33.2297L25.2751 33.6649C24.7249 34.6886 24.4048 35.8068 24.3226 36.9438C24.089 36.2903 23.7982 35.6499 23.4506 35.0237ZM22.4159 33.4242C22.3243 33.3007 22.2302 33.1778 22.1336 33.0556L22.6932 31.7359C22.7018 31.7156 22.7272 31.7138 22.7391 31.7319L23.2297 32.4955C22.9278 32.7981 22.6564 33.1079 22.4159 33.4242ZM30.0396 32.7051C29.947 32.5481 29.8511 32.3918 29.7519 32.236L30.4818 30.9114C30.5084 30.863 30.5707 30.8699 30.5923 30.9134L31.0316 31.7814C30.6664 32.0778 30.3354 32.386 30.0396 32.7051ZM38.1904 33.0745L39.0166 31.8982C39.0238 31.8879 39.0257 31.884 39.0429 31.8866C39.0594 31.8887 39.0608 31.8926 39.0651 31.9042L39.3859 32.7567C39.0256 32.9906 38.6936 33.2378 38.3908 33.4978C38.3265 33.3567 38.2597 33.2155 38.1904 33.0745ZM46.0938 34.0351L46.8416 33.0866L47.0537 33.7615C46.7525 33.9363 46.4709 34.1219 46.2094 34.3177C46.1721 34.2236 46.1335 34.1294 46.0938 34.0351ZM8.55231 38.0504C8.55137 37.9649 8.55078 37.879 8.55078 37.7932C8.55078 25.9651 18.1735 16.3423 30.0016 16.3423C41.8297 16.3423 51.4525 25.9651 51.4525 37.7932C51.4525 37.879 51.452 37.9649 51.451 38.0501C51.4437 38.6547 51.204 39.2057 50.8182 39.6176C51.0128 38.5218 50.9694 37.3874 50.6807 36.3018L49.9484 33.548C49.8847 33.3085 49.7227 33.1068 49.5024 32.9931C49.2822 32.8792 49.0239 32.8638 48.7918 32.9504C48.7467 32.9673 48.702 32.9843 48.6575 33.0014L48.4948 32.4839C48.3035 31.8755 47.795 31.426 47.1677 31.3108C46.5403 31.1951 45.9053 31.4352 45.5103 31.9362L45.185 32.3488C45.072 32.2587 44.9373 32.1966 44.7915 32.1706C44.5282 32.1236 44.2585 32.1987 44.0577 32.3748C43.4959 32.8672 42.7671 33.5058 42.7332 33.5359L42.3452 32.3462C42.2683 32.1104 42.0953 31.9183 41.8692 31.8167C41.6431 31.7154 41.3845 31.7142 41.1574 31.8135C41.0858 31.8448 41.015 31.8765 40.9449 31.9085L40.7105 31.2856C40.477 30.6644 39.9227 30.2265 39.2642 30.143C38.6056 30.0592 37.9597 30.345 37.5782 30.8881L37.2071 31.4165C37.0777 31.3071 36.9181 31.2361 36.746 31.2151C36.481 31.1831 36.2155 31.2728 36.0247 31.4597L34.7326 32.7252L33.9673 31.029C33.8654 30.8031 33.6727 30.6307 33.437 30.5543C33.2009 30.4779 32.9439 30.5047 32.7288 30.6283C32.648 30.6747 32.5684 30.7214 32.4896 30.7685L32.1611 30.1195C31.8556 29.5158 31.2455 29.1333 30.569 29.1213C29.8891 29.1138 29.2693 29.4704 28.9427 30.0628L28.6009 30.6831C28.4544 30.5752 28.2764 30.514 28.0904 30.5117C28.0868 30.5115 28.083 30.5115 28.0793 30.5115C27.8163 30.5115 27.5669 30.6293 27.3998 30.8329L26.3826 32.0722L26.0352 31.4745C25.9106 31.26 25.7012 31.1083 25.4587 31.0566C25.2167 31.0053 24.9632 31.058 24.7619 31.2027C24.6992 31.2478 24.6372 31.2932 24.5761 31.3388L24.218 30.7814C23.8595 30.2236 23.2264 29.911 22.5658 29.9684C21.9052 30.0245 21.3339 30.4388 21.075 31.0493L20.8241 31.641C20.6752 31.562 20.505 31.5265 20.3328 31.5416C20.0668 31.5656 19.8262 31.7093 19.6788 31.932L18.6453 33.4937C18.5566 33.6278 18.4725 33.764 18.3927 33.9022L17.7492 32.7952C17.6246 32.5808 17.4152 32.429 17.1727 32.3773C16.9307 32.3257 16.6773 32.3786 16.4761 32.5234C16.4299 32.5567 16.3842 32.59 16.3388 32.6235L16.0262 32.1369C15.6773 31.5938 15.0602 31.2914 14.418 31.3453C13.7749 31.4002 13.2189 31.8034 12.967 32.3976L12.7483 32.9132C12.6106 32.8498 12.457 32.8224 12.3018 32.8362C12.0358 32.8602 11.7952 33.0039 11.6478 33.2265L10.6686 34.7064C9.64332 36.2557 9.23434 38.0867 9.48359 39.8864C8.92625 39.4646 8.56121 38.7985 8.55231 38.0504Z" fill="#CFB595"/>
<path d="M50.0264 18.3951C45.7202 14.0889 40.2714 11.3402 34.3636 10.432L35.2493 6.64986C35.6282 5.03162 35.2553 3.35408 34.2262 2.04721C33.2105 0.757324 31.6916 0.0111914 30.059 0.000175781C30.02 -5.85938e-05 29.9812 -5.85938e-05 29.9417 0.000175781C28.309 0.0111914 26.7902 0.757324 25.7745 2.04732C24.7454 3.3542 24.3725 5.03186 24.7514 6.64986L25.6371 10.432C23.018 10.836 20.4786 11.6076 18.0488 12.7402C17.6089 12.9453 17.4184 13.4683 17.6235 13.9082C17.8287 14.3481 18.3512 14.5386 18.7915 14.3335C21.1103 13.2524 23.5362 12.5222 26.0392 12.1491L26.2915 13.2263C26.4023 13.6989 26.8749 13.9918 27.3477 13.8817C27.8204 13.7711 28.1138 13.2983 28.0032 12.8255L27.7974 11.9467C28.5262 11.8874 29.2607 11.8577 30.0004 11.8577C30.7421 11.8577 31.4767 11.8883 32.2032 11.9481L31.9977 12.8255C31.8871 13.2981 32.1805 13.771 32.6532 13.8817C32.7205 13.8976 32.7879 13.9051 32.8544 13.9051C33.2533 13.9051 33.6143 13.6315 33.7094 13.2263L33.9609 12.1523C46.7363 14.0702 56.5638 25.1195 56.5638 38.421C56.5638 42.3297 55.7346 46.094 54.0994 49.6094C53.8947 50.0495 54.0855 50.5722 54.5256 50.777C54.6455 50.8328 54.7717 50.8592 54.8957 50.8592C55.227 50.8592 55.5442 50.671 55.6932 50.3507C57.4374 46.6014 58.3217 42.5877 58.3217 38.421C58.3216 30.8563 55.3756 23.7444 50.0264 18.3951ZM30.0004 10.1001C29.1241 10.1001 28.2543 10.1392 27.3924 10.2174L26.4631 6.24908C26.2067 5.15443 26.4591 4.01936 27.1557 3.13471C27.8387 2.26717 28.8585 1.76525 29.9534 1.75799C29.9848 1.75775 30.0162 1.75775 30.0474 1.75799C31.1424 1.76525 32.1621 2.26717 32.8452 3.13459C33.5418 4.01924 33.7943 5.15432 33.5379 6.24908L32.6085 10.2178C31.7465 10.1396 30.8765 10.1001 30.0004 10.1001Z" fill="#CFB595"/>
<path d="M20.2837 45.8789H24.4186C24.9041 45.8789 25.2975 45.4855 25.2975 45C25.2975 44.5145 24.9041 44.1211 24.4186 44.1211H20.2837C18.9804 44.1211 17.9199 45.1815 17.9199 46.4849V48.5208C17.9199 49.8241 18.9804 50.8846 20.2837 50.8846H39.7196C41.023 50.8846 42.0834 49.8241 42.0834 48.5208V46.4849C42.0834 45.1815 41.023 44.1211 39.7196 44.1211H27.817C27.3315 44.1211 26.9381 44.5145 26.9381 45C26.9381 45.4855 27.3315 45.8789 27.817 45.8789H39.7195C40.0537 45.8789 40.3255 46.1507 40.3255 46.4849V48.5208C40.3255 48.855 40.0537 49.1268 39.7195 49.1268H20.2837C19.9495 49.1268 19.6777 48.855 19.6777 48.5208V46.4849C19.6777 46.1508 19.9495 45.8789 20.2837 45.8789Z" fill="#CFB595"/>
</g>
<defs>
<clipPath id="clip0_186_1021">
<rect width="60" height="60" fill="white"/>
</clipPath>
</defs>
</svg>
