<svg width="60" height="60" viewBox="0 0 60 60" fill="none" xmlns="http://www.w3.org/2000/svg">
<g clip-path="url(#clip0_186_1032)">
<path d="M59.7908 33.1759L58.1904 29.9862C56.5534 26.7198 53.2961 24.6907 49.6895 24.6907H43.4417L46.7545 21.3479H52.7834C54.2547 21.3929 55.3838 19.6076 54.5631 18.1811L52.4924 14.6094C52.3771 14.4221 52.146 14.1961 51.8065 14.1729L42.6231 13.4129C41.7935 13.344 40.9608 13.3993 40.1479 13.577C39.6733 13.6808 39.3715 14.1559 39.4734 14.6383C39.5755 15.1207 40.0425 15.4279 40.5173 15.3239C41.8284 14.8957 48.3352 15.7623 49.7612 15.7962L40.6451 24.9951C37.8102 25.5239 35.3548 27.6542 33.2984 29.4599L35.4591 25.7251C36.5655 23.8127 37.1502 21.6294 37.1502 19.4109V11.6557C38.1137 11.2918 38.8022 10.3476 38.8022 9.24292V6.11123C38.8022 4.69249 37.667 3.53833 36.2714 3.53833C34.8759 3.53833 33.7406 4.69249 33.7406 6.11123V9.24292C33.7406 10.3476 34.4291 11.2918 35.3927 11.6557V16.3911C34.5107 17.2524 31.5563 19.7661 30.8734 20.741V17.2819C31.8454 16.9225 32.5417 15.974 32.5417 14.8631V11.7314C32.5417 10.3126 31.4064 9.15846 30.0109 9.15846C28.6155 9.15846 27.4801 10.3126 27.4801 11.7314V14.8631C27.4801 15.9615 28.1609 16.9009 29.1158 17.2692V20.741C28.5506 19.8825 25.3644 17.1427 24.5965 16.3911V11.6675C25.5771 11.3128 26.2811 10.36 26.2811 9.24292V6.11123C26.2811 4.69249 25.1459 3.53833 23.7503 3.53833C22.3548 3.53833 21.2196 4.69249 21.2196 6.11123V9.24292C21.2196 10.335 21.8926 11.2698 22.839 11.6426V14.8878C21.2443 13.7844 19.3055 13.2513 17.3663 13.4128L8.18261 14.1727C7.95003 14.2031 7.68078 14.2991 7.49671 14.6093L5.42634 18.1809C4.64694 19.4174 5.5871 21.3702 7.20601 21.3478H13.2349L16.5477 24.6905H10.3C6.6934 24.6905 3.43601 26.7197 1.79928 29.9857L0.198763 33.1757C-0.142899 33.8566 -0.0379166 34.6626 0.466141 35.2295C0.815654 35.6226 1.29698 35.8332 1.79307 35.8332C3.4189 35.6385 6.32772 33.718 8.09989 33.9185L13.3675 34.3318C10.9405 36.3764 9.3209 39.313 8.92827 42.59L7.68218 52.9929C7.584 53.8128 7.93972 54.6114 8.61074 55.0771C8.97877 55.3327 9.40397 55.4618 9.83093 55.4618C10.1824 55.4618 10.5353 55.3742 10.8584 55.1973L21.3748 49.4403C24.0984 47.9494 26.2254 45.5179 27.3638 42.5937L29.9948 35.8356L32.6258 42.5937C33.7642 45.5179 35.8911 47.9493 38.6147 49.4403L49.1312 55.1973C50.402 56.0077 52.5819 54.812 52.3072 52.9929L51.0612 42.5902C50.5095 37.9858 47.537 34.0514 43.3033 32.3228C40.6619 31.1178 37.5517 30.0116 34.5962 30.687C36.9552 28.4815 39.9132 26.3485 43.3051 26.4775H49.6896C52.6318 26.4775 55.2892 28.1328 56.6247 30.7978L58.2253 33.9878C56.6206 33.6507 53.6214 31.8207 51.7544 32.1372L48.7615 32.3721C48.2776 32.4099 47.9157 32.8396 47.953 33.3316C47.9904 33.8236 48.4144 34.1928 48.8968 34.1535L51.8905 33.9186C53.1053 33.6794 56.3923 35.3279 57.5389 35.7069C58.7985 36.3193 60.6207 34.7037 59.7908 33.1759ZM35.4983 6.11123C35.4983 5.67774 35.8451 5.32515 36.2716 5.32515C36.698 5.32515 37.0448 5.67774 37.0448 6.11123V9.24292C37.0448 9.6764 36.698 10.0291 36.2716 10.0291C35.8452 10.0291 35.4984 9.67652 35.4984 9.24292V6.11123H35.4983ZM33.0916 20.916L35.3928 18.8002C35.4801 20.794 34.9909 23.0371 33.9443 24.8192L30.8735 30.127V25.9949C30.8735 24.0625 31.682 22.2114 33.0916 20.916ZM29.2379 11.7314C29.2379 11.2979 29.5847 10.9453 30.0112 10.9453C30.4375 10.9453 30.7844 11.2979 30.7844 11.7314V14.8631C30.7844 15.2965 30.4375 15.6491 30.0112 15.6491C29.5848 15.6491 29.2379 15.2965 29.2379 14.8631V11.7314ZM26.8981 20.9162C28.3077 22.2115 29.116 24.0627 29.116 25.995V30.1271L26.0453 24.8193C25.0258 23.1094 24.5156 20.8601 24.5967 18.8004L26.8981 20.9162ZM22.9774 6.11123C22.9774 5.67774 23.3243 5.32515 23.7506 5.32515C24.177 5.32515 24.524 5.67774 24.524 6.11123V9.24292C24.524 9.6764 24.1771 10.0291 23.7506 10.0291C23.3243 10.0291 22.9774 9.67652 22.9774 9.24292V6.11123ZM17.5094 15.1937C19.3891 15.0167 21.4538 15.7914 22.8393 17.1844C22.7169 20.0485 22.9767 23.196 24.5304 25.7251L26.6911 29.4598L24.3882 27.517C22.9196 26.2785 21.1855 25.4194 19.3444 24.9951L10.2284 15.7962L17.5094 15.1937ZM7.20601 19.5609C7.03553 19.5272 6.84373 19.4654 6.94039 19.0883L8.43722 16.5066L11.4641 19.5609H7.20601ZM8.2358 32.1372C6.47125 31.7846 3.23483 33.7041 1.76437 33.9877L3.36512 30.7973C4.70049 28.1327 7.35774 26.4774 10.3001 26.4774H16.6846C19.0823 26.4774 21.4197 27.335 23.266 28.8922L25.3933 30.6869C22.0663 29.9444 18.7815 31.3439 15.7943 32.7304L8.2358 32.1372ZM25.7296 41.9363C24.7434 44.4694 22.9009 46.5757 20.5416 47.8672L10.0252 53.6242C9.828 53.732 9.6635 53.6444 9.60187 53.6016C9.54024 53.5588 9.39987 53.4351 9.42694 53.2091L10.673 42.8064C11.1471 38.8486 13.7023 35.4669 17.3414 33.9809C20.2219 32.6165 23.5933 31.5604 26.752 32.9313C24.959 33.3458 22.6517 34.1715 20.4215 35.8163C20.0287 36.106 19.9413 36.6647 20.2262 37.0641C20.3981 37.3051 20.6663 37.433 20.9382 37.433C21.117 37.433 21.2976 37.3777 21.4534 37.2627C24.1559 35.2697 27.0359 34.6167 28.6623 34.4038L25.7296 41.9363ZM40.1536 32.9621L42.6484 33.9808C46.2875 35.4668 48.8426 38.8484 49.3168 42.8062L50.5628 53.209C50.5416 53.4235 50.5265 53.7242 49.9646 53.6242L39.4481 47.8672C37.0887 46.5757 35.2464 44.4694 34.2602 41.9363L31.3269 34.4018C33.8161 34.7248 39.2963 36.089 42.6034 41.8433C42.7668 42.1276 43.0608 42.2862 43.3629 42.286C43.5134 42.286 43.666 42.2466 43.8054 42.1639C44.2244 41.9151 44.3657 41.3679 44.1208 40.9419C41.5746 36.5115 37.8788 34.4557 35.2266 33.5113C34.5191 33.2594 33.8487 33.0713 33.2381 32.9305C35.449 32.0539 37.9449 32.0602 40.1536 32.9621ZM53.0513 19.403C53.0181 19.4621 52.9393 19.5609 52.7835 19.5609H48.5254L51.5523 16.5066L53.0492 19.0883C53.1282 19.2247 53.0844 19.344 53.0513 19.403Z" fill="#CFB595"/>
<path d="M18.5366 38.7045C18.1579 38.3959 17.6048 38.4581 17.3014 38.8434C16.7878 39.4954 16.3115 40.2015 15.8858 40.9421C15.6409 41.3682 15.7822 41.9152 16.2012 42.1642C16.3405 42.247 16.4932 42.2863 16.6438 42.2863C16.9458 42.2863 17.2399 42.1278 17.4032 41.8435C17.7857 41.1781 18.213 40.5445 18.6731 39.9604C18.9766 39.5751 18.9154 39.013 18.5366 38.7045Z" fill="#CFB595"/>
</g>
<defs>
<clipPath id="clip0_186_1032">
<rect width="60" height="60" fill="white"/>
</clipPath>
</defs>
</svg>
