<svg width="60" height="60" viewBox="0 0 60 60" fill="none" xmlns="http://www.w3.org/2000/svg">
<path d="M29.6905 34.6059C29.6905 33.0598 28.4373 31.8018 26.897 31.8018C25.3567 31.8018 24.1035 33.0598 24.1035 34.6059C24.1035 36.1522 25.3567 37.4102 26.897 37.4102C28.4373 37.4102 29.6905 36.1522 29.6905 34.6059ZM25.0559 34.6059C25.0559 33.5849 25.8818 32.7541 26.897 32.7541C27.9122 32.7541 28.7383 33.5849 28.7383 34.6059C28.7383 35.6271 27.9123 36.4579 26.897 36.4579C25.8818 36.4579 25.0559 35.6272 25.0559 34.6059Z" fill="#CFB595"/>
<path d="M51.2738 26.4371C50.4869 26.4371 49.7086 26.5435 48.9569 26.751C48.5917 26.5814 48.2126 26.4307 47.8185 26.3027C47.4297 26.1765 47.0461 26.0699 46.6687 25.9805C46.6793 24.7123 46.4855 23.5418 46.0903 22.4859C47.9186 22.2737 49.5327 21.7518 50.9243 20.9254C51.5978 21.8352 52.6926 22.5225 54.2495 23.0132C54.2569 24.0875 55.1295 24.9595 56.2017 24.9595C57.2786 24.9595 58.1547 24.0804 58.1547 22.9998C58.1547 21.9192 57.2786 21.0401 56.2017 21.0401C55.454 21.0401 54.8039 21.4644 54.4759 22.0852C53.1769 21.6679 52.2682 21.1136 51.7212 20.401C52.7067 19.6854 53.5644 18.7965 54.2896 17.7358C54.4616 17.7857 54.6428 17.8138 54.8306 17.8138C55.9075 17.8138 56.7836 16.9347 56.7836 15.8541C56.7836 14.7735 55.9075 13.8944 54.8306 13.8944C53.7538 13.8944 52.8777 14.7735 52.8777 15.8541C52.8777 16.4018 53.1034 16.8971 53.4655 17.2531C51.6861 19.8294 49.1335 21.2459 45.6823 21.572C45.4369 21.1024 45.1444 20.6567 44.8062 20.2356C46.8156 19.9595 48.4737 19.1283 49.7432 17.7555C49.8788 17.6087 49.9084 17.3932 49.8176 17.2153C48.7197 15.0678 47.0834 13.7263 44.9507 13.2134C45.2501 12.6633 45.4497 12.0023 45.4497 11.2155C45.4497 8.25956 43.118 5.85476 40.252 5.85476C38.5556 5.85476 37.1687 6.60828 36.3807 7.15952C36.2531 6.26082 36.0341 5.34687 35.6581 4.73047C34.6856 3.13567 32.8007 2.25138 31.273 2.67431C30.6104 2.85759 29.9359 3.29024 29.4286 3.94426C28.3505 2.25595 26.691 0.943102 24.4826 0.0357231C24.3109 -0.0348235 24.1138 0.000918583 23.9779 0.127012C21.7759 2.169 20.4816 4.6959 20.1162 7.64538C19.6149 7.32487 19.0314 7.0762 18.3847 6.91531C17.1521 6.60863 15.9101 6.67472 15.0629 7.09202C13.3897 7.91608 12.3086 9.96041 12.3086 12.3004C12.3086 13.0659 12.6052 13.8341 13.0123 14.5291C11.6558 13.489 10.4504 12.3493 9.40614 11.1194C9.17844 9.05467 9.41668 7.22398 10.1156 5.66797C10.2931 5.7214 10.4809 5.75105 10.6756 5.75105C11.7525 5.75105 12.6285 4.87192 12.6285 3.79133C12.6285 2.71063 11.7525 1.83161 10.6756 1.83161C9.59879 1.83161 8.7227 2.71075 8.7227 3.79133C8.7227 4.33039 8.94079 4.81906 9.29293 5.17367C8.6586 6.53949 8.35157 8.09022 8.37149 9.8008C7.25071 8.24667 6.3383 6.53609 5.65135 4.70024C6.19638 4.35219 6.55978 3.74211 6.55978 3.04731C6.55978 1.96673 5.68369 1.08759 4.60686 1.08759C3.53003 1.08759 2.65382 1.96685 2.65382 3.04743C2.65382 4.12801 3.52991 5.00715 4.60662 5.00715C4.65385 5.00715 4.70026 5.00328 4.74678 5C5.57752 7.23171 6.72783 9.28788 8.17016 11.1163C8.5434 11.5893 8.93938 12.0496 9.35574 12.4977C7.60181 12.5746 6.11248 12.1546 4.83561 11.2235C4.9924 10.9414 5.08252 10.6174 5.08252 10.2722C5.08252 9.19166 4.20643 8.31253 3.1296 8.31253C2.05277 8.31253 1.17679 9.19166 1.17679 10.2722C1.17679 11.3528 2.05288 12.232 3.12971 12.232C3.51608 12.232 3.87538 12.1175 4.17889 11.9225C5.53955 12.9436 7.14794 13.4582 8.97946 13.4582C9.38282 13.4582 9.79789 13.4317 10.2227 13.3818C11.2584 14.3853 12.4079 15.3184 13.6649 16.1758C12.6472 16.175 11.6139 16.3468 10.6748 16.8112C9.03313 17.623 7.99216 19.5585 7.81895 22.1211C7.69274 23.9871 8.09305 26.2329 9.10203 26.9147C9.24969 27.0144 9.41516 27.0912 9.59375 27.1489C8.66036 27.7007 7.81684 28.3468 7.06486 29.0862C6.94427 29.0797 6.82345 29.0754 6.70298 29.0754C3.00679 29.0754 0 32.0952 0 35.8068C0 38.802 1.93769 41.3962 4.75815 42.2493C4.75791 42.2702 4.75651 42.2903 4.75651 42.3113C4.75651 45.9164 7.94388 49.9334 12.5176 49.9334C15.8 49.9334 17.1046 48.5179 17.6028 47.6175C18.0672 47.9017 18.8698 47.978 19.8297 47.8261C20.5084 47.7187 22.5095 47.2675 24.4232 45.5564C23.1814 49.3129 21.5268 52.9023 19.4875 56.2511C19.2285 56.6762 19.2196 57.189 19.4635 57.623C19.7062 58.055 20.1464 58.313 20.6411 58.313H22.3395C22.7978 58.313 23.2203 58.0848 23.4695 57.7027C25.1238 55.166 26.4435 52.5311 27.4236 49.8252C27.1736 52.2595 26.6946 54.5858 26.0134 56.6057C25.7456 57.3998 25.8728 58.2462 26.3624 58.9278C26.8518 59.6093 27.6123 60.0001 28.4488 60.0001H34.351C35.1876 60.0001 35.9482 59.6093 36.4374 58.9278C36.9268 58.2462 37.054 57.3998 36.7863 56.6058C36.2607 55.0472 35.8567 53.3183 35.5841 51.4882C36.598 53.9822 37.7959 56.0105 39.2504 57.7181C39.5727 58.0963 40.0426 58.3133 40.5399 58.3133H42.2703C42.7303 58.3133 43.148 58.059 43.3604 57.6498C43.573 57.24 43.5403 56.7513 43.275 56.3745C40.6726 52.6778 38.8311 48.9774 37.7788 45.3464C38.6465 46.0388 39.9711 46.6852 41.8961 46.6852C44.691 46.6852 47.0476 45.202 48.2208 43.4136C49.1952 43.7797 50.2202 43.9655 51.2738 43.9655C56.0854 43.9655 59.9998 40.034 59.9998 35.2014C59.9998 30.3687 56.0853 26.4371 51.2738 26.4371ZM56.2017 21.9927C56.7535 21.9927 57.2023 22.4446 57.2023 23C57.2023 23.5555 56.7533 24.0074 56.2017 24.0074C55.6501 24.0074 55.2012 23.5555 55.2012 23C55.2011 22.4446 55.65 21.9927 56.2017 21.9927ZM54.8306 14.847C55.3824 14.847 55.8312 15.2989 55.8312 15.8543C55.8312 16.4098 55.3822 16.8617 54.8306 16.8617C54.279 16.8617 53.8301 16.4098 53.8301 15.8543C53.8301 15.2989 54.2789 14.847 54.8306 14.847ZM10.6752 2.78411C11.2269 2.78411 11.6757 3.23598 11.6757 3.79145C11.6757 4.34692 11.2268 4.79879 10.6752 4.79879C10.1233 4.79879 9.67461 4.34692 9.67461 3.79145C9.67461 3.23598 10.1236 2.78411 10.6752 2.78411ZM4.60639 4.05489C4.05467 4.05489 3.60585 3.60301 3.60585 3.04755C3.60585 2.49208 4.05479 2.04021 4.60639 2.04021C5.15799 2.04021 5.60693 2.49208 5.60693 3.04755C5.60693 3.60301 5.15822 4.05489 4.60639 4.05489ZM3.12971 11.2797C2.578 11.2797 2.12917 10.8278 2.12917 10.2724C2.12917 9.7169 2.57812 9.26502 3.12971 9.26502C3.68131 9.26502 4.13026 9.7169 4.13026 10.2724C4.13037 10.8278 3.68143 11.2797 3.12971 11.2797ZM47.5246 27.2087C51.5473 28.5144 53.983 32.5269 55.0724 34.7867C51.1234 31.9964 46.7118 30.1787 41.9313 29.3744C41.6613 28.9261 41.0996 28.4659 40.3353 28.0765C40.0309 27.9214 39.4111 27.6428 38.5527 27.4331C40.3544 26.7659 43.6999 25.9675 47.5246 27.2087ZM45.4055 36.7998C41.7882 36.3113 39.9607 35.3222 39.2177 34.8031C39.8468 34.2995 40.4081 33.7252 40.8787 33.0924C41.5857 32.1418 42.0291 31.1407 42.113 30.3723C46.8751 31.2259 51.2548 33.1231 55.1528 36.0205C53.3858 36.4715 49.3055 37.3264 45.4055 36.7998ZM45.9296 37.8193C45.5975 39.6659 43.1791 41.1529 40.3521 41.1529C38.8336 41.1529 37.4186 40.7559 36.3507 40.0347C36.0848 39.4788 35.7679 38.9423 35.4021 38.4363C35.0046 37.8867 34.5303 37.3793 33.9842 36.9186C34.6957 36.8685 35.3757 36.7385 36.0176 36.5289C36.8674 36.2516 37.6727 35.8652 38.4081 35.3886C39.106 35.945 41.0678 37.175 45.2781 37.7435C45.4952 37.7729 45.7124 37.7977 45.9296 37.8193ZM33.7076 22.2958C32.7585 20.919 31.2025 20.1688 30.0199 19.7749C31.5157 19.1865 32.7249 18.4721 33.5952 17.6757C34.3659 21.3605 36.3715 24.1855 39.5736 26.0958C38.1218 26.4837 37.1277 26.9851 36.7834 27.1733C36.2351 27.1444 35.6392 27.1607 35.0056 27.2434C35.0352 26.2022 34.9233 24.0589 33.7076 22.2958ZM29.787 20.7828C29.7625 20.7478 29.7371 20.7146 29.7123 20.6803C30.7578 21.0285 32.1258 21.6792 32.9236 22.8362C34.0624 24.488 34.0836 26.6107 34.0438 27.4172C33.7513 27.4847 33.4529 27.566 33.1483 27.6654C32.5076 27.8746 31.8821 28.1702 31.2784 28.549C31.4509 27.8542 31.5378 27.1646 31.5378 26.4871C31.5375 24.4146 30.9157 22.3888 29.787 20.7828ZM22.5154 28.5492C21.9114 28.1703 21.2862 27.8748 20.6454 27.6656C18.0951 26.8332 15.9473 27.186 14.633 27.6035C15.1247 24.8327 16.5035 22.7646 18.8287 21.3068C19.2422 21.6701 19.7819 21.8923 20.3734 21.8923C21.0375 21.8923 21.6368 21.6133 22.0648 21.1674C22.2641 21.1746 22.4649 21.1795 22.6688 21.1795C23.0284 21.1795 23.3949 21.1677 23.7664 21.1453C22.7905 22.6884 22.2562 24.5674 22.2562 26.4873C22.256 27.1649 22.343 27.8544 22.5154 28.5492ZM18.9753 19.5331C18.9753 18.7574 19.6026 18.1262 20.3734 18.1262C21.1444 18.1262 21.7716 18.7573 21.7716 19.5331C21.7716 20.3088 21.1443 20.9399 20.3734 20.9399C19.6026 20.9398 18.9753 20.3087 18.9753 19.5331ZM22.62 20.2263C22.6874 20.007 22.724 19.7742 22.724 19.533C22.724 18.5935 22.1725 17.7829 21.3788 17.4037C21.7305 16.3384 22.9146 13.4459 25.7336 12.0946C27.9864 11.0149 31.0206 11.0412 32.7913 12.156C33.4446 12.5675 34.2235 13.3241 34.2235 14.5926C34.2235 16.3723 31.9672 18.2119 28.4534 19.3166C27.8929 18.8567 27.341 18.5878 26.897 18.5878C26.2342 18.5878 25.3309 19.1855 24.5176 20.1278C23.8683 20.1952 23.2332 20.2282 22.62 20.2263ZM30.7359 10.4481L30.7361 10.4473C30.7396 10.4479 30.7427 10.449 30.7462 10.4495C30.7428 10.4491 30.7395 10.4486 30.7359 10.4481ZM44.8704 22.0732C45.4209 23.1522 45.7044 24.4002 45.7165 25.7892C43.9557 25.496 42.3507 25.5662 40.9971 25.789C37.9018 24.237 35.891 21.9745 34.9022 18.9129C36.0792 20.3809 37.8385 22.11 39.5959 22.11C40.3924 22.11 41.0526 21.8262 41.558 21.2666C42.0131 20.7627 42.2981 20.0785 42.4659 19.3177C43.5261 20.0978 44.334 21.0218 44.8704 22.0732ZM48.81 17.3501C47.5842 18.5526 45.9676 19.2269 43.9998 19.3606C43.5876 18.9685 43.1294 18.6026 42.6249 18.2655C42.7136 17.2971 42.6683 16.2851 42.5784 15.4067C42.5772 15.3945 42.5755 15.3822 42.5742 15.37C43.0007 15.1654 43.7315 14.7473 44.3501 14.0586C46.3103 14.4161 47.7749 15.4947 48.81 17.3501ZM40.2521 6.80726C42.593 6.80726 44.4974 8.78491 44.4974 11.2156C44.4974 12.984 43.1749 13.9647 42.4137 14.3828C41.9443 12.2238 40.6489 9.93428 38.2098 9.45944C37.635 9.34764 37.0776 9.36299 36.5522 9.45721C36.5468 9.14116 36.5324 8.72737 36.4984 8.26741C36.9681 7.87542 38.4168 6.80726 40.2521 6.80726ZM38.0279 10.3942C40.3474 10.8458 41.4185 13.4289 41.6308 15.5036C41.8796 17.9359 41.5954 19.8038 40.8511 20.6283C40.5294 20.9845 40.1187 21.1577 39.5959 21.1577C37.6922 21.1577 35.3983 18.149 34.4734 16.6841C34.9333 16.0189 35.1759 15.3148 35.1759 14.5928C35.1759 13.4971 34.7471 12.5514 33.9272 11.8204C34.6542 11.2083 36.2952 10.0569 38.0279 10.3942ZM31.5269 3.59223C32.5031 3.32247 34.0114 3.85954 34.8451 5.22652C35.4649 6.243 35.5997 8.56729 35.6033 9.71854C34.4619 10.1416 33.5641 10.8578 33.1295 11.249C32.4901 10.8795 31.7385 10.6235 30.9313 10.4807C30.6015 9.9883 29.6269 8.30632 29.5473 6.70917C29.4602 4.9584 30.4788 3.88215 31.5269 3.59223ZM24.7061 1.17548C26.6168 2.07255 28.0199 3.32212 28.8857 4.8977C28.6737 5.43348 28.5613 6.05515 28.5961 6.75628C28.6535 7.91069 29.0995 9.05116 29.4638 9.80467C29.5625 10.0092 29.6589 10.1928 29.7473 10.3532C28.7018 10.3108 27.613 10.4423 26.5877 10.7492C24.9995 8.04241 24.3678 4.82633 24.7061 1.17548ZM23.7047 1.77701C23.4894 5.28125 24.1508 8.40182 25.6774 11.077C25.5576 11.1277 25.4386 11.1801 25.3219 11.236C24.0726 11.8348 23.1164 12.6877 22.3907 13.5749C22.3643 12.0702 22.1748 10.1341 21.46 8.97756C21.3285 8.76499 21.1736 8.56495 20.9997 8.37745C21.1916 5.84047 22.0989 3.62622 23.7047 1.77701ZM13.2608 12.3005C13.2608 10.3205 14.1332 8.61147 15.4833 7.94643C16.7608 7.31749 19.5835 7.75319 20.6498 9.47807C21.5153 10.8785 21.467 13.9062 21.4186 14.9886C20.8968 15.8958 20.5968 16.7097 20.4489 17.1776C20.4236 17.1768 20.3989 17.1737 20.3733 17.1737C19.9345 17.1737 19.5249 17.2973 19.173 17.5083C18.6461 17.2641 17.3757 16.7239 15.8447 16.4113C15.0421 15.7186 13.2608 13.8562 13.2608 12.3005ZM8.76911 22.1854C8.83989 21.1372 9.20868 18.5987 11.0969 17.6648C13.5964 16.4286 17.0662 17.6489 18.4216 18.2203C18.17 18.5959 18.0229 19.0474 18.0229 19.533C18.0229 19.8953 18.1072 20.2375 18.2532 20.5445C16.3482 21.7604 15.005 23.3992 14.2389 25.4392C12.8289 26.0341 10.4814 26.6974 9.63524 26.1257C9.11211 25.7721 8.63938 24.1045 8.76911 22.1854ZM11.5512 27.2164C12.3992 27.09 13.251 26.8264 13.8761 26.6011C13.7619 27.0517 13.6722 27.5191 13.6073 28.0033C13.5517 28.0298 13.5012 28.0546 13.458 28.0766C12.5322 28.5484 11.9025 29.1244 11.7303 29.6567C11.6309 29.964 11.6491 30.3701 11.7659 30.828C9.27383 31.4181 6.95318 32.6201 4.72252 34.4757C6.0172 31.0366 8.26356 28.6526 11.5512 27.2164ZM4.58143 35.8578C6.96173 33.6938 9.42945 32.3403 12.0953 31.7304C12.3024 32.1756 12.578 32.6395 12.9148 33.0923C13.4763 33.8471 14.1662 34.5192 14.9472 35.0864C11.5407 37.125 8.13712 37.3785 4.58143 35.8578ZM7.03357 37.5905C6.67439 37.9132 6.26294 38.3407 5.88924 38.8696C5.53674 38.778 4.94084 38.5523 4.68619 38.0401C4.47737 37.6203 4.49658 37.1868 4.55729 36.8776C5.38498 37.2052 6.21068 37.4426 7.03357 37.5905ZM4.85201 41.2801C2.53159 40.4934 0.952379 38.3135 0.952379 35.8067C0.952379 32.7988 3.25135 30.3213 6.17587 30.053C4.85729 31.6449 3.88745 33.5886 3.27596 35.8734C3.2169 36.0939 3.32284 36.3254 3.52838 36.4251C3.57514 36.4477 3.6219 36.4689 3.66866 36.491C3.54608 36.9556 3.45725 37.708 3.83331 38.4643C4.18791 39.1775 4.8669 39.5354 5.3831 39.7114C5.14744 40.1792 4.95854 40.7028 4.85201 41.2801ZM12.5175 48.981C8.50497 48.981 5.70877 45.466 5.70877 42.3113C5.70877 39.7262 7.85282 38.1036 8.3661 37.7523C8.59825 37.7667 8.83016 37.7739 9.06172 37.7739C9.28438 37.7739 9.50668 37.765 9.72887 37.7517C9.20481 38.6189 8.92262 39.6166 8.92262 40.6494C8.92262 43.7336 11.4213 46.2428 14.4926 46.2428C15.2294 46.2428 15.9577 46.0947 16.6326 45.8131C16.7104 46.1723 16.8145 46.4955 16.9401 46.7711C16.8214 47.158 16.072 48.981 12.5175 48.981ZM16.4701 44.0849C16.4667 44.3407 16.4757 44.5905 16.494 44.8329C15.8731 45.1329 15.1874 45.2905 14.4928 45.2905C11.9466 45.2905 9.87512 43.2085 9.87512 40.6495C9.87512 39.5224 10.2788 38.4457 11.0131 37.6C12.6385 37.3129 14.2464 36.6657 15.8301 35.6591C16.4417 36.0121 17.0941 36.3062 17.776 36.5288C18.4179 36.7384 19.0979 36.8684 19.8093 36.9185C19.2632 37.379 18.7888 37.8866 18.3913 38.436C17.1788 40.1131 16.4964 42.1191 16.4701 44.0849ZM19.6807 46.8855C18.7928 47.0263 18.2393 46.9087 18.0841 46.7953C17.4447 46.3287 16.5779 42.5692 19.1631 38.9944C19.7634 38.1645 20.5667 37.439 21.5507 36.8378C21.739 36.7229 21.8235 36.4935 21.7552 36.2838C21.6868 36.074 21.4839 35.9381 21.2632 35.9568C20.1139 36.0518 19.04 35.9396 18.0714 35.6236C13.8894 34.2586 12.3919 30.7051 12.6362 29.9501C12.6962 29.7644 13.0797 29.3383 13.8902 28.9254C14.5812 28.5732 17.0896 27.5071 20.3496 28.5711C21.3191 28.8875 22.2544 29.4317 23.1297 30.1884C23.2967 30.3329 23.5414 30.3435 23.7203 30.214C23.8992 30.0845 23.9658 29.8488 23.8806 29.6449C23.4345 28.5744 23.2082 27.5121 23.2082 26.4873C23.2082 22.0695 26.1068 19.5405 26.8965 19.5405C27.6863 19.5405 30.5849 22.0695 30.5849 26.4873C30.5849 27.5121 30.3587 28.5744 29.9125 29.6449C29.8275 29.8488 29.8939 30.0845 30.0728 30.214C30.2517 30.3432 30.4962 30.3328 30.6634 30.1884C31.5385 29.4317 32.4738 28.8876 33.4434 28.5711C36.7034 27.5068 39.2116 28.5732 39.9027 28.9253C40.7132 29.3382 41.0968 29.7644 41.1569 29.9501C41.4011 30.7052 39.9036 34.2586 35.7217 35.6236C34.7532 35.9396 33.6796 36.0519 32.5297 35.9568C32.3099 35.9377 32.1061 36.074 32.0378 36.2838C31.9693 36.4935 32.0539 36.7229 32.2423 36.8378C33.2263 37.4388 34.0296 38.1644 34.6297 38.9944C35.7854 40.5924 36.2502 42.2263 36.3548 43.5874L36.3515 43.5881C36.3531 43.5952 36.3548 43.6024 36.3565 43.6095C36.4807 45.2823 36.0609 46.5382 35.7089 46.7952C35.5537 46.9087 35.0001 47.0262 34.1123 46.8855C33.3452 46.7639 30.685 46.1502 28.663 43.3545C28.0635 42.5255 27.6251 41.5326 27.3597 40.403C27.309 40.1878 27.1171 40.0358 26.8961 40.0358C26.6751 40.0358 26.4831 40.1879 26.4325 40.403C26.1672 41.5325 25.7286 42.5254 25.1291 43.3544C23.108 46.1501 20.4478 46.7638 19.6807 46.8855ZM34.3465 49.0126C33.8801 49.1694 32.8765 49.4337 31.3999 49.4337C29.9234 49.4337 28.9198 49.1694 28.454 49.0129C28.5333 48.0094 28.5752 46.9932 28.5764 45.976C28.6535 45.651 28.7269 45.3254 28.7945 44.9988C30.8661 47.1733 33.2165 47.7075 33.9639 47.826C34.0691 47.8426 34.1715 47.8555 34.2726 47.8667C34.2919 48.2512 34.3166 48.6332 34.3465 49.0126ZM22.6718 57.1825C22.5991 57.2941 22.4748 57.3607 22.3396 57.3607H20.6412C20.4312 57.3607 20.3283 57.218 20.2939 57.1566C20.2588 57.0943 20.1896 56.9297 20.3011 56.7464C22.7404 52.7408 24.641 48.3982 25.9518 43.8384C26.3249 43.3101 26.6418 42.7281 26.8968 42.095C27.1636 42.7573 27.4963 43.3654 27.892 43.9127C27.9295 43.9645 27.9676 44.0138 28.0056 44.0643C27.1698 48.6212 25.3772 53.0338 22.6718 57.1825ZM28.19 59.0246C27.7682 58.9575 27.3927 58.7296 27.1359 58.3721C26.8276 57.9428 26.7474 57.4098 26.916 56.9099C27.6133 54.8421 28.1051 52.4673 28.3644 49.9846C28.8884 50.1417 29.7362 50.3302 30.8812 50.3756C30.5773 53.5999 29.6727 56.5056 28.19 59.0246ZM29.2734 59.0475C30.2441 57.2909 30.9561 55.3668 31.3999 53.2933C31.8436 55.3668 32.5557 57.2909 33.5265 59.0475H29.2734ZM35.8838 56.9099C36.0524 57.4098 35.9722 57.9428 35.6639 58.3721C35.4072 58.7296 35.0318 58.9575 34.6098 59.0246C33.127 56.5057 32.2226 53.6 31.9185 50.3756C33.0624 50.3302 33.9097 50.1421 34.4338 49.9851C34.6932 52.4797 35.1849 54.8378 35.8838 56.9099ZM42.496 56.9224C42.5835 57.0469 42.5384 57.1655 42.5149 57.2107C42.4916 57.2558 42.4208 57.3606 42.2701 57.3606H40.5397C40.3218 57.3606 40.1161 57.2657 39.9752 57.1002C38.0086 54.7913 36.5253 51.849 35.3299 47.8778C35.7234 47.8332 36.0466 47.728 36.2708 47.5643C36.5981 47.3254 36.8676 46.853 37.0521 46.2385C38.159 49.7689 39.982 53.3511 42.496 56.9224ZM41.896 45.7325C38.7436 45.7325 37.5024 43.7533 37.2836 43.3529C37.2218 42.7007 37.0883 42.0494 36.8906 41.4118C37.9186 41.8628 39.1077 42.1051 40.3522 42.1051C43.5431 42.1051 46.2088 40.4623 46.7993 38.2928C47.3475 38.8274 48.0673 39.7646 48.0673 41.0009C48.0672 42.8847 45.6058 45.7325 41.896 45.7325ZM47.764 37.9187C47.8579 37.9197 47.9515 37.9207 48.0447 37.9207C50.8648 37.9207 53.4526 37.4186 54.9667 37.0521C54.8016 37.8002 54.3086 39.0079 52.8345 39.5797C50.9087 40.3267 49.1657 39.5852 48.6795 39.3419C48.4365 38.7664 48.0952 38.2896 47.764 37.9187ZM51.2738 43.0128C50.3793 43.0128 49.5087 42.861 48.6781 42.5648C48.8992 42.0445 49.0197 41.5147 49.0197 41.0009C49.0197 40.8302 49.0088 40.6649 48.9896 40.5043C49.5184 40.6877 50.2389 40.8619 51.0714 40.8619C51.7192 40.8619 52.4348 40.7563 53.1792 40.4676C55.4067 39.6036 55.8768 37.617 55.976 36.7876C56.186 36.7277 56.3149 36.6875 56.3461 36.6774C56.4679 36.6387 56.5691 36.5526 56.6268 36.4386C56.6845 36.3246 56.6939 36.192 56.6529 36.071C56.5613 35.7998 54.6502 30.2864 50.2416 27.4587C50.5825 27.4132 50.9271 27.3893 51.2739 27.3893C55.5604 27.3893 59.0476 30.8935 59.0476 35.201C59.0474 39.5085 55.5601 43.0128 51.2738 43.0128Z" fill="#CFB595"/>
</svg>
