<svg width="60" height="60" viewBox="0 0 60 60" fill="none" xmlns="http://www.w3.org/2000/svg">
<path d="M13 53.5C13 53.7967 13.1173 54.0867 13.3371 54.3334C13.5568 54.58 13.8692 54.7723 14.2346 54.8858C14.6001 54.9994 15.0022 55.0291 15.3902 54.9712C15.7781 54.9133 16.1345 54.7704 16.4142 54.5607C16.6939 54.3509 16.8844 54.0836 16.9616 53.7926C17.0387 53.5017 16.9991 53.2001 16.8478 52.926C16.6964 52.6519 16.44 52.4176 16.1111 52.2528C15.7822 52.088 15.3956 52 15 52C14.4697 52.0004 13.9614 52.1586 13.5864 52.4398C13.2115 52.721 13.0006 53.1023 13 53.5ZM15.5398 53.5C15.5398 53.5801 15.5081 53.6583 15.4488 53.7249C15.3895 53.7915 15.3052 53.8434 15.2066 53.874C15.1079 53.9047 14.9994 53.9127 14.8947 53.8971C14.79 53.8814 14.6938 53.8429 14.6183 53.7863C14.5428 53.7296 14.4914 53.6575 14.4706 53.579C14.4498 53.5004 14.4604 53.419 14.5013 53.3451C14.5422 53.2711 14.6113 53.2079 14.7001 53.1634C14.7889 53.1189 14.8932 53.0952 15 53.0952C15.143 53.0954 15.2801 53.1381 15.3811 53.214C15.4822 53.2899 15.539 53.3927 15.5392 53.5H15.5398Z" fill="#CFB595"/>
<path d="M55.9199 5.37604C55.8642 5.26261 55.7783 5.16727 55.6719 5.10081C55.5655 5.03436 55.4429 4.99943 55.318 5.00001H25.152C25.0271 4.99943 24.9045 5.03436 24.7981 5.10081C24.6918 5.16727 24.6059 5.26261 24.5502 5.37604L20.6259 13.4154C20.5164 13.541 20.4558 13.7028 20.4556 13.8704V38.0068C19.859 38.372 19.3573 38.8768 18.9925 39.479C18.6277 40.0812 18.4104 40.7633 18.3588 41.4681C17.9832 41.7586 17.5602 41.9799 17.109 42.1218L17.1069 42.1049C17.0403 41.8823 16.9052 41.6871 16.7214 41.548C16.5375 41.4089 16.3145 41.3332 16.0852 41.3319H9.07008C8.90479 41.3326 8.74188 41.3719 8.59404 41.4469C8.44619 41.5219 8.31739 41.6305 8.21766 41.7642C8.11792 41.8979 8.04994 42.0531 8.01899 42.2178C7.98805 42.3825 7.99499 42.5522 8.03926 42.7137L11.7457 56.2081C11.809 56.436 11.944 56.6367 12.1301 56.7796C12.3163 56.9226 12.5433 56.9999 12.7768 57H20.1993C20.3663 57.0007 20.5311 56.9615 20.6804 56.8857C20.8298 56.8099 20.9595 56.6996 21.0591 56.5636C21.1587 56.4277 21.2254 56.2699 21.2538 56.1029C21.2823 55.936 21.2717 55.7647 21.2228 55.6027L20.2566 52.3896L23.7557 50.1463C24.2065 49.8947 24.7345 49.826 25.2333 49.954C25.2535 49.9591 25.2738 49.9634 25.2943 49.9666L31.4726 50.9356C33.2476 51.2144 35.0621 50.8273 36.576 49.8468L48.6766 42.0131H59.3285C59.4984 42.0131 59.6614 41.9446 59.7816 41.8227C59.9018 41.7008 59.9693 41.5355 59.9693 41.3631V14.0949C60.0209 13.928 60.007 13.7473 59.9305 13.5906L55.9199 5.37604ZM40.9401 6.36245H54.901L58.2286 13.1747H40.9401V6.36245ZM40.2349 14.574C40.3086 14.5739 40.3818 14.5614 40.4515 14.5371H44.9698V19.4192H35.9029V14.5371H40.0184C40.088 14.5614 40.1612 14.5739 40.2349 14.574ZM12.9841 55.6375L9.42985 42.6943H15.8662L19.784 55.6375H12.9841ZM35.8533 48.7213C34.6134 49.5198 33.1289 49.8324 31.6781 49.6004L25.5289 48.6302C24.7016 48.4257 23.8286 48.5465 23.0856 48.9684C23.0752 48.9744 23.0648 48.9797 23.0546 48.9856L19.8466 51.0419L17.5075 43.4096C18.231 43.1769 18.898 42.7923 19.4652 42.2808C19.5354 42.222 19.592 42.1481 19.6309 42.0646C19.6698 41.981 19.69 41.8898 19.6902 41.7974C19.6912 41.3914 19.7711 40.9897 19.9254 40.6152C20.0798 40.2407 20.3055 39.9007 20.5897 39.6149C20.8738 39.329 21.2108 39.1029 21.5813 38.9494C21.9518 38.7959 22.3486 38.7181 22.7488 38.7205H22.9585C23.6133 38.7169 24.2591 38.5654 24.8489 38.2769C25.4388 37.9885 25.9578 37.5703 26.3684 37.0529L29.0292 33.7312C29.2857 33.4077 29.6527 33.1938 30.0574 33.1316C30.4621 33.0695 30.875 33.1638 31.2144 33.3959L31.2592 33.423C31.6057 33.6582 31.8559 34.0134 31.963 34.4221C32.0702 34.8308 32.0269 35.2651 31.8413 35.6438C30.7779 37.7879 29.1965 40.98 29.1965 40.98C29.1451 41.0879 29.1208 41.2071 29.1258 41.3268C29.1308 41.4466 29.1649 41.5632 29.2251 41.6664C29.284 41.7681 29.3673 41.8532 29.4671 41.9138C29.567 41.9744 29.6803 42.0085 29.7965 42.0131H46.2524L35.8533 48.7213ZM36.2387 40.6507V34.145L36.683 34.6164C36.7454 34.6827 36.8204 34.7357 36.9033 34.7722C36.9863 34.8086 37.0757 34.8278 37.1661 34.8286C37.2564 34.8288 37.3458 34.8108 37.4292 34.7757C37.5126 34.7407 37.5883 34.6892 37.6519 34.6242L38.8233 33.4133L39.9795 34.6218C40.0421 34.6873 40.1171 34.7393 40.1999 34.7749C40.2827 34.8104 40.3717 34.8287 40.4616 34.8287C40.5515 34.8287 40.6405 34.8104 40.7233 34.7749C40.8061 34.7393 40.881 34.6873 40.9436 34.6218L42.0997 33.4136L43.2708 34.6244C43.3342 34.6896 43.4097 34.7412 43.493 34.7763C43.5763 34.8114 43.6656 34.8292 43.7558 34.8288C43.8427 34.8278 43.9284 34.8084 44.0074 34.7719C44.0864 34.7354 44.1571 34.6825 44.2148 34.6166L44.634 34.145V40.6507H36.2387ZM58.6261 40.6507H45.9772V32.4376C45.9823 32.3031 45.9465 32.1703 45.8747 32.0571C45.803 31.9439 45.6987 31.8558 45.576 31.8047C45.4533 31.7535 45.318 31.7418 45.1885 31.7711C45.059 31.8004 44.9416 31.8694 44.8519 31.9686L43.7368 33.1659L42.5743 31.9798C42.5114 31.9179 42.4367 31.8695 42.3547 31.8377C42.2728 31.8059 42.1854 31.7913 42.0977 31.7948H42.0959C42.0075 31.7914 41.9194 31.8063 41.8368 31.8385C41.7543 31.8708 41.6791 31.9197 41.6157 31.9823L40.4628 33.1784L39.3098 31.9872C39.2468 31.9239 39.1717 31.8742 39.0892 31.8411C39.0066 31.808 38.9183 31.7922 38.8296 31.7948H38.8278C38.7397 31.7913 38.6519 31.8058 38.5695 31.8376C38.4871 31.8694 38.4119 31.9178 38.3484 31.9798L37.1826 33.1756L36.062 31.9734C35.9696 31.8737 35.8499 31.8043 35.7183 31.7743C35.5867 31.7443 35.4493 31.7549 35.3237 31.8049C35.1982 31.8549 35.0903 31.9418 35.0139 32.0546C34.9376 32.1674 34.8963 32.3008 34.8955 32.4376V40.6507H30.8856C31.4377 39.5153 32.3492 37.6731 33.041 36.2777C33.373 35.6004 33.4513 34.8239 33.2614 34.0924C33.0715 33.361 32.6262 32.7243 32.0084 32.3008L31.9636 32.2647C31.348 31.8404 30.5976 31.6661 29.8613 31.7764C29.1249 31.8867 28.4563 32.2736 27.9879 32.8603L25.3271 36.1932C25.0423 36.5535 24.6819 36.8449 24.2723 37.0464C23.8626 37.2479 23.4138 37.3543 22.9585 37.3581H22.7488C22.4293 37.3583 22.1109 37.3934 21.7989 37.4626V14.5371H25.9405C26.1187 14.5371 26.2895 14.4654 26.4154 14.3376C26.5414 14.2098 26.6122 14.0366 26.6122 13.8559C26.6122 13.6752 26.5414 13.502 26.4154 13.3742C26.2895 13.2464 26.1187 13.1747 25.9405 13.1747H22.2415L25.569 6.36245H39.5968V13.1747H30.418C30.2399 13.1747 30.069 13.2464 29.9431 13.3742C29.8171 13.502 29.7464 13.6752 29.7464 13.8559C29.7464 14.0366 29.8171 14.2098 29.9431 14.3376C30.069 14.4654 30.2399 14.5371 30.418 14.5371H34.5597V20.0759C34.5583 20.2589 34.6276 20.4352 34.7527 20.5671C34.8778 20.699 35.0488 20.776 35.2292 20.7817H45.6944C46.0652 20.7817 46.313 20.4524 46.313 20.0759V14.5371H58.6261V40.6507Z" fill="#CFB595"/>
<path d="M25 17C24.7348 17 24.4804 17.0691 24.2929 17.1921C24.1054 17.315 24 17.4818 24 17.6557V18.3443C24 18.5182 24.1054 18.685 24.2929 18.8079C24.4804 18.9309 24.7348 19 25 19C25.2652 19 25.5196 18.9309 25.7071 18.8079C25.8946 18.685 26 18.5182 26 18.3443V17.6557C26 17.4818 25.8946 17.315 25.7071 17.1921C25.5196 17.0691 25.2652 17 25 17Z" fill="#CFB595"/>
<path d="M25 20C24.7348 20 24.4804 20.0729 24.2929 20.2028C24.1054 20.3326 24 20.5087 24 20.6923V28.3077C24 28.4913 24.1054 28.6674 24.2929 28.7972C24.4804 28.9271 24.7348 29 25 29C25.2652 29 25.5196 28.9271 25.7071 28.7972C25.8946 28.6674 26 28.4913 26 28.3077V20.6923C26 20.5087 25.8946 20.3326 25.7071 20.2028C25.5196 20.0729 25.2652 20 25 20Z" fill="#CFB595"/>
</svg>
