<svg width="220" height="54" viewBox="0 0 220 54" fill="none" xmlns="http://www.w3.org/2000/svg">
<path d="M65.0503 12.8056C64.8758 12.8442 64.6577 12.9001 64.4048 12.9688L64.2695 13.0032C64.3393 13.5574 64.2172 12.595 64.2957 13.2266H64.3001L64.4135 14.1331C64.4484 14.3737 64.4833 14.64 64.5225 14.9321L64.5312 14.988V15.0009L64.6665 16.0577C64.7232 16.5131 64.7842 16.9857 64.8497 17.4927C64.9064 17.9223 64.9761 18.4378 65.0634 19.1166L65.0721 19.1724V19.1767L65.3687 21.4322L65.6784 23.7736C65.7482 24.302 65.8049 24.7574 65.8572 25.1441C65.9532 25.8787 65.9663 25.9732 65.9794 26.0892C66.0142 26.3685 66.0579 26.7165 66.1102 27.1461C66.1407 27.4167 66.18 27.7347 66.2236 28.117L66.2454 28.2631C66.2803 28.5509 66.3196 28.8774 66.3632 29.234C66.3981 29.5047 66.4373 29.8527 66.481 30.2608C66.494 30.3639 66.5115 30.5014 66.5289 30.6732C66.6423 30.6603 66.7776 30.6474 66.9346 30.6303C67.2137 30.5959 67.5016 30.5572 67.7982 30.5143C68.0643 30.4756 68.3042 30.4369 68.5223 30.3983L68.6575 30.3725C68.9541 30.3166 69.2332 30.2565 69.4906 30.1963C69.7523 30.1319 70.014 30.0632 70.2757 29.9858C70.5199 29.9171 70.7642 29.8355 71.0128 29.7495C71.2353 29.6722 71.4708 29.582 71.7151 29.4789L71.7325 29.4746C71.9637 29.3801 72.173 29.2899 72.3606 29.1953C72.5656 29.0922 72.7488 28.9934 72.9058 28.8946C73.0628 28.8001 73.2155 28.6927 73.3682 28.5767C73.5034 28.4736 73.6299 28.3662 73.752 28.2502C73.9483 28.044 74.1315 27.8335 74.2972 27.6187C74.476 27.391 74.6331 27.1633 74.777 26.9356C74.9209 26.7036 75.0562 26.4587 75.1826 26.2009C75.2917 25.9861 75.3876 25.7584 75.4792 25.5221V25.5178L75.5229 25.4104C75.6319 25.1183 75.7235 24.8434 75.7976 24.5813C75.8762 24.302 75.9416 24.0228 75.9939 23.7349C76.0506 23.4471 76.0942 23.155 76.1248 22.8585C76.1553 22.5621 76.1728 22.27 76.1815 21.9821H76.1771V21.9778L76.1815 21.9606C76.1902 21.6685 76.1858 21.3721 76.1728 21.0713C76.1597 20.7878 76.1335 20.4871 76.0942 20.1734C76.0594 19.8727 76.0114 19.5763 75.9503 19.2798C75.8936 18.9877 75.8195 18.687 75.7366 18.3862L75.7017 18.2574C75.6319 18.0211 75.5534 17.7891 75.4662 17.5571C75.3658 17.2821 75.2524 17.0158 75.1303 16.758C75.0082 16.4916 74.873 16.2382 74.7334 15.9933C74.5938 15.7484 74.4368 15.5035 74.2667 15.2544L74.1969 15.1555C74.0617 14.9622 73.9177 14.7818 73.7694 14.6056C73.5906 14.3951 73.4074 14.2018 73.2199 14.0214C73.0323 13.8409 72.8317 13.6691 72.6223 13.5058C72.4173 13.3426 72.2079 13.1965 71.9855 13.0547C71.8154 12.9602 71.6365 12.8743 71.449 12.7927C71.2527 12.7067 71.0608 12.6337 70.8732 12.5736C70.6813 12.5134 70.485 12.4619 70.2844 12.4232C70.0794 12.3802 69.8744 12.3459 69.665 12.3244L69.5734 12.3158C69.3815 12.2986 69.1852 12.29 68.989 12.2857C68.7621 12.2771 68.5223 12.2814 68.278 12.29C68.0425 12.3029 67.7938 12.3201 67.5365 12.3502C67.2879 12.3759 67.0305 12.4103 66.7645 12.4533C66.4722 12.5048 66.1887 12.5564 65.9183 12.6122C65.6348 12.6681 65.3425 12.7325 65.0503 12.8056ZM56.7979 7.7447C57.0072 7.6373 57.234 7.53849 57.487 7.44397C57.7051 7.36234 57.9406 7.28931 58.1936 7.22057L58.2067 7.21628L58.2721 7.19909C58.6909 7.09598 59.1009 6.99717 59.5022 6.90266C59.9165 6.80814 60.3222 6.71792 60.7104 6.6363C61.0898 6.55467 61.4824 6.47304 61.8793 6.39571C62.1759 6.33986 62.5467 6.27112 62.9916 6.1895L63.0046 6.1852L63.1006 6.16802C63.4801 6.10357 63.877 6.03913 64.287 5.98328C64.6665 5.93173 65.059 5.88447 65.4516 5.84151C65.8441 5.80284 66.228 5.76848 66.6031 5.747C66.9695 5.72122 67.3533 5.70403 67.7502 5.69544C68.1341 5.68685 68.5179 5.68685 68.893 5.69974C69.2725 5.71263 69.6476 5.7384 70.0183 5.77277C70.3978 5.80714 70.7729 5.8501 71.1437 5.91025C71.5188 5.9661 71.8808 6.03484 72.2385 6.11646C72.6267 6.20239 72.9974 6.2969 73.3507 6.4086C73.7215 6.5203 74.0791 6.64489 74.4324 6.78666C74.7726 6.92414 75.1216 7.0788 75.4705 7.25065C75.7758 7.40531 76.0855 7.57286 76.3996 7.75759L76.4563 7.78766C76.766 7.95951 77.0756 8.15284 77.3853 8.36335C77.6906 8.57386 77.9785 8.79296 78.249 9.02495C78.5194 9.25265 78.7854 9.49753 79.0472 9.76819C79.3132 10.0431 79.5531 10.3138 79.7712 10.5887L80.1289 11.0355L80.1245 11.0441C80.2292 11.1816 80.3295 11.3234 80.4255 11.4652C80.6261 11.7616 80.8267 12.0752 81.0187 12.406C81.2019 12.7239 81.3763 13.0547 81.5377 13.3898C81.6075 13.5316 81.6773 13.682 81.7427 13.8323L81.7558 13.828L81.9913 14.4166C82.1265 14.7517 82.2574 15.1126 82.3795 15.4906C82.506 15.8687 82.6107 16.2382 82.7023 16.5905C82.7939 16.9427 82.8768 17.3165 82.9553 17.7118C83.0251 18.0812 83.0905 18.4679 83.1428 18.8717C83.1952 19.2713 83.2388 19.6579 83.265 20.036C83.2911 20.4054 83.3042 20.8007 83.3086 21.2088C83.3129 21.6084 83.3086 21.9993 83.2868 22.3817C83.2693 22.7769 83.2388 23.1636 83.1952 23.5459L83.1167 24.2548H83.1079C83.0861 24.4094 83.06 24.5641 83.0338 24.7145C82.9684 25.0882 82.8899 25.4749 82.7895 25.8658C82.6936 26.2568 82.5889 26.6305 82.4755 26.9914C82.3708 27.3222 82.253 27.653 82.1265 27.9752V27.9838L82.0786 28.0998C81.9434 28.4435 81.782 28.8001 81.5988 29.1653C81.4199 29.5219 81.2324 29.8698 81.0274 30.2006L80.6959 30.7505L80.6828 30.742C80.5825 30.8923 80.4822 31.0384 80.3818 31.1802C80.1507 31.4981 79.9108 31.8031 79.6578 32.0995L79.636 32.121L79.6011 32.1597L79.588 32.1726C79.3001 32.4604 78.9992 32.7311 78.6938 32.9931C78.3754 33.2595 78.057 33.5044 77.7386 33.7321C77.4202 33.9555 77.0756 34.1746 76.7093 34.3894C76.3516 34.5999 75.9852 34.7975 75.6101 34.9823L75.6014 34.9865C75.2306 35.1627 74.8599 35.3259 74.4891 35.4806C74.114 35.6353 73.7345 35.7813 73.3463 35.9145C72.9756 36.0434 72.583 36.168 72.173 36.284C71.763 36.4 71.3617 36.5074 70.9605 36.5976L70.3455 36.7394V36.7351C70.1492 36.778 69.9573 36.8167 69.7697 36.8554C69.3553 36.9413 68.9628 37.01 68.5877 37.0745C68.3172 37.1174 68.0425 37.1604 67.7589 37.1991C67.6979 37.2077 67.6412 37.2162 67.5845 37.2248C67.6063 37.3924 67.6325 37.5728 67.663 37.7662C67.7066 38.097 67.7677 38.5008 67.8375 38.9648C67.9334 39.5963 68.0076 40.0775 68.0643 40.4384C68.121 40.7863 68.1908 41.1988 68.2693 41.6756L68.2954 41.8131C68.374 42.2685 68.4568 42.7067 68.5397 43.132C68.6182 43.5445 68.7054 43.9655 68.8014 44.3908C68.8974 44.8462 68.9933 45.25 69.0762 45.5937C69.1722 45.9761 69.2681 46.3455 69.3684 46.7064L69.3815 46.7408L69.3902 46.7795C69.4382 46.9857 69.4731 47.1876 69.4949 47.3938C69.5167 47.5871 69.5255 47.7805 69.5255 47.9781C69.5255 48.2015 69.508 48.412 69.4731 48.6053C69.4382 48.8072 69.3902 49.0049 69.3205 49.1853L69.0457 49.9156L68.9846 49.877C68.9279 49.9672 68.8668 50.0531 68.8058 50.1304C68.6967 50.2765 68.5702 50.414 68.4263 50.5429C68.2867 50.6718 68.1384 50.7835 67.9814 50.8823L67.82 50.9811H67.8069C67.7153 51.0326 67.6194 51.0799 67.519 51.1229C67.362 51.1873 67.1963 51.2431 67.0262 51.2904C66.8604 51.3334 66.6903 51.3634 66.5158 51.3806C66.3457 51.3978 66.1713 51.3978 65.9968 51.3892C65.818 51.3806 65.6391 51.3548 65.4603 51.3162C65.2771 51.2775 65.1026 51.226 64.9456 51.1615C64.8278 51.1143 64.7144 51.0584 64.5967 50.994L64.5661 51.0369L64.0427 50.6331C63.8944 50.5128 63.7461 50.3796 63.6109 50.225C63.4757 50.0746 63.3536 49.9113 63.2402 49.7395C63.1399 49.5848 63.0483 49.413 62.9654 49.2326C62.8781 49.0478 62.804 48.8631 62.7429 48.6698L62.7342 48.6526L62.7255 48.6225C62.6077 48.2101 62.49 47.7891 62.3765 47.3551C62.2719 46.9513 62.1628 46.5088 62.0494 46.019C61.9578 45.6152 61.8575 45.1598 61.7528 44.6529C61.6612 44.219 61.5783 43.7722 61.4911 43.3125L61.4867 43.2996L61.4693 43.2051C61.3908 42.754 61.3036 42.247 61.2076 41.6799C61.1116 41.0871 61.0288 40.5629 60.959 40.1118C60.8979 39.7381 60.8325 39.2956 60.7583 38.7843C60.7234 38.5266 60.6798 38.2215 60.6318 37.8736C60.5228 37.8564 60.4138 37.8349 60.3047 37.8091C60.0386 37.749 59.7944 37.6716 59.5719 37.5771C59.3451 37.4826 59.127 37.3623 58.9308 37.2248L58.9002 37.1991L58.8828 37.1905H58.8871C58.7083 37.0573 58.5469 36.9112 58.403 36.7609C58.246 36.5933 58.1151 36.4258 58.0061 36.2453C57.8883 36.052 57.7967 35.8501 57.7269 35.631C57.6571 35.4162 57.6135 35.1971 57.5961 34.9737C57.5786 34.7546 57.583 34.5354 57.6179 34.3206C57.6484 34.1058 57.7051 33.891 57.7836 33.6848C57.8578 33.4915 57.9537 33.2982 58.0715 33.1134C58.1849 32.9373 58.3158 32.7611 58.4728 32.5893C58.6298 32.4132 58.7999 32.2542 58.9918 32.1167C59.175 31.9749 59.38 31.8504 59.6112 31.7344C59.6766 31.7 59.742 31.6699 59.8031 31.6399C59.7769 31.425 59.7464 31.1845 59.7115 30.9224C59.6592 30.4928 59.6025 30.0417 59.5414 29.5734L59.4542 28.8774L59.3844 28.3318L59.3146 27.7991C59.2666 27.4339 59.2186 27.0688 59.1663 26.695L59.0311 25.6553V25.651L58.8653 24.4137L58.6385 22.6738L58.56 22.1153L58.2634 19.8598C58.2154 19.4861 58.1587 19.0779 58.0977 18.5925C57.9973 17.8449 57.9973 17.8621 57.9799 17.716C57.9363 17.3852 57.897 17.0501 57.8534 16.715C57.8229 16.4487 57.7793 16.1222 57.7356 15.7312C57.7051 15.4906 57.6702 15.2114 57.631 14.8763C57.6092 14.6572 57.5743 14.3694 57.535 13.9956C57.5263 13.9269 57.5176 13.8409 57.5045 13.7335C57.4652 13.7292 57.426 13.7206 57.3867 13.7163C57.1337 13.6691 56.8982 13.6046 56.6801 13.5187C56.4577 13.4371 56.2483 13.3297 56.052 13.1965C55.8645 13.0762 55.69 12.9387 55.5373 12.7841C55.3803 12.6337 55.2451 12.4662 55.1273 12.29C55.0052 12.0967 54.9092 11.8948 54.8394 11.6843C54.7697 11.4781 54.7217 11.2547 54.7042 11.027L54.6562 10.4083L54.7217 10.404L54.726 10.3739C54.7566 10.1548 54.8133 9.94003 54.9005 9.72952C54.9747 9.54049 55.075 9.35146 55.1971 9.16243C55.3192 8.98199 55.4545 8.80585 55.6115 8.634L55.8078 8.42349H55.8296C55.9299 8.32468 56.0389 8.23446 56.1567 8.14854C56.3573 7.99817 56.5711 7.86499 56.7979 7.7447ZM56.6147 9.46316L56.5798 9.49753C56.4795 9.61352 56.3835 9.73382 56.2963 9.8584C56.2265 9.9701 56.1654 10.0861 56.1174 10.2064C56.0695 10.3181 56.0389 10.4341 56.0215 10.5544L55.9953 10.7348L56.0084 10.9281C56.0215 11.0484 56.0433 11.1644 56.0782 11.2804C56.1131 11.3749 56.1523 11.4609 56.2003 11.5468L56.2352 11.5983C56.3006 11.6972 56.3748 11.7874 56.4577 11.8733C56.5318 11.942 56.6103 12.0065 56.6888 12.0666L56.7848 12.1311C56.9026 12.2041 57.0247 12.2685 57.1555 12.3201C57.3082 12.3802 57.4652 12.4189 57.6222 12.449C57.6528 12.4533 57.6833 12.4576 57.7095 12.4619L58.6996 12.6165L58.8043 13.6003C58.8174 13.6863 58.8261 13.7722 58.8348 13.8538C58.8653 14.146 58.9002 14.4381 58.9308 14.7302C58.9657 15.0095 59.0006 15.293 59.0311 15.5766C59.0747 15.9074 59.114 16.2339 59.1532 16.5604C59.1925 16.8912 59.2361 17.2263 59.2797 17.5571C59.3146 17.8492 59.3539 18.1371 59.3931 18.4249C59.4498 18.8502 59.5065 19.2713 59.5589 19.6923L59.8598 21.9478L59.934 22.5105L60.3396 25.5694L60.4661 26.5317C60.5141 26.8969 60.5621 27.2664 60.61 27.6315L60.6842 28.1729L60.8412 29.4144C60.8979 29.8612 60.9546 30.3123 61.0113 30.7634C61.0419 31.004 61.0724 31.2446 61.1029 31.4852L61.2163 32.4175L60.3527 32.8084C60.3047 32.8342 60.2567 32.8557 60.2088 32.8814C60.0605 32.9545 59.9165 33.0404 59.7813 33.1392C59.6635 33.2294 59.5501 33.3325 59.4498 33.4442C59.3713 33.5344 59.2928 33.629 59.223 33.7321L59.1837 33.7922C59.114 33.9039 59.0529 34.0199 59.0093 34.1402C58.9613 34.2605 58.9308 34.3808 58.909 34.5054C58.8915 34.63 58.8871 34.7503 58.9002 34.8706C58.909 34.9994 58.9351 35.1197 58.9744 35.24C59.0136 35.3603 59.066 35.4763 59.1314 35.5837C59.1968 35.6911 59.2753 35.7899 59.3626 35.8844C59.4585 35.9875 59.5632 36.0778 59.6766 36.1637L59.7464 36.2152C59.8511 36.2883 59.9732 36.3441 60.091 36.3957C60.2524 36.4644 60.4225 36.516 60.597 36.5546C60.6755 36.5718 60.7583 36.5847 60.8368 36.5976L61.7964 36.748L61.9273 37.6974C61.9709 37.9981 62.0102 38.3032 62.0538 38.6039C62.1192 39.0421 62.1846 39.4803 62.2501 39.9185C62.3329 40.4384 62.4158 40.9539 62.4987 41.4694C62.5772 41.9463 62.6601 42.4232 62.7429 42.9L62.7473 42.9086L62.7822 43.0848C62.8607 43.523 62.9436 43.9612 63.0352 44.3951C63.1268 44.8419 63.2227 45.2887 63.3274 45.7312C63.4277 46.1694 63.5324 46.6033 63.6458 47.0329C63.7418 47.411 63.8203 47.8191 63.9555 48.1843L63.9686 48.2273L64.0296 48.3905C64.0645 48.4936 64.1082 48.5967 64.1518 48.6955C64.2128 48.8158 64.2739 48.9404 64.3481 49.0521C64.4222 49.1638 64.5007 49.2712 64.588 49.37C64.6708 49.4603 64.7581 49.5462 64.854 49.6192L65.0416 49.7653L65.2291 49.8684C65.2946 49.9028 65.3643 49.9371 65.4341 49.9672C65.5345 50.0059 65.6391 50.0359 65.7438 50.0574C65.8529 50.0832 65.9619 50.0961 66.0709 50.1047C66.1756 50.109 66.2803 50.1047 66.3894 50.0961C66.4897 50.0875 66.5944 50.066 66.6947 50.0402C66.7994 50.0145 66.8997 49.9801 66.9956 49.9414C67.0567 49.9156 67.1178 49.8856 67.1745 49.8555L67.2486 49.8125L67.2835 49.7911C67.3751 49.7352 67.458 49.6708 67.5365 49.5977C67.6194 49.5204 67.6979 49.4431 67.7633 49.3528C67.8026 49.3056 67.8331 49.254 67.868 49.2025L67.9988 48.992L68.0904 48.7428C68.1341 48.6268 68.1646 48.5108 68.182 48.3905C68.2082 48.253 68.2169 48.1113 68.2169 47.9695C68.2169 47.8234 68.2126 47.6816 68.1951 47.5399C68.1777 47.411 68.1646 47.2692 68.1341 47.1403L68.1079 47.0501C68.0032 46.6678 67.9029 46.2854 67.8069 45.8987C67.7066 45.4906 67.6106 45.0782 67.519 44.6658C67.4275 44.2361 67.3359 43.8065 67.253 43.3769C67.1657 42.9301 67.0829 42.4833 67.0044 42.0365L66.9782 41.8947C66.904 41.4737 66.8386 41.057 66.7732 40.636C66.6947 40.1419 66.6162 39.6479 66.542 39.1538C66.481 38.75 66.4242 38.3461 66.3632 37.9466C66.3414 37.7619 66.3152 37.5814 66.289 37.401L66.1102 36.1207L67.4056 35.9446C67.4623 35.9403 67.519 35.9317 67.5758 35.9231C67.8418 35.8844 68.1079 35.8458 68.3696 35.8028C68.7534 35.7384 69.1285 35.6696 69.508 35.5923C69.6912 35.5579 69.8788 35.5193 70.0619 35.4763L70.3847 35.4076L70.6639 35.3431C71.0477 35.2529 71.4272 35.1541 71.8066 35.0467C72.1774 34.9393 72.5481 34.8233 72.9102 34.6987C73.2722 34.5741 73.6299 34.4366 73.9832 34.2906C74.3016 34.1617 74.6505 34.0371 74.9515 33.8695L76.2077 33.1607L76.2164 33.1779C76.4737 33.0232 76.7267 32.8557 76.9753 32.6838C77.2763 32.4733 77.5642 32.2456 77.8433 32.0093C78.1268 31.773 78.3973 31.5239 78.659 31.2661L78.6677 31.2532L78.6808 31.2403C78.9076 30.9868 79.1126 30.7076 79.3132 30.4326C79.4092 30.3037 79.5008 30.1706 79.588 30.0374L79.7668 29.7667L79.9064 29.5433C80.0896 29.234 80.2641 28.9204 80.4255 28.5982C80.5694 28.3103 80.7046 28.0139 80.8267 27.7175L80.9053 27.5156C81.023 27.2148 81.1277 26.9098 81.228 26.6048C81.3371 26.2611 81.433 25.9131 81.5203 25.5651C81.6075 25.2085 81.6816 24.8562 81.7427 24.4954C81.7689 24.3536 81.7907 24.2161 81.8125 24.0743L81.8518 23.8037L81.8954 23.4041C81.9346 23.0433 81.9652 22.6824 81.9826 22.3172C82.0001 21.952 82.0044 21.5869 82.0001 21.2217C82.0001 20.8565 81.9826 20.4914 81.9564 20.1262C81.9346 19.761 81.8954 19.4001 81.8474 19.0393C81.7951 18.6741 81.7383 18.3132 81.6686 17.9523C81.6031 17.6044 81.5246 17.2564 81.4374 16.9084C81.3458 16.5647 81.2455 16.2253 81.1364 15.8859C81.023 15.5508 80.9053 15.2157 80.7744 14.8892L80.6872 14.6701L80.5432 14.3479C80.4822 14.2104 80.4211 14.0772 80.3557 13.9397C80.2074 13.6347 80.0504 13.3383 79.8802 13.0461C79.7101 12.754 79.5313 12.4662 79.3438 12.1869C79.2522 12.058 79.1606 11.9291 79.069 11.8046L78.9294 11.6198L78.7418 11.3835C78.5412 11.1344 78.3275 10.8938 78.1007 10.6618C77.8782 10.4298 77.6427 10.2107 77.3984 10.0045C77.1542 9.79826 76.9012 9.60493 76.6351 9.4202C76.3734 9.23976 76.0986 9.06791 75.8195 8.91325L75.7584 8.88318C75.4662 8.71993 75.1783 8.55238 74.8817 8.40201C74.572 8.25165 74.2579 8.10987 73.9395 7.98099C73.6211 7.85211 73.294 7.74041 72.9625 7.6373C72.631 7.53419 72.2908 7.44827 71.9506 7.37094L71.8241 7.34516C71.5319 7.28072 71.2353 7.22916 70.9387 7.18191C70.5941 7.13035 70.2451 7.08739 69.8962 7.05302C69.5473 7.02295 69.1983 7.00147 68.8494 6.98858C68.4917 6.97569 68.1384 6.97569 67.7808 6.98428C67.4187 6.99288 67.0523 7.00577 66.6903 7.03154C66.3239 7.05732 65.9532 7.08739 65.5868 7.12606C65.2117 7.16472 64.8409 7.20768 64.4658 7.25924C64.1125 7.31079 63.7636 7.36234 63.4146 7.42249L63.4059 7.42679L63.2271 7.45686C62.8607 7.5213 62.4987 7.59004 62.1323 7.65878C61.7528 7.73611 61.369 7.81344 60.9895 7.89507C60.5926 7.97669 60.1957 8.06691 59.8031 8.15713C59.4236 8.24305 59.0485 8.33327 58.6734 8.42779L58.6647 8.43208L58.5338 8.46645C58.3637 8.50942 58.198 8.56097 58.0366 8.61682L57.9494 8.65119C57.7662 8.71563 57.583 8.79296 57.4129 8.88318C57.2515 8.9691 57.0945 9.06791 56.9462 9.17532C56.872 9.23117 56.7979 9.29561 56.7237 9.36005L56.6147 9.46316ZM77.4595 20.6933H77.5205L77.5031 21.4365C77.5118 21.6427 77.5118 21.8403 77.49 22.0552C77.4813 22.3688 77.4595 22.6781 77.4246 22.9917C77.3897 23.3225 77.3417 23.649 77.2806 23.9755C77.2196 24.2934 77.1454 24.6114 77.0582 24.925C76.9797 25.2042 76.8881 25.4749 76.7878 25.7455V25.7584L76.7049 25.9818C76.6002 26.2439 76.4868 26.506 76.3603 26.7637C76.2207 27.0516 76.0637 27.3351 75.8936 27.6101C75.7235 27.885 75.5359 28.1471 75.3353 28.4006C75.1303 28.6626 74.9209 28.9204 74.6854 29.1567C74.524 29.3156 74.3495 29.4574 74.1707 29.5949C73.9875 29.7367 73.7956 29.8655 73.6037 29.9858C73.39 30.119 73.1719 30.235 72.9494 30.3467C72.6921 30.4756 72.4435 30.5959 72.1687 30.6904L72.1512 30.6947C71.9113 30.7763 71.6845 30.8794 71.449 30.9654C71.1829 31.0556 70.9169 31.1415 70.6464 31.2231C70.3673 31.3048 70.0838 31.3778 69.7959 31.4465C69.5036 31.5153 69.207 31.5797 68.9061 31.6356L68.7709 31.6613C68.5135 31.7129 68.2518 31.7516 67.9945 31.7902C67.6935 31.8332 67.3882 31.8718 67.0872 31.9105C66.9477 31.9234 66.8037 31.9406 66.6641 31.9535L65.3687 32.0866L65.2291 30.8107C65.2117 30.6775 65.1986 30.54 65.1812 30.4026C65.1419 30.0632 65.107 29.7238 65.0634 29.3844C65.0241 29.0665 64.9849 28.7442 64.9456 28.4263L64.9282 28.276C64.8846 27.9495 64.8497 27.623 64.8104 27.3007C64.7668 26.9485 64.7232 26.6005 64.6795 26.2482C64.6403 25.9346 64.5967 25.621 64.5574 25.3073C64.5007 24.8519 64.4397 24.3966 64.3786 23.9412L64.0733 21.5955L63.7636 19.2627V19.2584C63.6938 18.7213 63.624 18.1886 63.5542 17.6559C63.4932 17.1747 63.4277 16.6979 63.3667 16.221L63.2227 15.0825V15.0739C63.1966 14.8892 63.1704 14.7045 63.1442 14.5154L63.0003 13.3898C62.9916 13.3297 62.9828 13.2695 62.9741 13.2137C62.9741 13.1965 62.9741 13.1836 62.9697 13.1707C62.9654 13.1407 62.9654 13.1149 62.961 13.0848L62.8345 12.0494L64.0602 11.7229C64.287 11.6628 64.5138 11.6069 64.7363 11.5511C65.0416 11.4781 65.3469 11.4093 65.6522 11.3492C65.9488 11.289 66.2498 11.2332 66.5464 11.1816C66.8299 11.1387 67.1134 11.0957 67.3969 11.0656C67.6717 11.0398 67.9465 11.0141 68.2213 11.0055C68.4874 10.9926 68.7534 10.9883 69.0195 10.9969C69.2507 11.0012 69.4818 11.0098 69.713 11.0355L69.8046 11.0441C70.0532 11.0699 70.3062 11.1086 70.5505 11.1601C70.7947 11.2117 71.0346 11.2718 71.2745 11.3492C71.51 11.4222 71.7456 11.5124 71.9768 11.6112C72.2123 11.7143 72.4391 11.8217 72.6616 11.9506C72.9363 12.1139 73.185 12.2986 73.4379 12.4962C73.6778 12.6853 73.909 12.8829 74.1315 13.0977C74.3539 13.3125 74.5676 13.5402 74.7726 13.7765C74.9515 13.987 75.1216 14.2018 75.2786 14.4338L75.3484 14.5326C75.5359 14.799 75.7104 15.0782 75.8718 15.3575C76.0332 15.6367 76.1815 15.9246 76.3167 16.2167C76.4563 16.5088 76.5828 16.8096 76.6962 17.1103C76.7921 17.3767 76.8881 17.6473 76.9666 17.918L77.0015 18.0469C77.0887 18.3734 77.1672 18.6999 77.2327 19.0307C77.2981 19.3572 77.3548 19.688 77.394 20.0188C77.4202 20.2422 77.442 20.4699 77.4595 20.6933Z" fill="#CFB595"/>
<path d="M88.4549 35.6923C88.4237 35.6704 88.3925 35.6486 88.3613 35.6267L88.4549 35.6923Z" fill="#CFB595"/>
<path d="M116.052 2.69234C116.13 2.86848 116.196 3.05751 116.244 3.26373C116.292 3.45705 116.327 3.66327 116.344 3.88237C116.379 4.24325 116.405 4.56975 116.423 4.87478C116.444 5.1884 116.462 5.53209 116.475 5.90156C116.488 6.22807 116.501 6.58464 116.51 6.96271C116.523 7.31499 116.527 7.68875 116.532 8.0797C116.54 8.44917 116.54 8.82294 116.545 9.201C116.545 9.58335 116.549 9.96571 116.545 10.3524C116.545 10.7433 116.54 11.1343 116.536 11.5209C116.532 11.9248 116.527 12.32 116.519 12.7152C116.51 13.1234 116.501 13.5186 116.492 13.8967C116.484 14.3091 116.471 14.7001 116.457 15.0695C116.444 15.4734 116.431 15.86 116.418 16.2338C116.401 16.6419 116.383 17.0243 116.37 17.3809C116.348 17.7933 116.331 18.1713 116.314 18.5064C116.296 18.8888 116.274 19.2454 116.252 19.5762C116.231 19.9757 116.209 20.328 116.187 20.6373C116.165 21.0111 116.139 21.3376 116.122 21.6211C116.095 21.9863 116.069 22.2871 116.047 22.5405C116.03 22.7725 116.013 22.9744 115.999 23.1463L116.034 23.1377C116.34 23.0518 116.623 22.9615 116.881 22.867C117.269 22.7253 117.639 22.562 118.002 22.3773C118.359 22.1925 118.699 21.9949 119.018 21.7758C119.336 21.5567 119.642 21.3247 119.929 21.0798C120.226 20.8307 120.496 20.5686 120.749 20.3022C121.007 20.0316 121.247 19.7394 121.482 19.4301C121.713 19.1208 121.927 18.7986 122.128 18.4678C122.328 18.1327 122.52 17.7761 122.703 17.4023C122.878 17.0458 123.048 16.6677 123.209 16.2639C123.366 15.8729 123.51 15.4734 123.637 15.0738C123.763 14.67 123.881 14.2576 123.981 13.8322C124.091 13.3726 124.191 12.9172 124.274 12.4747C124.361 12.0236 124.439 11.5682 124.505 11.1128C124.57 10.6402 124.627 10.1762 124.671 9.72083C124.714 9.26114 124.749 8.79716 124.771 8.32458C124.784 8.12696 124.806 7.94223 124.849 7.76179C124.893 7.57276 124.954 7.39662 125.028 7.22907C125.102 7.06152 125.194 6.89826 125.307 6.73931C125.416 6.58464 125.539 6.43858 125.678 6.3054C125.8 6.1851 125.927 6.0734 126.062 5.9703C126.193 5.87578 126.332 5.78127 126.485 5.69534C126.625 5.60942 126.773 5.53639 126.921 5.47194C127.078 5.40321 127.231 5.34306 127.384 5.2958C127.549 5.23995 127.711 5.19699 127.868 5.16692C128.025 5.13255 128.186 5.10677 128.361 5.08959C128.518 5.0724 128.683 5.06381 128.858 5.06811C129.024 5.06811 129.189 5.08099 129.36 5.10248C129.547 5.12396 129.726 5.15832 129.892 5.20558C130.062 5.25284 130.232 5.31728 130.389 5.39032C130.563 5.47194 130.72 5.56216 130.869 5.66527V5.66957C131.021 5.77697 131.161 5.89726 131.292 6.03044C131.44 6.18081 131.571 6.34836 131.684 6.53739C131.793 6.71783 131.881 6.91545 131.95 7.13026C132.016 7.32788 132.059 7.5255 132.086 7.73172C132.107 7.92504 132.116 8.13555 132.103 8.35895C132.073 9.03345 132.029 9.66068 131.977 10.245C131.924 10.8421 131.854 11.4522 131.772 12.0708C131.689 12.7109 131.597 13.2909 131.501 13.8236C131.401 14.3821 131.283 14.9363 131.157 15.4777C131.039 15.976 130.904 16.4787 130.76 16.977C130.611 17.484 130.459 17.9479 130.306 18.3776C130.149 18.8158 129.975 19.254 129.783 19.6879C129.591 20.1175 129.394 20.5256 129.194 20.8994C128.997 21.2689 128.779 21.6426 128.544 22.0121C128.308 22.3816 128.068 22.7296 127.824 23.0518C127.571 23.3912 127.305 23.7134 127.03 24.0227C126.751 24.3363 126.463 24.6327 126.167 24.912C125.87 25.1955 125.569 25.4619 125.259 25.7197C124.95 25.9774 124.627 26.2223 124.3 26.4586C124.064 26.6262 123.833 26.7851 123.593 26.9398C123.537 26.9784 123.476 27.0128 123.414 27.0515C123.585 27.3307 123.742 27.5971 123.89 27.8463C124.156 28.2974 124.405 28.7356 124.644 29.1609C124.941 29.6979 125.233 30.2349 125.517 30.7805C125.809 31.339 126.075 31.8717 126.319 32.3744C126.572 32.8899 126.821 33.427 127.065 33.9769C127.301 34.501 127.532 35.0466 127.767 35.6223C127.994 36.1765 128.212 36.7221 128.413 37.2634C128.605 37.7832 128.806 38.346 129.011 38.9518C129.198 39.5189 129.386 40.0903 129.56 40.6617C129.739 41.2373 129.913 41.8259 130.079 42.4231C130.249 43.0331 130.411 43.6389 130.559 44.2489C130.712 44.8676 130.851 45.4948 130.986 46.1306C131.03 46.3455 131.061 46.5517 131.069 46.7536C131.082 46.9641 131.078 47.166 131.056 47.3636C131.03 47.5699 130.986 47.7761 130.925 47.978C130.86 48.1842 130.777 48.3775 130.681 48.5537C130.594 48.7169 130.494 48.8716 130.385 49.0134C130.271 49.1594 130.149 49.2926 130.014 49.4215C129.883 49.5461 129.739 49.6621 129.586 49.7652C129.438 49.8597 129.281 49.9542 129.102 50.0358C128.941 50.1132 128.784 50.1776 128.631 50.2292C128.465 50.2807 128.304 50.328 128.147 50.3581L127.523 50.4783L127.51 50.4268C127.392 50.4311 127.266 50.4311 127.144 50.4225C126.961 50.4139 126.786 50.3881 126.612 50.3538C126.437 50.3194 126.267 50.2678 126.106 50.2077C125.94 50.1475 125.783 50.0745 125.626 49.9886C125.473 49.9027 125.325 49.8039 125.181 49.6922C125.02 49.5676 124.871 49.4258 124.74 49.2711C124.605 49.1122 124.487 48.9446 124.391 48.7685C124.3 48.6009 124.226 48.4248 124.16 48.2315C124.099 48.0467 124.051 47.8491 124.021 47.6429C123.934 47.1059 123.833 46.5646 123.72 46.0189C123.611 45.4862 123.484 44.9449 123.345 44.3864C123.205 43.8322 123.061 43.2909 122.904 42.7625C122.747 42.2297 122.577 41.6927 122.389 41.1514C122.202 40.5972 122.01 40.0602 121.814 39.5361C121.613 39.0119 121.404 38.4835 121.186 37.9594C120.963 37.431 120.741 36.9111 120.505 36.3999C120.265 35.8801 120.025 35.3731 119.785 34.8876C119.546 34.4065 119.293 33.9124 119.018 33.4012C118.747 32.8899 118.49 32.4217 118.246 31.9963C118.036 31.6355 117.814 31.2617 117.578 30.8707C117.434 30.6345 117.286 30.3982 117.134 30.1576C116.977 30.1877 116.828 30.2134 116.693 30.2306C116.54 30.2521 116.375 30.2736 116.191 30.2908C115.965 30.3165 115.751 30.3423 115.546 30.3681C115.494 30.3724 115.424 30.381 115.345 30.3939L115.223 31.5538L114.983 33.7964C114.94 34.2303 114.9 34.6256 114.861 34.9907C114.804 35.5192 114.769 35.8843 114.752 36.0218L114.639 37.1173L114.53 38.2C114.486 38.6425 114.447 38.9991 114.421 39.274C114.386 39.622 114.355 39.9528 114.325 40.275C114.281 40.7046 114.25 41.0397 114.224 41.2889C114.194 41.6154 114.168 41.9204 114.141 42.2169L113.936 44.5325L113.849 45.5249C113.832 45.7225 113.797 45.9201 113.749 46.1178C113.696 46.3197 113.635 46.5087 113.561 46.6849C113.491 46.8481 113.409 47.0071 113.313 47.1574L113.361 47.2004L112.916 47.6944C112.798 47.8319 112.667 47.9608 112.532 48.0768C112.401 48.1928 112.257 48.3002 112.104 48.4076C111.965 48.5021 111.812 48.5923 111.651 48.6783C111.629 48.6869 111.607 48.6997 111.585 48.7083V48.7384L111.162 48.8974C111.001 48.9575 110.831 49.0134 110.656 49.052C110.482 49.095 110.312 49.1251 110.137 49.1465C109.967 49.1637 109.793 49.1723 109.61 49.168C109.431 49.1637 109.252 49.1465 109.086 49.1165C108.885 49.0864 108.694 49.0348 108.515 48.9704C108.332 48.906 108.157 48.82 107.991 48.7212C107.821 48.6181 107.669 48.5064 107.525 48.3732C107.385 48.2486 107.254 48.1026 107.132 47.9436C106.997 47.7675 106.888 47.5827 106.796 47.3765C106.705 47.1746 106.635 46.9641 106.582 46.745C106.543 46.5517 106.513 46.3412 106.5 46.1178C106.491 45.903 106.491 45.6838 106.513 45.4604C106.543 45.0609 106.591 44.5239 106.657 43.8623C106.713 43.2608 106.77 42.6808 106.827 42.1095C106.897 41.4393 106.962 40.8335 107.023 40.275C107.097 39.6005 107.163 38.9991 107.228 38.4577C107.333 37.5341 107.42 36.8123 107.459 36.4643C107.533 35.8156 107.607 35.1841 107.673 34.5869C107.751 33.8952 107.83 33.2078 107.908 32.5291C107.996 31.7558 108.07 31.077 108.131 30.5185C108.218 29.7537 108.292 29.0406 108.362 28.3833C108.436 27.6443 108.506 26.9484 108.567 26.3039C108.615 25.8013 108.676 25.1139 108.755 24.2375C108.816 23.4943 108.877 22.7682 108.933 22.0551C108.995 21.2989 109.047 20.5729 109.09 19.8812C109.138 19.138 109.178 18.4334 109.213 17.7589C109.247 17.0157 109.278 16.2982 109.304 15.6065C109.326 14.8848 109.348 14.1759 109.361 13.4843C109.378 12.7754 109.378 12.0751 109.374 11.3791C109.37 10.6918 109.357 9.99578 109.335 9.29981C109.313 8.64679 109.282 7.96371 109.247 7.27203C109.217 6.61901 109.178 5.93593 109.13 5.23566C109.117 5.01655 109.125 4.79745 109.152 4.58264C109.182 4.36783 109.226 4.16592 109.287 3.97689C109.348 3.79215 109.418 3.61601 109.505 3.44416C109.588 3.26802 109.684 3.10906 109.78 2.9587C109.871 2.82122 109.976 2.68375 110.098 2.54197C110.211 2.4045 110.329 2.27561 110.456 2.15962C110.582 2.03503 110.717 1.92333 110.853 1.82022C110.988 1.72141 111.136 1.6226 111.289 1.53668V1.53238C111.433 1.45075 111.585 1.37772 111.751 1.30468L111.76 1.30039V1.26602L112.227 1.12854C112.379 1.08128 112.545 1.04262 112.724 1.01684C112.89 0.986769 113.06 0.973881 113.23 0.965288C113.422 0.960992 113.609 0.969584 113.788 0.995361C113.971 1.02114 114.15 1.0598 114.325 1.11995C114.503 1.1758 114.674 1.25313 114.835 1.34335C114.996 1.43357 115.153 1.54097 115.297 1.66126C115.454 1.79874 115.603 1.9534 115.733 2.12954C115.856 2.29709 115.96 2.48612 116.052 2.69234ZM112.471 2.4002L112.275 2.48612C112.187 2.52049 112.104 2.56345 112.022 2.60642L111.947 2.64938C111.843 2.70952 111.742 2.77396 111.642 2.847C111.546 2.92003 111.455 3.00166 111.363 3.08329C111.271 3.17351 111.188 3.26373 111.106 3.36254C111.023 3.45705 110.949 3.56016 110.879 3.66327C110.805 3.77497 110.739 3.88667 110.683 4.00696C110.621 4.12295 110.573 4.23895 110.534 4.36354C110.495 4.48813 110.469 4.61701 110.451 4.74589C110.434 4.88337 110.43 5.01655 110.438 5.15403C110.482 5.83712 110.521 6.5202 110.556 7.20759C110.591 7.89067 110.621 8.57806 110.643 9.26114C110.665 9.96571 110.678 10.666 110.683 11.3705C110.687 12.0837 110.683 12.7969 110.669 13.51C110.656 14.2232 110.635 14.9363 110.608 15.6538C110.587 16.3756 110.552 17.0973 110.517 17.8191C110.482 18.5365 110.443 19.2497 110.395 19.9628C110.347 20.6932 110.294 21.4235 110.238 22.1539C110.181 22.8842 110.12 23.6146 110.059 24.3449C109.998 25.0366 109.937 25.7326 109.871 26.4242C109.806 27.1202 109.736 27.8162 109.662 28.5122C109.588 29.2296 109.514 29.9428 109.435 30.6602C109.361 31.3304 109.282 32.0006 109.208 32.6708C109.13 33.3582 109.051 34.0456 108.973 34.7287C108.903 35.3559 108.829 35.9832 108.759 36.6104C108.68 37.2763 108.606 37.9379 108.528 38.6038C108.458 39.2053 108.388 39.811 108.323 40.4125C108.257 41.0225 108.192 41.6326 108.131 42.2383C108.07 42.8183 108.013 43.3983 107.956 43.9783C107.908 44.5067 107.86 45.0351 107.817 45.5636C107.804 45.7268 107.799 45.8858 107.808 46.0447C107.817 46.1865 107.834 46.3326 107.865 46.47C107.891 46.6032 107.935 46.7321 107.991 46.8567C108.039 46.9641 108.105 47.0715 108.179 47.166C108.249 47.2605 108.323 47.3465 108.41 47.4281C108.493 47.5011 108.58 47.5656 108.672 47.6214C108.768 47.6773 108.864 47.7245 108.968 47.7632C109.073 47.8018 109.186 47.8276 109.3 47.8491C109.413 47.8663 109.531 47.8749 109.644 47.8792C109.762 47.8835 109.876 47.8792 109.989 47.8663C110.107 47.8534 110.225 47.8319 110.342 47.8018C110.46 47.7718 110.582 47.7374 110.696 47.6944L110.809 47.6515L110.997 47.557C111.014 47.5484 111.027 47.5441 111.045 47.5355C111.154 47.4796 111.258 47.4152 111.359 47.3465C111.463 47.2777 111.568 47.2004 111.664 47.1145C111.76 47.0285 111.851 46.9383 111.934 46.8438L112.07 46.6934L112.196 46.4915C112.257 46.3927 112.309 46.2896 112.353 46.1865C112.405 46.0662 112.445 45.9416 112.475 45.817C112.51 45.6838 112.532 45.5507 112.545 45.4132L112.632 44.4208L112.724 43.3768H112.719L112.837 42.1009C112.863 41.7915 112.894 41.4822 112.924 41.1729C112.955 40.8335 112.99 40.4941 113.02 40.1547C113.051 39.8196 113.086 39.4845 113.121 39.1494C113.156 38.7885 113.191 38.432 113.23 38.0711L113.339 36.9885L113.452 35.8929C113.487 35.5492 113.522 35.2056 113.557 34.8619C113.601 34.4623 113.64 34.0628 113.683 33.6632L113.919 31.4207L114.15 29.2511L115.166 29.1136C115.241 29.105 115.31 29.0964 115.38 29.0878C115.603 29.0578 115.829 29.032 116.056 29.0105C116.204 28.9933 116.353 28.9761 116.501 28.9547C116.632 28.9375 116.763 28.916 116.898 28.8902L117.77 28.7313L118.241 29.4745C118.394 29.7151 118.547 29.96 118.699 30.2048C118.931 30.5872 119.162 30.9739 119.384 31.3648C119.655 31.8417 119.921 32.3185 120.178 32.804C120.444 33.3067 120.706 33.8093 120.959 34.3163C121.216 34.8318 121.46 35.3516 121.7 35.8715C121.94 36.3999 122.171 36.9326 122.394 37.4696C122.616 38.0066 122.834 38.5437 123.039 39.0893C123.244 39.6349 123.441 40.1848 123.633 40.739C123.82 41.2889 123.995 41.8431 124.16 42.4016C124.326 42.9558 124.474 43.5143 124.618 44.0771C124.758 44.6356 124.884 45.1984 125.002 45.7612C125.12 46.3197 125.22 46.8782 125.312 47.441C125.334 47.5742 125.364 47.703 125.403 47.8319C125.443 47.9436 125.486 48.0553 125.543 48.1584C125.6 48.2615 125.665 48.3561 125.739 48.442C125.813 48.5279 125.896 48.6052 125.988 48.6783C126.079 48.747 126.171 48.8114 126.271 48.8673C126.367 48.9188 126.468 48.9661 126.568 49.0048C126.673 49.0434 126.777 49.0735 126.882 49.095C126.991 49.1165 127.104 49.1294 127.214 49.138C127.301 49.1422 127.384 49.1422 127.467 49.138L127.698 49.1294L127.89 49.095C127.999 49.0735 128.103 49.0434 128.208 49.0091C128.321 48.9704 128.43 48.9231 128.54 48.8716C128.644 48.8243 128.749 48.7642 128.845 48.6997C128.941 48.6353 129.028 48.5666 129.111 48.4892C129.194 48.4119 129.272 48.326 129.342 48.2358C129.412 48.1455 129.473 48.0467 129.53 47.9436C129.591 47.8362 129.639 47.7202 129.674 47.5999C129.713 47.4753 129.739 47.3465 129.752 47.2176C129.77 47.0887 129.77 46.9555 129.765 46.8223C129.756 46.6763 129.735 46.5345 129.704 46.3884C129.578 45.7741 129.438 45.1597 129.285 44.5497C129.141 43.9525 128.984 43.3596 128.819 42.7668C128.657 42.1868 128.487 41.6111 128.313 41.0397C128.138 40.4769 127.955 39.9184 127.767 39.3599C127.58 38.8057 127.388 38.2558 127.183 37.7102C126.982 37.1689 126.773 36.6362 126.555 36.1035C126.332 35.5621 126.106 35.0251 125.866 34.4924C125.63 33.9683 125.39 33.4484 125.137 32.9286C124.884 32.4045 124.623 31.8846 124.352 31.3691C124.073 30.8364 123.79 30.308 123.497 29.7795C123.253 29.3499 123.009 28.916 122.756 28.4907C122.603 28.2286 122.446 27.9708 122.293 27.7131L121.644 26.639L122.712 25.9646C122.765 25.9302 122.821 25.8958 122.874 25.8614C123.096 25.7197 123.314 25.5693 123.528 25.4189C123.833 25.1998 124.13 24.9678 124.418 24.7316C124.71 24.491 124.989 24.2418 125.259 23.984C125.534 23.7263 125.796 23.4556 126.045 23.1721C126.302 22.8885 126.542 22.5921 126.773 22.2871C127.009 21.9734 127.227 21.6555 127.436 21.3247C127.65 20.9939 127.85 20.6502 128.038 20.3022C128.234 19.9328 128.413 19.5547 128.583 19.1723C128.758 18.7685 128.923 18.3604 129.072 17.9436C129.229 17.5097 129.373 17.0672 129.503 16.6204C129.639 16.1479 129.765 15.6667 129.879 15.1855C130.005 14.6614 130.114 14.1287 130.214 13.596C130.315 13.0332 130.402 12.4704 130.476 11.9033C130.555 11.3147 130.62 10.7261 130.672 10.1333C130.729 9.52321 130.768 8.90886 130.799 8.29881C130.803 8.16133 130.803 8.01956 130.786 7.88208C130.768 7.76179 130.742 7.6415 130.703 7.5212C130.668 7.4095 130.62 7.2978 130.555 7.1947C130.498 7.09589 130.428 7.00567 130.35 6.92404C130.275 6.84671 130.193 6.77797 130.105 6.71783L130.04 6.67057C129.975 6.62761 129.9 6.58894 129.831 6.55457C129.735 6.51161 129.634 6.47295 129.534 6.44717C129.421 6.4128 129.307 6.39561 129.189 6.37843C129.076 6.36554 128.958 6.35695 128.84 6.35695C128.727 6.35265 128.609 6.35695 128.496 6.36984C128.378 6.38273 128.26 6.39991 128.147 6.42569C128.025 6.45146 127.907 6.48154 127.789 6.5202C127.676 6.55457 127.567 6.59753 127.458 6.64909C127.349 6.69205 127.248 6.7479 127.148 6.80375C127.048 6.86389 126.952 6.92404 126.86 6.99278C126.769 7.06152 126.681 7.13885 126.599 7.22047C126.52 7.2978 126.446 7.37943 126.385 7.46965C126.324 7.55987 126.267 7.65009 126.228 7.7446C126.184 7.84342 126.149 7.94652 126.123 8.04963C126.101 8.16133 126.084 8.27303 126.079 8.38473C126.053 8.87019 126.018 9.35566 125.975 9.84112C125.927 10.3266 125.866 10.8078 125.8 11.2889C125.731 11.7658 125.652 12.2384 125.56 12.7109C125.469 13.1878 125.369 13.6604 125.255 14.1287C125.146 14.5755 125.024 15.0223 124.884 15.4605C124.749 15.8901 124.592 16.3197 124.426 16.7407C124.261 17.1532 124.077 17.5656 123.881 17.9651C123.689 18.3561 123.48 18.7427 123.253 19.1208C123.035 19.4903 122.795 19.8511 122.533 20.1948C122.276 20.5385 122.006 20.865 121.709 21.1744C121.421 21.4837 121.111 21.7801 120.789 22.0551C120.462 22.3343 120.117 22.5921 119.764 22.837C119.393 23.0904 119.005 23.3181 118.603 23.52C118.193 23.7306 117.77 23.9153 117.334 24.0742C117.024 24.1859 116.71 24.2891 116.392 24.375L114.534 24.8948L114.695 23.0389C114.713 22.837 114.73 22.6393 114.743 22.4374C114.769 22.1367 114.791 21.8317 114.813 21.5266C114.839 21.2044 114.861 20.8779 114.883 20.5514C114.905 20.2034 114.926 19.8511 114.948 19.5031C114.97 19.1509 114.988 18.7943 115.005 18.442C115.027 18.0682 115.044 17.6945 115.062 17.3207C115.079 16.9426 115.097 16.5646 115.11 16.1865C115.127 15.7999 115.14 15.4132 115.153 15.0309C115.162 14.6399 115.175 14.2533 115.184 13.8666C115.197 13.4714 115.206 13.0804 115.21 12.6895C115.219 12.2942 115.223 11.9033 115.227 11.508C115.232 11.1214 115.236 10.7347 115.236 10.3481C115.236 9.97001 115.236 9.58765 115.236 9.20959C115.232 8.84012 115.232 8.47065 115.223 8.09689C115.219 7.73172 115.214 7.36225 115.201 6.99278C115.193 6.64909 115.184 6.3011 115.171 5.95741C115.153 5.62231 115.14 5.28721 115.118 4.95641C115.097 4.63849 115.07 4.31628 115.04 3.99837C115.027 3.8523 115.005 3.70623 114.97 3.56016C114.94 3.43987 114.9 3.31958 114.852 3.20358C114.8 3.09188 114.743 2.98448 114.669 2.88566C114.604 2.79545 114.53 2.71382 114.442 2.64078C114.364 2.57205 114.281 2.5162 114.189 2.46464C114.098 2.41309 114.006 2.37442 113.906 2.34005C113.81 2.30569 113.71 2.2842 113.605 2.27132C113.496 2.25413 113.387 2.24984 113.273 2.25413C113.16 2.25843 113.047 2.26702 112.933 2.2885C112.824 2.30569 112.711 2.32717 112.602 2.36154L112.471 2.4002Z" fill="#CFB595"/>
<path d="M165.139 10.8508C165.218 11.0485 165.27 11.2461 165.305 11.448C165.335 11.6413 165.349 11.839 165.344 12.0452V12.0752L165.34 12.1268C165.27 12.9559 165.187 13.8109 165.091 14.6916C165.004 15.525 164.899 16.3714 164.786 17.2349C164.677 18.0555 164.559 18.8717 164.428 19.6837C164.297 20.5043 164.162 21.2948 164.018 22.0681C163.857 22.9359 163.704 23.7049 163.573 24.3751C163.438 25.041 163.285 25.8014 163.102 26.6606C162.923 27.5285 162.758 28.2932 162.614 28.9419C162.461 29.625 162.3 30.3424 162.13 31.0857V31.0943L162.108 31.1716C161.907 32.0222 161.737 32.7526 161.597 33.3712C161.467 33.9426 161.301 34.6987 161.1 35.6138C160.895 36.5504 160.729 37.3194 160.594 37.9466C160.415 38.7715 160.267 39.4932 160.132 40.1377L160.093 40.3267C159.966 40.9539 159.835 41.6499 159.7 42.406C159.56 43.1793 159.43 43.9741 159.303 44.7904C159.168 45.6539 159.05 46.4702 158.95 47.2349C158.845 48.0254 158.74 48.8545 158.644 49.7266H158.64V49.7438L158.636 49.7825C158.605 49.9801 158.562 50.1734 158.505 50.3625C158.448 50.5558 158.378 50.7362 158.3 50.9081C158.213 51.0885 158.112 51.2604 158.003 51.4236C157.89 51.5826 157.763 51.7372 157.624 51.8747L157.619 51.8833L157.615 51.8876V51.8833C157.484 52.0165 157.345 52.1368 157.201 52.2442C157.066 52.3473 156.917 52.4461 156.751 52.532V52.5363C156.612 52.618 156.451 52.691 156.28 52.7554C156.119 52.8199 155.953 52.8757 155.788 52.9187H155.779L155.757 52.923L155.748 52.9273C155.578 52.9659 155.412 52.9917 155.247 53.0132C155.085 53.0304 154.92 53.039 154.745 53.0347C154.571 53.0347 154.401 53.0218 154.243 53.0003C154.078 52.9788 153.921 52.9445 153.764 52.9058C153.589 52.8628 153.419 52.807 153.249 52.7339C153.083 52.6652 152.926 52.5836 152.774 52.4891C152.686 52.4332 152.608 52.3774 152.529 52.3215L152.477 52.3817L152.054 51.879C152.023 51.8446 151.997 51.8103 151.967 51.7759H151.971C151.84 51.6212 151.731 51.4537 151.64 51.2818C151.544 51.1014 151.469 50.9124 151.413 50.7191C151.36 50.5429 151.325 50.3539 151.304 50.1563C151.282 49.9758 151.273 49.7825 151.282 49.5806H151.278V49.5548L151.282 49.5075C151.321 48.9362 151.378 48.3433 151.443 47.7289C151.509 47.1275 151.587 46.5131 151.679 45.8859C151.766 45.2587 151.866 44.6314 151.975 44.0042C152.05 43.5832 152.132 43.1321 152.228 42.6595H152.224L152.346 42.0451C152.464 41.4523 152.599 40.8036 152.752 40.0904C152.891 39.4417 153.04 38.7586 153.201 38.054C153.38 37.2721 153.541 36.5847 153.685 35.9919C153.842 35.3432 154.012 34.6601 154.191 33.9469C154.427 33.0232 154.61 32.3101 154.732 31.8246C154.902 31.1372 155.072 30.4756 155.229 29.8312C155.465 28.8861 155.648 28.16 155.774 27.6531C155.945 26.9528 156.115 26.274 156.276 25.6167C156.307 25.4792 156.341 25.3374 156.376 25.1957C156.141 25.5479 155.875 25.9432 155.583 26.3728C155.19 26.9528 154.815 27.4984 154.462 28.0096C154.134 28.4779 153.755 29.0149 153.328 29.625C152.909 30.2136 152.516 30.7549 152.154 31.2575L152.115 31.3091L152.111 31.3177C151.513 32.1296 151.107 32.6838 150.929 32.9244C150.593 33.3798 150.213 33.8868 149.79 34.4539C149.428 34.9436 149.022 35.4849 148.578 36.0778C148.063 36.7652 147.683 37.2721 147.444 37.5857L147.247 37.8435H147.239C146.916 38.2688 146.593 38.6898 146.275 39.1066C145.895 39.6092 145.516 40.1033 145.145 40.593C145.01 40.7735 144.979 40.8121 144.089 41.985L142.973 43.4629C142.65 43.8882 142.305 44.3479 141.935 44.8462C141.551 45.3661 141.228 45.8 140.975 46.1437C140.687 46.5389 140.382 46.9642 140.05 47.4196C139.715 47.8836 139.427 48.2874 139.191 48.6182L139.169 48.6483L139.152 48.6741C139.025 48.8373 138.886 48.9877 138.746 49.1209C138.598 49.2627 138.445 49.3872 138.284 49.5032C138.118 49.6149 137.944 49.7181 137.756 49.8083C137.569 49.8985 137.381 49.9715 137.193 50.0274L136.609 50.1992L136.596 50.1649C136.448 50.1906 136.291 50.2035 136.129 50.2121C135.942 50.2207 135.754 50.2121 135.575 50.1949C135.383 50.1777 135.204 50.1434 135.03 50.1004L134.999 50.0961C134.825 50.0489 134.642 49.9844 134.463 49.9071C134.284 49.8255 134.118 49.7395 133.966 49.6407C133.817 49.5462 133.669 49.4302 133.521 49.2927C133.377 49.1638 133.246 49.0221 133.124 48.8717L133.098 48.8416C132.976 48.6741 132.867 48.4937 132.779 48.3003C132.762 48.266 132.744 48.2273 132.731 48.1929H132.683L132.561 47.6946C132.518 47.5055 132.487 47.2993 132.474 47.0845C132.457 46.8697 132.461 46.6549 132.478 46.4358L132.483 46.4186L132.487 46.3714L132.491 46.3413C132.548 45.989 132.605 45.6324 132.662 45.2801C132.727 44.8677 132.805 44.3908 132.897 43.8409C132.997 43.218 133.08 42.7239 133.137 42.3845C133.224 41.869 133.303 41.4222 133.364 41.0527L133.53 40.1033C133.682 39.2355 133.835 38.3462 133.992 37.4612C134.145 36.5804 134.297 35.6997 134.45 34.8491C134.816 32.7655 135.17 30.8193 135.532 28.8345L135.549 28.7271V28.7228L135.658 28.1213L135.776 27.4726C135.837 27.1375 135.898 26.8024 135.959 26.463C136.059 25.9131 136.155 25.3589 136.256 24.809C136.369 24.1732 136.482 23.5416 136.587 22.9445C136.722 22.2141 136.827 21.6213 136.888 21.2905L136.958 20.9124L137.215 19.4517L137.477 17.9695V17.9653C137.573 17.4196 137.669 16.8783 137.765 16.3456L138.048 14.756L138.109 14.4123C138.179 13.987 138.253 13.5746 138.319 13.1751C138.423 12.5693 138.506 12.0924 138.563 11.753C138.65 11.2375 138.729 10.7477 138.807 10.2795C138.899 9.72525 138.973 9.28704 139.025 8.95624L139.03 8.91757L139.038 8.8832C139.082 8.67699 139.139 8.48366 139.209 8.29893C139.274 8.11849 139.357 7.94235 139.457 7.76621C139.553 7.59866 139.662 7.4354 139.789 7.28074V7.27645C139.915 7.12179 140.05 6.98001 140.194 6.85113L140.234 6.82106L140.255 6.80817C140.377 6.70506 140.504 6.61054 140.635 6.52462C140.774 6.4344 140.927 6.34848 141.088 6.27115V6.26685C141.25 6.18952 141.411 6.12508 141.581 6.06923C141.738 6.01768 141.904 5.97471 142.083 5.94464V5.94035H142.096L142.122 5.93605C142.288 5.91027 142.454 5.89309 142.611 5.8845C142.776 5.8759 142.938 5.8759 143.099 5.8845C143.269 5.89738 143.435 5.91457 143.601 5.94894C143.723 5.97042 143.849 6.00479 143.98 6.04345H143.998L144.102 6.07782C144.273 6.13797 144.434 6.20241 144.591 6.28404C144.748 6.36566 144.896 6.45588 145.036 6.55899C145.175 6.6621 145.311 6.77809 145.437 6.91127C145.559 7.03586 145.673 7.17764 145.782 7.33659C145.899 7.50414 145.995 7.68458 146.07 7.86931C146.148 8.05834 146.205 8.25597 146.24 8.45789C146.27 8.62973 146.288 8.82306 146.292 9.02927C146.292 9.2226 146.279 9.42022 146.253 9.62214L146.248 9.63073L146.244 9.68229L146.065 10.6403C146 10.984 145.965 11.1816 145.947 11.2762L145.808 12.0151C145.716 12.492 145.66 12.797 145.638 12.9173C145.581 13.2094 145.529 13.4844 145.476 13.755C145.402 14.1374 145.332 14.4983 145.267 14.842C145.162 15.3747 145.101 15.7098 145.084 15.8L144.761 17.4497L144.63 18.1285L144.447 19.0737C144.342 19.6021 144.246 20.109 144.159 20.5515C143.941 21.6642 143.841 22.1669 143.74 22.6652L143.732 22.7082L143.719 22.7812C143.505 23.851 143.291 24.9293 143.138 25.7069V25.7155L143.125 25.7799C143.051 26.1494 142.977 26.5232 142.903 26.8883C142.829 27.2578 142.759 27.623 142.685 27.9882C142.58 28.5252 142.471 29.0579 142.371 29.5605C142.253 30.1577 142.153 30.6561 142.087 30.9697C141.965 31.5754 141.874 32.0351 141.795 32.4175L141.594 33.4056L141.577 33.5044L141.359 34.5741C141.603 34.2305 141.839 33.9039 142.061 33.5946L142.454 33.0576C142.859 32.4948 143.173 32.0609 143.374 31.7859C143.762 31.2575 144.181 30.6818 144.648 30.0503C145.027 29.5348 145.459 28.9462 145.952 28.2803C146.331 27.7733 146.754 27.2063 147.225 26.579L147.356 26.4072C147.867 25.7198 148.333 25.0926 148.735 24.5427C149.166 23.9541 149.62 23.3268 150.104 22.6566C150.51 22.0981 150.963 21.4623 151.474 20.7406C151.962 20.0446 152.425 19.3873 152.856 18.7643L152.896 18.7085L152.904 18.6999C153.358 18.0469 153.799 17.4068 154.217 16.7795C154.649 16.1351 155.094 15.4563 155.552 14.7431C156.014 14.0257 156.451 13.3297 156.865 12.6552C157.275 11.9893 157.702 11.2762 158.156 10.5071L158.169 10.4857C158.287 10.2966 158.413 10.1205 158.549 9.96583L158.505 9.91858L159.02 9.50615C159.19 9.36867 159.373 9.24838 159.569 9.14527C159.757 9.04216 159.962 8.96054 160.175 8.8918C160.372 8.82735 160.564 8.7801 160.747 8.75002C160.93 8.71565 161.126 8.69847 161.331 8.68988C161.523 8.68129 161.715 8.68988 161.907 8.70706C162.108 8.72854 162.304 8.75862 162.487 8.80158C162.666 8.84454 162.845 8.90039 163.028 8.96483C163.207 9.02927 163.373 9.10231 163.534 9.18393C163.7 9.26986 163.861 9.36867 164.005 9.47178L164.023 9.48466L164.049 9.46748L164.428 9.82406C164.585 9.97013 164.725 10.1291 164.843 10.3009C164.965 10.4771 165.065 10.6618 165.139 10.8508ZM163.892 11.2504C163.852 11.173 163.809 11.1 163.761 11.027C163.695 10.9282 163.613 10.838 163.525 10.7563L163.368 10.6103L163.233 10.5114C163.137 10.4427 163.032 10.3826 162.923 10.3267C162.814 10.2666 162.697 10.2193 162.579 10.1763C162.448 10.1291 162.317 10.0904 162.182 10.0561C162.051 10.026 161.911 10.0045 161.776 9.99161C161.641 9.97872 161.51 9.97442 161.379 9.97872C161.244 9.98302 161.109 9.99591 160.978 10.0174C160.843 10.0432 160.708 10.0775 160.577 10.1162C160.442 10.1592 160.315 10.215 160.189 10.2795C160.071 10.3439 159.953 10.4169 159.848 10.5029L159.696 10.6231L159.543 10.7993C159.46 10.8981 159.377 11.0012 159.312 11.1129L158.653 12.2858L158.623 12.2686C158.413 12.6208 158.2 12.9731 157.986 13.3211C157.55 14.03 157.105 14.7303 156.66 15.4305C156.215 16.1222 155.766 16.8053 155.312 17.4884C154.876 18.1414 154.431 18.7901 153.982 19.4302L153.912 19.529L153.908 19.5333C153.458 20.1821 153.005 20.8308 152.547 21.4752C152.093 22.1196 151.635 22.764 151.173 23.4042C150.715 24.0357 150.257 24.6672 149.795 25.2945C149.337 25.9217 148.874 26.5447 148.412 27.1676L148.281 27.3437C147.858 27.9108 147.43 28.4736 147.012 29.045C146.576 29.6293 146.139 30.2179 145.708 30.8064C145.284 31.3821 144.861 31.9578 144.438 32.5378C144.133 32.9588 143.828 33.3841 143.518 33.8051L142.742 34.8835L142.737 34.8792C142.637 35.0252 142.532 35.167 142.432 35.3131L138.86 40.3568L140.312 33.1521L140.513 32.164C140.609 31.6828 140.709 31.2017 140.805 30.7205C140.901 30.2522 140.992 29.7796 141.088 29.3114C141.193 28.7915 141.298 28.2674 141.402 27.7433C141.472 27.3738 141.546 27.0086 141.621 26.6392C141.69 26.2912 141.76 25.9389 141.83 25.5866L141.856 25.4663C142.044 24.4868 142.24 23.5116 142.432 22.5364L142.458 22.4204C142.598 21.7158 142.733 21.0112 142.872 20.3067C142.968 19.8169 143.064 19.3228 143.16 18.8331L143.614 16.5046L143.797 15.5594C143.858 15.2372 143.919 14.9193 143.98 14.6014C144.054 14.2405 144.124 13.8753 144.19 13.5144C144.246 13.2395 144.299 12.9602 144.351 12.681C144.408 12.3803 144.464 12.0795 144.521 11.7831L144.661 11.0399C144.7 10.8294 144.739 10.6188 144.778 10.4083L144.953 9.47178C144.966 9.33 144.983 9.18393 144.983 9.04216C144.979 8.92187 144.975 8.80158 144.953 8.68558C144.931 8.56959 144.901 8.45789 144.857 8.35048C144.813 8.24738 144.761 8.14856 144.696 8.05834C144.635 7.96813 144.565 7.87791 144.486 7.79628C144.416 7.72325 144.338 7.65451 144.255 7.59436C144.168 7.52992 144.081 7.47407 143.985 7.42681C143.902 7.38385 143.815 7.34518 143.727 7.31511L143.596 7.27645C143.514 7.25067 143.431 7.22919 143.343 7.212C143.234 7.19052 143.125 7.17764 143.012 7.16904C142.903 7.16475 142.794 7.16475 142.68 7.16904C142.563 7.17764 142.436 7.19912 142.318 7.212C142.209 7.23349 142.096 7.25926 141.991 7.29363C141.913 7.31941 141.839 7.34518 141.765 7.37955L141.664 7.42681C141.56 7.47837 141.455 7.53422 141.359 7.59866C141.25 7.67169 141.154 7.75761 141.045 7.83495C140.984 7.8908 140.927 7.94665 140.87 8.00679L140.814 8.08412C140.731 8.18293 140.661 8.28604 140.6 8.39344C140.535 8.50944 140.478 8.62544 140.434 8.74573C140.391 8.86172 140.351 8.98202 140.325 9.1066L140.316 9.15816C140.247 9.60066 140.172 10.0432 140.098 10.4857C140.015 10.9797 139.937 11.4695 139.854 11.9635C139.771 12.4361 139.693 12.913 139.61 13.3899C139.54 13.8066 139.47 14.2233 139.396 14.6357L139.052 16.569C138.977 16.9857 138.785 17.5571 138.785 17.9653V18.077L138.502 19.6708L138.245 21.1401L138.175 21.5182C138.074 22.0681 137.974 22.618 137.878 23.1722C137.765 23.7908 137.656 24.4138 137.542 25.0324C137.446 25.5866 137.346 26.1365 137.246 26.6864C137.189 27.0258 137.128 27.3609 137.067 27.7003L136.836 28.972L136.818 29.0579C136.474 30.9568 135.758 32.9201 135.758 34.8491C135.758 35.8501 135.449 36.7179 135.279 37.6803C135.126 38.561 134.973 39.4417 134.821 40.3181L134.655 41.2718C134.576 41.71 134.502 42.1525 134.428 42.595C134.345 43.0805 134.267 43.566 134.188 44.0471C134.11 44.524 134.031 45.0052 133.953 45.4821C133.896 45.8386 133.848 46.1995 133.783 46.5561L133.778 46.5776L133.774 46.6162C133.756 46.7322 133.769 46.8826 133.778 46.9986C133.787 47.1318 133.804 47.265 133.835 47.3981L133.865 47.527L133.94 47.6989C133.948 47.7203 133.957 47.7418 133.97 47.7633C134.001 47.832 134.057 47.9566 134.105 48.0168L134.136 48.0554C134.223 48.1543 134.31 48.2574 134.411 48.3476C134.493 48.4249 134.585 48.4979 134.681 48.5624C134.781 48.6268 134.886 48.6827 134.995 48.7299C135.065 48.76 135.187 48.8159 135.261 48.833L135.287 48.8373C135.423 48.8631 135.566 48.8975 135.706 48.9147C135.828 48.9233 135.955 48.9276 136.077 48.9233C136.181 48.919 136.291 48.9104 136.395 48.8932L136.574 48.8674L136.818 48.7944C136.94 48.7557 137.063 48.7085 137.18 48.6526C137.302 48.5925 137.416 48.528 137.525 48.4507C137.634 48.3734 137.739 48.2874 137.835 48.1972C137.917 48.1199 138.013 48.0254 138.079 47.9352L138.118 47.8793C138.406 47.4755 138.694 47.0759 138.982 46.6721C139.291 46.2425 139.601 45.8172 139.915 45.3918C140.234 44.9536 140.556 44.5197 140.879 44.0858C141.228 43.6218 141.573 43.1535 141.922 42.6939L143.043 41.2117C143.396 40.7477 143.745 40.2837 144.098 39.8197C144.473 39.3257 144.853 38.8273 145.228 38.3333C145.551 37.9123 145.873 37.4912 146.196 37.0702L146.589 36.5547C146.903 36.1422 147.212 35.7298 147.526 35.3131C147.928 34.7761 148.333 34.2348 148.735 33.6934C149.114 33.1865 149.489 32.6795 149.864 32.1683C149.995 31.9793 150.113 31.7559 150.239 31.5583C150.497 31.1716 150.785 30.8107 151.112 30.4756C151.496 29.9472 151.875 29.4188 152.255 28.8861C152.63 28.3533 153.009 27.8163 153.38 27.2836C153.755 26.7423 154.126 26.201 154.496 25.6553C154.763 25.2644 155.024 24.8777 155.286 24.4868L159.412 18.3175L157.65 25.4964C157.615 25.6382 157.58 25.7799 157.545 25.9217C157.38 26.6005 157.214 27.2793 157.044 27.9581C156.865 28.6841 156.682 29.4145 156.503 30.1405C156.333 30.8064 156.167 31.468 156.001 32.1339C155.822 32.8428 155.644 33.5517 155.46 34.2562C155.29 34.935 155.12 35.6095 154.959 36.2883C154.793 36.9714 154.636 37.6545 154.479 38.3333C154.326 39.0078 154.178 39.6823 154.03 40.3568C153.921 40.8809 153.807 41.405 153.703 41.9291L153.511 42.9044C153.423 43.3426 153.341 43.7808 153.266 44.2233C153.157 44.8333 153.061 45.4477 152.974 46.0663C152.887 46.6635 152.813 47.265 152.743 47.8664C152.686 48.412 152.625 48.9619 152.59 49.5118V49.6192C152.586 49.7481 152.586 49.8813 152.603 50.0145C152.617 50.1305 152.638 50.2508 152.669 50.3625C152.704 50.4742 152.747 50.5816 152.8 50.6847C152.852 50.7835 152.913 50.8737 152.983 50.9596L153.04 51.0327C153.048 51.0413 153.057 51.0499 153.066 51.0584L153.162 51.1744L153.323 51.2947C153.371 51.3334 153.423 51.3678 153.471 51.3978C153.567 51.458 153.663 51.5052 153.764 51.5482C153.829 51.574 153.895 51.5998 153.964 51.6212L154.108 51.6599C154.213 51.69 154.313 51.7115 154.418 51.7244C154.531 51.7372 154.645 51.7458 154.758 51.7458C154.876 51.7501 154.989 51.7415 155.103 51.7329C155.212 51.7201 155.321 51.7029 155.426 51.6771L155.478 51.6642C155.587 51.6384 155.692 51.5998 155.796 51.5611C155.875 51.5267 155.953 51.4967 156.027 51.458L156.11 51.4107C156.215 51.3549 156.315 51.2904 156.407 51.2217C156.503 51.1487 156.599 51.067 156.686 50.9811L156.695 50.9682C156.778 50.8823 156.856 50.7921 156.922 50.6933C156.996 50.5902 157.057 50.4785 157.109 50.3668C157.166 50.2465 157.214 50.1262 157.249 49.9973C157.275 49.92 157.323 49.7868 157.332 49.7052L157.336 49.645L157.454 48.3175L157.493 48.3218C157.541 47.9051 157.598 47.4884 157.65 47.0673C157.763 46.2425 157.881 45.4176 158.012 44.597C158.134 43.7894 158.269 42.986 158.409 42.1826C158.535 41.4738 158.662 40.7692 158.81 40.0646L158.849 39.8799C159.002 39.1452 159.155 38.4149 159.312 37.6846C159.478 36.9027 159.648 36.1208 159.822 35.3432C159.984 34.5913 160.149 33.8395 160.319 33.092C160.485 32.3745 160.651 31.6614 160.821 30.9439L160.852 30.7978C161.017 30.089 161.179 29.3801 161.336 28.6712C161.501 27.9151 161.663 27.1547 161.824 26.3986C161.981 25.6425 162.138 24.882 162.291 24.1259C162.439 23.3612 162.588 22.5965 162.731 21.8318C162.88 21.0499 163.011 20.268 163.137 19.4861C163.264 18.6827 163.381 17.875 163.486 17.0674C163.599 16.2296 163.7 15.3919 163.791 14.5541C163.879 13.7636 163.983 12.9645 164.031 12.1655L164.036 12.0022C164.04 11.8862 164.031 11.7702 164.014 11.6542C163.996 11.5425 163.966 11.4308 163.922 11.3277L163.892 11.2504Z" fill="#CFB595"/>
<path fill-rule="evenodd" clip-rule="evenodd" d="M99.6775 17.3894C99.6731 17.8791 99.5815 18.3646 99.5335 18.85C99.4768 19.3613 99.4201 19.8768 99.3634 20.3881C99.3067 20.8778 99.25 21.3676 99.1889 21.8573C99.1279 22.3772 99.0625 22.9013 98.997 23.4254C98.9316 23.9453 98.8618 24.4694 98.792 24.9892C98.7222 25.4876 98.6481 25.9816 98.5696 26.4757C98.5434 26.639 98.5172 26.7979 98.4911 26.9612L98.0244 29.8224L96.1793 27.5626C96.0877 27.4466 95.9918 27.3306 95.9046 27.2146C95.6821 26.9268 95.4771 26.6304 95.2765 26.3253L95.2677 26.321L95.1979 26.2136C94.9886 25.8957 94.7879 25.5692 94.596 25.2427C94.3867 24.8904 94.1817 24.5295 93.9854 24.1644C93.7847 23.7863 93.5928 23.404 93.4096 23.0173C93.2221 22.6221 93.0389 22.2225 92.8644 21.8144C92.6856 21.4062 92.5155 20.9938 92.3497 20.5814C92.1796 20.1561 92.0139 19.7265 91.8525 19.2968C91.6867 18.8586 91.5254 18.4204 91.3727 17.9822C91.22 17.5483 91.0717 17.1144 90.9322 16.6805C90.7926 16.2466 90.653 15.8084 90.5178 15.3745C90.3782 14.9234 90.2386 14.4766 90.1034 14.0255C89.9726 13.5959 89.8504 13.1705 89.724 12.7409C89.5975 12.2984 89.471 11.8516 89.3488 11.4091L88.7905 9.38134H88.7862L88.3282 7.72733C88.2235 7.34927 88.1188 6.9755 88.0141 6.60174L87.9923 6.533C87.9531 6.41271 87.9007 6.29242 87.844 6.18072C87.7873 6.06042 87.7175 5.94872 87.6434 5.84132C87.5736 5.73821 87.4951 5.6437 87.4079 5.55348C87.3206 5.46756 87.2116 5.39023 87.1156 5.31719L87.1025 5.3086L87.072 5.28282C87.0153 5.24416 86.9019 5.1969 86.8365 5.17112C86.7362 5.12386 86.6358 5.0895 86.5312 5.06372C86.4265 5.03365 86.3174 5.01646 86.2127 5.00787C86.1037 4.99928 85.9947 4.99498 85.8856 5.00357C85.7766 5.01217 85.6675 5.02935 85.5585 5.05083C85.4494 5.07661 85.3448 5.10668 85.2357 5.14535C85.131 5.18831 85.0307 5.23127 84.9304 5.28282C84.8562 5.32149 84.7821 5.36445 84.7079 5.40741L84.5902 5.48904L84.5509 5.51052C84.4899 5.54918 84.4113 5.63081 84.359 5.67807C84.2718 5.75969 84.1933 5.84562 84.1191 5.93584C84.0668 6.00028 84.0144 6.07331 83.9708 6.14205L83.8443 6.33538L83.744 6.55448C83.6917 6.66618 83.6524 6.78218 83.6219 6.90247C83.587 7.03135 83.5652 7.16024 83.5521 7.28912C83.539 7.4223 83.5346 7.55548 83.539 7.68866C83.5477 7.83473 83.5608 7.9808 83.587 8.12687V8.13117C83.7527 8.70255 83.9185 9.27394 84.0799 9.84533C84.2281 10.3652 84.3764 10.8893 84.5247 11.4091C84.6905 11.9934 84.8519 12.5777 85.0176 13.1619L85.2357 13.9396L85.4058 14.5668C85.5454 15.0694 85.6893 15.5721 85.8333 16.0704C85.9816 16.5774 86.1342 17.0843 86.2913 17.5913C86.4439 18.0853 86.6009 18.5794 86.7623 19.0691C86.9019 19.5031 87.0458 19.937 87.1941 20.3666L87.2639 20.5685C87.4122 20.9938 87.5736 21.4148 87.735 21.8359C87.9138 22.287 88.097 22.7338 88.2889 23.1806C88.4809 23.6188 88.6771 24.0527 88.8821 24.4823C89.0741 24.8818 89.2747 25.2814 89.4797 25.6766L89.5669 25.8399C89.7719 26.2265 89.99 26.6046 90.2212 26.9826C90.4611 27.3779 90.7141 27.7688 90.9801 28.1469C91.2462 28.5336 91.5254 28.9073 91.8132 29.2725C92.0095 29.5217 92.2058 29.7622 92.4108 29.9985L92.5373 30.1446L92.7248 30.3594C93.0389 30.716 93.3704 31.064 93.7106 31.3991C94.0639 31.7385 94.4259 32.0693 94.801 32.3872C95.1325 32.6664 95.4684 32.9371 95.8173 33.1992C96.0659 33.3882 96.3189 33.5729 96.5763 33.7491L97.2523 34.2174L97.1128 35.0207C97.0953 35.1324 97.0735 35.2441 97.0517 35.3558C97.0124 35.5534 96.9732 35.7554 96.9296 35.953C96.8947 36.1077 96.8554 36.2623 96.8162 36.4213L96.742 36.7263C96.7028 36.8853 96.6635 37.0442 96.6199 37.2032C96.5632 37.4094 96.5021 37.6156 96.441 37.8218C96.3756 38.0323 96.3102 38.2385 96.2404 38.4448C96.1968 38.5865 96.1488 38.7283 96.0965 38.8701L96.0354 39.0462C95.9613 39.2438 95.8915 39.4458 95.813 39.6391C95.7432 39.8281 95.6647 40.0128 95.5861 40.1933C95.5076 40.3737 95.4291 40.5542 95.3462 40.7346C95.2677 40.8979 95.1805 41.0611 95.0976 41.2244L94.7269 41.959H94.6876C94.644 42.032 94.6004 42.1008 94.5524 42.1695C94.4695 42.3027 94.3823 42.4316 94.2907 42.5562C94.1991 42.6808 94.1119 42.801 94.0028 42.917C93.7368 43.2135 93.8763 43.0588 93.6495 43.2435C93.5361 43.3381 93.4227 43.424 93.3006 43.5056C93.0345 43.6775 93.1959 43.5829 92.9429 43.7075C92.8033 43.772 92.8819 43.7376 92.7466 43.7935L92.5286 43.8794L92.3628 44.3219L91.1154 43.8407L91.1023 43.8364C90.9714 43.7892 90.9583 43.7892 90.7969 43.6903C90.6312 43.5829 90.6443 43.5915 90.5091 43.4669C90.5047 43.4669 90.5047 43.4627 90.5003 43.4584L90.2299 43.5486L89.8156 42.3242C89.7588 42.1609 89.7109 41.9934 89.6716 41.8258C89.6236 41.6282 89.5844 41.4263 89.5495 41.2287C89.5102 40.9924 89.4666 40.7905 89.4579 40.5542C89.4317 40.3179 89.4099 40.0859 89.3925 39.8496C89.3707 39.6004 89.3576 39.3512 89.3488 39.1021C89.3401 38.8357 89.3358 38.565 89.3358 38.2944C89.3358 37.9894 89.3139 37.7187 89.3445 37.418C89.3358 37.2504 89.3009 37.0829 89.2921 36.9067C89.2747 36.8423 89.2398 36.765 89.218 36.7005C89.1787 36.5931 89.1308 36.4814 89.0741 36.3826C89.013 36.2795 88.9476 36.185 88.8691 36.0948C88.7905 36.0045 88.712 35.9186 88.6248 35.8413C88.5376 35.764 88.4503 35.6909 88.3587 35.6265L88.193 35.5105L87.988 35.4074C87.9007 35.3687 87.8135 35.3386 87.7263 35.2957C87.6216 35.2613 87.5169 35.2269 87.4122 35.2012C87.3032 35.1754 87.1898 35.1539 87.0807 35.141C86.9717 35.1281 86.8583 35.1152 86.7492 35.1152C86.6358 35.1152 86.5268 35.1281 86.4177 35.141C86.3262 35.1539 86.2302 35.1668 86.1342 35.1926L86.0906 35.2055C85.9903 35.2312 85.8943 35.2699 85.8027 35.3129C85.7286 35.3429 85.6588 35.3816 85.5934 35.4246L85.4145 35.5363L85.2968 35.6523C85.2226 35.7253 85.1616 35.8069 85.1092 35.8928C85.0482 35.9874 85.0002 36.0905 84.9653 36.1979C84.926 36.3096 84.8999 36.4213 84.8824 36.5373C84.865 36.649 84.8519 36.7607 84.8475 36.8724C84.8999 37.2461 84.8693 37.5597 84.8868 37.9292C84.8999 38.2428 84.9173 38.5565 84.9348 38.8744C84.9566 39.1837 84.9784 39.493 85.0045 39.8023C85.0307 40.1031 85.0612 40.4038 85.0961 40.7045L85.1354 41.0611L85.1746 41.3318C85.1877 41.4134 85.1965 41.495 85.2095 41.5723L85.2532 41.8344C85.2837 42.0234 85.3229 42.2082 85.3622 42.3972C85.4189 42.6593 85.48 42.9256 85.5541 43.1834C85.6195 43.4197 85.6893 43.6517 85.7678 43.8837C85.8856 44.1414 85.9598 44.3992 86.0775 44.6527C86.1822 44.8761 86.3043 45.0909 86.4308 45.3014C86.5617 45.5162 86.7013 45.7181 86.8496 45.9157C86.9979 46.1048 87.168 46.2852 87.3294 46.4657C87.5125 46.6203 87.6914 46.7922 87.8833 46.9296C88.0752 47.0671 88.2802 47.196 88.4852 47.3077C88.6946 47.4194 88.9083 47.5182 89.1264 47.6041C89.3532 47.6901 89.5887 47.7545 89.8199 47.8232L89.8679 47.8361C90.086 47.8963 90.3215 47.9306 90.5483 47.9607C90.7926 47.9908 91.0412 48.0123 91.2898 48.0166C91.5341 48.0252 91.7783 48.0166 92.0226 47.9994C92.0924 47.9951 92.1622 47.9865 92.232 47.9779L92.4937 47.9478L92.7728 47.9006C93.0258 47.8576 93.2744 47.7975 93.5187 47.7287L93.7062 47.6772C93.8894 47.617 94.0726 47.5526 94.2558 47.4795C94.4957 47.385 94.7269 47.2733 94.9581 47.153C95.1369 47.0585 95.3114 46.9597 95.4858 46.8523L95.6559 46.7406C95.8478 46.616 96.0354 46.4828 96.2142 46.3411C96.3974 46.1993 96.5763 46.0446 96.7464 45.8814C96.9208 45.7181 97.0866 45.542 97.2436 45.3615C97.405 45.1768 97.5577 44.9835 97.7016 44.7859L97.8891 44.5324L98.0505 44.2918C98.0767 44.2445 98.1072 44.2016 98.1378 44.1586C98.2773 43.9395 98.4126 43.7204 98.539 43.4927C98.6699 43.2607 98.7964 43.0201 98.9142 42.7796C99.0363 42.539 99.1541 42.2898 99.2631 42.0406C99.3721 41.7915 99.4768 41.538 99.5771 41.2845C99.6818 41.0138 99.7821 40.7432 99.8781 40.4725C99.9741 40.2019 100.07 39.9269 100.157 39.6563C100.179 39.5789 100.205 39.5059 100.227 39.4286L100.327 39.115L100.41 38.8271C100.489 38.5522 100.563 38.2772 100.637 38.0023C100.711 37.723 100.781 37.4438 100.851 37.1602C100.894 36.9755 100.934 36.7907 100.977 36.606C100.986 36.5716 100.995 36.533 100.999 36.4986L101.191 35.6222L102.09 35.489C102.151 35.4804 102.207 35.4718 102.268 35.4589C102.43 35.4289 102.591 35.3859 102.744 35.3301C102.848 35.2914 102.997 35.2398 103.088 35.1797L103.106 35.1668C103.237 35.0852 103.372 34.995 103.49 34.8961C103.586 34.8145 103.673 34.7243 103.751 34.6255C103.83 34.5267 103.9 34.4236 103.956 34.3119C104.004 34.2131 104.044 34.1142 104.074 34.0111C104.096 33.878 104.126 33.7319 104.131 33.603C104.131 33.4827 104.122 33.3581 104.096 33.2421C104.074 33.1132 104.035 32.9929 103.987 32.8727C103.93 32.7395 103.865 32.6149 103.791 32.4903L103.66 32.2884L103.511 32.1165C103.402 31.9962 103.28 31.8845 103.154 31.7814C103.08 31.717 103.001 31.6611 102.923 31.6096L102.233 31.1284L102.456 29.9814C102.508 29.7236 102.556 29.4615 102.604 29.2038C102.665 28.8472 102.731 28.4906 102.792 28.134C102.848 27.8032 102.901 27.4681 102.953 27.133L102.988 26.9311L102.992 26.9225C103.04 26.596 103.088 26.2738 103.136 25.9473C103.197 25.5305 103.254 25.1138 103.311 24.6928C103.372 24.2847 103.424 23.8765 103.481 23.4684C103.533 23.0774 103.586 22.6865 103.634 22.2913L103.69 21.8745C103.935 19.851 104.179 17.8233 104.419 15.7998C104.488 15.194 104.558 14.5926 104.632 13.9911C104.711 13.3166 104.794 12.6421 104.877 11.9676C105.029 10.6831 105.186 9.39853 105.343 8.11398L105.4 7.65429L105.404 7.63281V7.60274C105.404 7.47815 105.404 7.34497 105.387 7.22038C105.374 7.10868 105.348 6.99698 105.317 6.88958C105.291 6.79936 105.256 6.70914 105.217 6.62322L105.125 6.43419L105.008 6.28382C104.938 6.1936 104.864 6.10768 104.785 6.02605C104.724 5.97021 104.663 5.91436 104.602 5.85851L104.519 5.79836C104.427 5.72532 104.336 5.66088 104.235 5.60074C104.135 5.54059 104.03 5.48474 103.921 5.43319L103.699 5.33438L103.498 5.27423C103.42 5.25275 103.346 5.23127 103.267 5.21408C103.158 5.1926 103.049 5.17542 102.936 5.16253C102.84 5.15394 102.748 5.14535 102.652 5.14535C102.526 5.15823 102.404 5.16253 102.277 5.17971C102.177 5.1969 102.081 5.22268 101.985 5.25705C101.889 5.29141 101.789 5.33008 101.697 5.37734C101.618 5.4203 101.544 5.46756 101.47 5.52341C101.396 5.59644 101.296 5.68236 101.235 5.76399C101.169 5.84562 101.117 5.94013 101.073 6.03465V6.03894L101.043 6.12057C101.012 6.1936 100.986 6.27523 100.969 6.35256C100.938 6.47715 100.916 6.60603 100.907 6.73492V6.74781C100.873 7.15594 100.785 7.534 100.729 7.93354C100.668 8.33308 100.615 8.73263 100.563 9.13217C100.506 9.56178 100.449 9.9914 100.402 10.421C100.349 10.8592 100.301 11.2931 100.253 11.7313C100.188 12.3843 100.118 13.0374 100.053 13.6904C99.9828 14.3906 99.913 15.0909 99.8389 15.7955L99.6775 17.3894ZM99.2631 8.96891C99.3285 8.48775 99.3852 8.07961 99.4332 7.74881C99.4768 7.43519 99.5335 7.06572 99.6033 6.6404V6.62752C99.6208 6.4256 99.6513 6.23657 99.6949 6.05613C99.7254 5.91865 99.7691 5.78547 99.8214 5.65659V5.6437L99.8737 5.51481C99.9566 5.33008 100.061 5.15394 100.188 4.99068C100.301 4.84032 100.428 4.70714 100.572 4.58685L100.58 4.57825L100.607 4.55248L100.641 4.5267C100.781 4.4193 100.925 4.32478 101.073 4.24316C101.217 4.16582 101.379 4.09709 101.557 4.03694C101.727 3.98109 101.893 3.93813 102.055 3.90806C102.199 3.88228 102.351 3.86939 102.517 3.8608L102.561 3.8565H102.6C102.748 3.8565 102.905 3.86509 103.071 3.88228C103.237 3.89946 103.398 3.92094 103.546 3.95531C103.655 3.97679 103.769 4.00687 103.878 4.04124L103.895 4.00257L104.471 4.26464C104.624 4.33337 104.772 4.41071 104.916 4.50092C105.056 4.58255 105.195 4.67707 105.33 4.78447H105.335C105.466 4.88758 105.592 4.99928 105.714 5.12386C105.836 5.24416 105.95 5.37304 106.05 5.50622L106.46 6.03465L106.399 6.07331C106.469 6.21938 106.525 6.36975 106.573 6.52441C106.626 6.70485 106.665 6.88528 106.687 7.06572C106.709 7.23327 106.717 7.41801 106.713 7.61563V7.61992L106.709 7.67577V7.71874V7.73162L106.704 7.74451V7.74881L106.643 8.26864C106.477 9.62193 106.32 10.9065 106.176 12.1223C106.072 12.9643 105.989 13.6646 105.932 14.1415C105.854 14.7816 105.784 15.3831 105.718 15.9459C105.435 18.3732 105.195 20.3279 104.986 22.0378L104.968 22.1881L104.964 22.2397L104.938 22.4545L104.933 22.4588C104.898 22.7338 104.846 23.1333 104.776 23.6359C104.715 24.1085 104.659 24.5167 104.611 24.8689C104.532 25.406 104.475 25.8227 104.432 26.132C104.366 26.5659 104.314 26.9225 104.27 27.2189L104.253 27.322L104.249 27.3349C104.183 27.7345 104.131 28.0696 104.083 28.3488C104.03 28.6495 103.965 29.0104 103.891 29.4314C103.83 29.7665 103.778 30.0286 103.743 30.2219L103.677 30.5527C103.799 30.6387 103.904 30.716 103.991 30.7847C104.17 30.9351 104.34 31.0984 104.497 31.2702L104.51 31.2874L104.554 31.2616L104.898 31.8115C105.021 32.0005 105.117 32.1939 105.199 32.3915C105.282 32.5934 105.343 32.7953 105.383 32.9972C105.422 33.2035 105.439 33.414 105.439 33.6288C105.435 33.8393 105.409 34.0455 105.361 34.2431L105.356 34.2818L105.352 34.2904C105.3 34.4966 105.226 34.6942 105.13 34.8833C105.034 35.0723 104.92 35.2527 104.781 35.4246C104.65 35.5835 104.506 35.7339 104.349 35.8671C104.192 36.0045 104.017 36.1248 103.834 36.2408L103.817 36.2494C103.625 36.3611 103.415 36.4599 103.197 36.5373C102.984 36.6146 102.761 36.679 102.521 36.7263C102.443 36.7392 102.36 36.7521 102.281 36.765C102.273 36.8079 102.264 36.8466 102.255 36.881C102.216 37.0657 102.168 37.259 102.124 37.4566C102.063 37.7101 101.989 38.0023 101.902 38.3245C101.819 38.6381 101.741 38.9216 101.666 39.1837L101.488 39.8066H101.479C101.453 39.8883 101.431 39.9656 101.405 40.0429C101.322 40.2964 101.226 40.5799 101.112 40.8979C101.012 41.1857 100.903 41.4692 100.794 41.7485C100.676 42.0492 100.567 42.3199 100.463 42.5519C100.358 42.7925 100.236 43.0588 100.092 43.3467C99.9566 43.6173 99.8214 43.8751 99.6818 44.12C99.5423 44.3648 99.394 44.6097 99.2369 44.8503C99.2064 44.9019 99.1759 44.9491 99.141 44.9964L99.1541 45.005L98.7659 45.5377C98.6045 45.7611 98.4256 45.9802 98.2381 46.1993C98.0505 46.4141 97.8586 46.616 97.658 46.8093C97.4661 46.9941 97.2567 47.1745 97.0342 47.3464C96.8118 47.5225 96.5937 47.6772 96.3713 47.8232C96.1183 47.9908 95.8478 48.1454 95.5731 48.2915C95.2895 48.4419 95.0148 48.5665 94.7487 48.6739C94.4652 48.7899 94.1773 48.8887 93.8851 48.9703V48.966C93.5754 49.0562 93.2831 49.1207 92.9953 49.1722L92.3846 49.2796L92.3803 49.2581C92.293 49.271 92.2102 49.2753 92.1273 49.2839C91.8438 49.3054 91.5559 49.314 91.2549 49.3054C90.954 49.2968 90.6574 49.2753 90.3739 49.2367C90.0773 49.198 89.7894 49.1422 89.5059 49.0734L89.4579 49.0605C89.1787 48.9875 88.9083 48.9016 88.651 48.8028C88.3849 48.6996 88.1188 48.5794 87.8571 48.4376C87.5954 48.2958 87.3468 48.1412 87.1113 47.9693C86.8757 47.8018 86.6489 47.6127 86.4308 47.4108L86.4177 47.3979L86.3916 47.3721L86.3785 47.3593C86.1735 47.1444 85.9816 46.921 85.8071 46.6934C85.6326 46.4657 85.4669 46.2251 85.3099 45.9673C85.1528 45.7095 85.0133 45.4518 84.8911 45.194C84.7734 44.9405 84.66 44.6613 84.5509 44.3648V44.3605L84.5466 44.352V44.3477C84.4506 44.0598 84.3634 43.7849 84.2892 43.5228C84.2194 43.2607 84.1496 42.9729 84.0799 42.6636C84.0144 42.3542 83.9621 42.0578 83.9141 41.77H83.9185C83.9054 41.684 83.8923 41.5981 83.8792 41.5122H83.8705L83.7963 40.8463C83.7571 40.5198 83.7265 40.2062 83.7004 39.9097C83.6786 39.6262 83.6524 39.304 83.6306 38.9517C83.6131 38.6639 83.5957 38.3416 83.5782 37.9808C83.5652 37.68 83.5564 37.3535 83.5477 37.0055L83.539 36.9669V36.9239C83.539 36.7306 83.5564 36.5373 83.587 36.3354C83.6219 36.1334 83.6655 35.9487 83.7265 35.7769C83.7963 35.5792 83.8836 35.3945 83.9926 35.2226C84.1017 35.0422 84.2281 34.8833 84.3721 34.7415L84.8344 34.2861L84.8868 34.3376C85.0002 34.2646 85.1223 34.2002 85.2444 34.1443C85.4058 34.0713 85.5672 34.0111 85.733 33.9639C85.89 33.9209 86.0644 33.8865 86.252 33.8608C86.4308 33.8393 86.5966 33.8264 86.7492 33.8264C86.9019 33.8264 87.0633 33.8393 87.2421 33.8608C87.4166 33.8822 87.578 33.9123 87.7306 33.951C87.8789 33.9897 88.0403 34.0369 88.2061 34.0971L88.241 34.1099L88.254 34.1185C88.3631 34.1615 88.4634 34.2045 88.5594 34.2517L88.5943 34.2045L89.122 34.5782C89.2529 34.6727 89.3837 34.7758 89.5146 34.8961C89.6411 35.0121 89.7588 35.1324 89.8679 35.2613C89.9987 35.4117 90.1121 35.5706 90.2081 35.7425C90.3084 35.9143 90.3869 36.0905 90.4567 36.2795C90.5178 36.4599 90.5701 36.649 90.6007 36.8337V36.838C90.6312 37.0184 90.6486 37.2161 90.653 37.4223L90.6574 37.4352V37.4695L90.653 37.4867C90.6486 37.7703 90.6443 38.0409 90.6443 38.2944C90.6443 38.5522 90.6486 38.8056 90.6574 39.0591C90.6617 39.2739 90.6748 39.5059 90.6966 39.7551C90.7141 39.9828 90.7359 40.2062 90.762 40.4253L90.7664 40.4682V40.4897C90.7839 40.6702 90.81 40.8463 90.8406 41.0138C90.8711 41.2029 90.906 41.3704 90.9409 41.5208C90.9801 41.6669 91.015 41.8 91.0586 41.9203C91.0935 42.0234 91.1328 42.1265 91.1764 42.2254C91.22 42.2941 91.2593 42.3542 91.2942 42.4015C91.3291 42.4488 91.3683 42.496 91.412 42.5347C91.4381 42.5605 91.4643 42.5819 91.4948 42.5991C91.5123 42.612 91.5384 42.6206 91.5646 42.6292L91.5821 42.6378L91.5908 42.6421C91.6388 42.6593 91.678 42.6679 91.7173 42.6765C91.7609 42.685 91.8001 42.6893 91.8307 42.6893C91.8699 42.6893 91.9179 42.685 91.9746 42.6765C92.0313 42.6679 92.0924 42.6507 92.1534 42.6292L92.2581 42.5991C92.293 42.5862 92.3279 42.5691 92.3628 42.5519C92.4282 42.5218 92.498 42.4788 92.5765 42.4273C92.655 42.38 92.7292 42.3199 92.8077 42.2554C92.8862 42.191 92.9604 42.1265 93.0302 42.0578C93.0956 41.9762 93.161 41.8903 93.2264 41.8C93.2962 41.7098 93.3704 41.6024 93.4532 41.4735C93.5361 41.3447 93.6146 41.2158 93.6888 41.0869C93.7586 40.9666 93.8327 40.8291 93.9156 40.6702L93.92 40.6616L93.9287 40.6487C94.0072 40.5026 94.0813 40.3479 94.1599 40.1847C94.234 40.0257 94.3082 39.8625 94.3823 39.6949C94.4565 39.5188 94.5262 39.3469 94.5917 39.1794C94.644 39.0462 94.7138 38.8529 94.801 38.6123L94.8665 38.4362C94.9057 38.3202 94.9537 38.187 94.9973 38.0452C95.0584 37.8605 95.1238 37.6629 95.1849 37.4523C95.2459 37.259 95.3026 37.0657 95.355 36.8681C95.4073 36.6747 95.4553 36.4771 95.5033 36.2838L95.5076 36.2795V36.2666V36.2623C95.5687 36.026 95.6167 35.8284 95.6516 35.6737C95.6908 35.5019 95.7301 35.3172 95.7693 35.1152C95.7824 35.0293 95.8042 34.9262 95.826 34.8016C95.5513 34.6126 95.2852 34.4193 95.0191 34.2216C94.6527 33.9467 94.2951 33.6589 93.9461 33.3624C93.5448 33.023 93.161 32.675 92.7903 32.3142C92.4239 31.9533 92.0706 31.5838 91.7391 31.2058L91.412 30.832C91.1895 30.5742 90.9801 30.3165 90.7795 30.063C90.4829 29.6849 90.1863 29.2897 89.9028 28.8772C89.628 28.482 89.3576 28.0739 89.0959 27.6443C88.8603 27.2576 88.6335 26.8538 88.4111 26.4413L88.4023 26.4327L88.3587 26.3511C88.1406 25.9344 87.9226 25.4919 87.7001 25.0322C87.482 24.5725 87.277 24.1257 87.0851 23.6832C86.8932 23.2364 86.7013 22.7724 86.5137 22.2956C86.3218 21.8015 86.1473 21.3332 85.9903 20.8864L85.9554 20.7876V20.779C85.8202 20.3795 85.6719 19.9413 85.5149 19.4644C85.3666 19.0047 85.2095 18.5064 85.0394 17.9693C84.8868 17.471 84.7341 16.9597 84.5771 16.427C84.4026 15.8384 84.2587 15.3272 84.1453 14.9019L83.9708 14.2747L83.7571 13.5056C83.6131 12.9944 83.4518 12.4273 83.2642 11.7528C83.1639 11.3962 83.0199 10.8936 82.8193 10.1933C82.6623 9.6477 82.5009 9.08061 82.3264 8.47915L82.3177 8.44478L82.309 8.41901L82.3003 8.37175L82.2959 8.33738C82.261 8.13976 82.2436 7.93784 82.2348 7.74022C82.2261 7.54259 82.2305 7.34927 82.2479 7.16024C82.2697 6.95832 82.3046 6.76499 82.357 6.57596C82.4093 6.38263 82.4747 6.1979 82.5532 6.02605L82.8237 5.42889L82.8673 5.44608C82.9414 5.33867 83.0156 5.23127 83.0941 5.13246C83.2075 4.99498 83.3296 4.8661 83.4605 4.74151C83.5913 4.62122 83.7309 4.50952 83.8748 4.40641L83.8879 4.40211L83.8923 4.39782C84.0319 4.3033 84.1714 4.21738 84.3197 4.14434C84.4637 4.06701 84.6163 3.99828 84.7777 3.93813C84.9391 3.88228 85.1049 3.83073 85.275 3.79636C85.4494 3.75769 85.6239 3.73191 85.7897 3.71903C85.9641 3.70614 86.143 3.70614 86.3305 3.72332C86.5137 3.74051 86.6925 3.77058 86.8626 3.81354C87.0328 3.8608 87.2029 3.91665 87.3686 3.99398C87.5387 4.06701 87.6957 4.14864 87.844 4.24316L87.8833 4.27323L87.9007 4.28612C88.0578 4.39352 88.2061 4.51811 88.3413 4.65129C88.4809 4.79306 88.6073 4.94343 88.7251 5.11098C88.8342 5.26993 88.9301 5.43748 89.0217 5.61363C89.1046 5.78547 89.1831 5.9745 89.2529 6.17642L89.266 6.21938L89.2747 6.25805C89.3794 6.62752 89.4841 7.00558 89.5887 7.38793L89.785 8.0925H89.7894L89.9202 8.56937L90.6138 11.0697C90.7402 11.5423 90.8667 11.9805 90.9845 12.3886C91.1241 12.8784 91.2506 13.2994 91.3596 13.656C91.4992 14.1243 91.6344 14.5711 91.7696 14.9964C91.9223 15.4905 92.0619 15.9201 92.1796 16.2895C92.3148 16.7106 92.4588 17.1316 92.6071 17.5612C92.7379 17.935 92.8949 18.3646 93.0781 18.85C93.257 19.3226 93.4184 19.7436 93.5667 20.1088C93.7324 20.5169 93.8981 20.9165 94.0683 21.3117C94.2296 21.6941 94.4085 22.0764 94.596 22.4717C94.7836 22.8626 94.9668 23.2278 95.1456 23.5672C95.3157 23.8894 95.5076 24.2288 95.7257 24.594C95.922 24.9248 96.1139 25.2298 96.2971 25.5134L96.3058 25.5177L96.3364 25.5735C96.5414 25.8828 96.7464 26.175 96.947 26.437C97.0299 26.5487 97.1171 26.6518 97.2 26.7549C97.2305 26.5788 97.2567 26.4156 97.2785 26.2781C97.3439 25.8442 97.4181 25.3544 97.4922 24.8131C97.5577 24.362 97.6274 23.8465 97.6972 23.2665C97.7714 22.6908 97.8368 22.1624 97.8891 21.7027C97.9589 21.1442 98.0156 20.6544 98.0636 20.2463C98.1247 19.6749 98.1814 19.1637 98.2294 18.7169C98.2861 18.2013 98.334 17.7373 98.3689 17.3335V17.3206L98.3733 17.2691L98.539 15.6666C98.6088 14.9491 98.683 14.2403 98.7528 13.5615C98.8269 12.8183 98.8967 12.1481 98.9534 11.6024C99.0058 11.1127 99.0537 10.6702 99.1017 10.2706C99.141 9.91406 99.1977 9.48015 99.2631 8.96891Z" fill="#CFB595"/>
<path fill-rule="evenodd" clip-rule="evenodd" d="M29.8599 19.4902C29.7247 19.4129 29.5807 19.3355 29.4368 19.2496C28.5208 18.7212 27.6223 18.1369 26.7979 17.471C25.1405 16.1306 23.6226 14.2618 23.9148 12.0149C24.0326 11.0869 24.46 10.2492 25.2713 9.72506C26.8895 8.68539 29.0137 9.50166 30.5752 10.2449C31.4388 10.653 32.2588 11.1428 33.1181 11.5509C34.3307 12.1266 35.552 12.6894 36.782 13.235C39.8832 14.6098 42.0073 15.4604 44.1228 18.2529C45.9504 20.6673 46.8925 23.5458 47.2633 26.5058C47.4901 28.3145 47.5511 30.9566 47.1193 32.718C45.8631 37.882 43.2243 41.9375 38.5921 44.7773L38.4176 44.8847L35.9009 45.7482C35.565 45.8642 35.2641 45.9072 34.9282 45.9888C32.9654 46.4786 30.7322 46.3497 28.6517 45.7568L26.9768 46.3411C26.5057 46.5043 26.1131 46.5129 25.6246 46.5C22.096 46.4098 18.6938 46.079 15.2088 45.5291C12.692 45.1296 10.3759 44.7214 8.59198 42.7151C7.43612 41.4134 6.76877 39.347 8.05548 37.8906C8.2474 37.6758 8.46549 37.4996 8.69666 37.3622C8.44804 37.2934 8.20378 37.229 7.96389 37.1602C7.42739 37.0142 6.92143 36.9196 6.3893 36.7263C5.27269 36.3225 4.27385 35.5707 3.62831 34.5783C2.97841 33.5772 2.71234 32.3357 3.14852 31.1972C3.34043 30.6945 3.64139 30.2821 4.01214 29.9556C3.26628 29.6506 2.58149 29.2081 2.03191 28.6066C1.19881 27.6872 0.767001 26.4585 1.03743 25.2298C1.51286 23.1033 3.57597 22.287 5.56929 22.2569C5.13311 21.4879 4.96737 20.5986 5.16801 19.7179C5.71323 17.2992 8.26921 16.5173 10.4937 16.9039L17.4812 18.1068C18.6458 18.3088 19.8409 18.4548 21.0186 18.5493L28.4292 19.1465L27.9974 19.6019C28.4685 19.546 28.9395 19.5117 29.415 19.4988C29.5633 19.4945 29.7116 19.4902 29.8599 19.4902ZM37.6194 43.2393C42.1775 40.4425 44.2973 36.5373 45.331 32.297C45.693 30.8062 45.6232 28.1985 45.4357 26.7292C45.1347 24.3019 44.3758 21.6211 42.6485 19.3398C40.7773 16.861 38.8974 16.1607 36.023 14.889C34.7799 14.3348 33.5456 13.7677 32.3155 13.1792C30.5447 12.3371 26.1044 9.43292 25.738 12.2426C25.4414 14.5453 28.4554 16.5817 30.3702 17.6901C31.766 18.4978 32.6078 18.7513 34.0341 19.1766C42.2254 21.6254 42.7619 31.4034 39.5037 36.4771C38.06 38.724 35.9358 40.3136 33.9468 40.6917C30.5708 41.3318 26.305 39.2439 25.3324 35.7124C25.075 34.7888 24.8918 33.719 24.8526 32.645C24.5909 25.8184 29.8032 22.7724 33.3275 25.1267C35.2466 26.4113 36.0536 28.9331 35.7177 30.9996C35.5389 32.0779 34.636 33.5386 33.7506 34.3119C33.1748 34.8145 31.308 35.7296 30.8238 34.7243C35.8137 27.2705 28.0192 24.4265 27.3519 31.601C27.2515 32.6407 27.4217 33.835 27.6834 34.6942C27.9843 35.6695 28.909 36.7822 30.2393 37.418C32.4246 38.4577 35.0809 37.9937 36.577 36.1635C38.2737 34.0885 38.7273 31.4464 38.6052 29.4186C38.4918 27.5798 37.9378 25.333 36.276 23.4942C34.4135 21.4321 31.5043 21.2473 29.4717 21.3118C25.0663 21.4492 23.9497 23.2107 23.3216 23.3309C22.5627 22.781 23.9453 21.2172 24.4862 20.6459L20.8659 20.358C19.6839 20.2635 18.323 20.1174 17.1628 19.894L10.1753 18.6868C6.19738 18.4978 5.6478 22.2268 9.49486 22.7896L14.5763 23.7563C15.7278 24.057 17.3547 24.2288 18.5368 24.3749C19.239 24.4565 19.8322 24.5468 20.5388 24.594C21.8081 24.6842 21.1713 26.0504 21.1669 26.0547C20.5257 26.987 15.1521 25.7282 13.5469 25.2943C10.0619 24.6284 7.81995 24.1988 6.07525 24.0828C1.59137 23.782 1.9185 27.9364 5.77429 28.5722C9.55157 29.1995 14.38 30.3122 18.0701 30.6945C19.0558 30.7976 20.2291 30.7676 20.6435 31.7901C20.7482 32.0478 20.8616 32.7137 20.5781 33.0617C20.0154 33.762 10.6725 31.5881 9.56465 31.2359C3.38841 29.4358 3.84203 34.0584 7.02611 35.0293C7.54516 35.2442 7.95516 35.2785 8.45677 35.416C11.4664 36.2452 15.248 37.0356 18.2314 37.375C19.5487 37.5254 20.3731 38.6553 20.1114 39.1837C19.6359 40.1375 18.4844 39.9613 17.6339 39.8367C15.754 39.5532 13.9962 39.2653 12.1032 38.8701C11.2832 38.7025 9.96157 38.4963 9.44252 39.0849C8.84496 39.7594 9.44252 40.9194 9.97902 41.5208C11.4576 43.1834 13.6778 43.4498 15.501 43.7376C19.0384 44.2961 22.1265 44.5969 25.6726 44.6871C25.9168 44.6957 26.1437 44.7086 26.3661 44.6312C25.5461 44.12 25.0314 43.7161 24.4557 43.0202C24.0849 42.5648 23.4088 41.6841 23.736 41.1642C24.6258 41.3576 24.7305 41.6712 25.4458 42.2125C27.9102 44.0856 31.6656 44.932 34.479 44.2317C34.7886 44.1544 34.9893 44.1329 35.2946 44.0384L37.6194 43.2393Z" fill="#CFB595"/>
<path fill-rule="evenodd" clip-rule="evenodd" d="M190.14 19.4902C190.288 19.4902 190.437 19.4945 190.589 19.4988C191.06 19.5117 191.536 19.546 192.007 19.6019L191.571 19.1465L198.986 18.5493C200.163 18.4548 201.354 18.3088 202.519 18.1068L209.506 16.9039C211.731 16.5173 214.291 17.2992 214.832 19.7179C215.032 20.5986 214.871 21.4879 214.435 22.2569C216.424 22.287 218.491 23.1033 218.962 25.2298C219.233 26.4585 218.801 27.6872 217.968 28.6066C217.423 29.2081 216.738 29.6506 215.988 29.9556C216.363 30.2821 216.659 30.6945 216.851 31.1972C217.292 32.3357 217.021 33.5772 216.371 34.5783C215.726 35.5707 214.727 36.3225 213.611 36.7263C213.078 36.9196 212.572 37.0142 212.036 37.1602C211.796 37.229 211.552 37.2934 211.308 37.3622C211.539 37.4996 211.752 37.6758 211.944 37.8906C213.235 39.347 212.564 41.4134 211.408 42.7151C209.624 44.7214 207.312 45.1296 204.791 45.5291C201.306 46.079 197.904 46.4098 194.375 46.5C193.887 46.5129 193.494 46.5043 193.023 46.3411L191.348 45.7568C189.268 46.3497 187.034 46.4786 185.072 45.9888C184.736 45.9072 184.435 45.8642 184.099 45.7482L181.582 44.8847L181.408 44.7773C176.776 41.9375 174.141 37.882 172.88 32.718C172.449 30.9566 172.51 28.3145 172.737 26.5058C173.107 23.5458 174.049 20.6673 175.877 18.2529C177.992 15.4604 180.117 14.6098 183.222 13.235C184.448 12.6894 185.669 12.1266 186.882 11.5509C187.741 11.1428 188.561 10.653 189.425 10.2449C190.986 9.50166 193.11 8.68539 194.728 9.72506C195.54 10.2492 195.967 11.0869 196.089 12.0149C196.133 12.3629 196.133 12.7152 196.094 13.0632C195.771 15.86 192.849 17.9307 190.563 19.2496C190.419 19.3355 190.28 19.4129 190.14 19.4902ZM182.38 43.2393C177.822 40.4425 175.703 36.5373 174.669 32.297C174.307 30.8062 174.381 28.1985 174.564 26.7292C174.865 24.3019 175.624 21.6211 177.351 19.3398C179.227 16.861 181.107 16.1607 183.977 14.889C185.224 14.3348 186.454 13.7677 187.684 13.1792C189.455 12.3371 193.895 9.43292 194.262 12.2426C194.563 14.5453 191.544 16.5817 189.63 17.6901C188.234 18.4978 187.396 18.7513 185.966 19.1766C177.774 21.6254 177.242 31.4034 180.496 36.4771C181.94 38.724 184.064 40.3136 186.053 40.6917C189.433 41.3318 193.695 39.2439 194.672 35.7124C194.925 34.7888 195.108 33.719 195.147 32.645C195.409 25.8184 190.197 22.7724 186.672 25.1267C184.753 26.4113 183.946 28.9331 184.282 30.9996C184.461 32.0779 185.364 33.5386 186.249 34.3119C186.829 34.8145 188.692 35.7296 189.18 34.7243C184.186 27.2705 191.981 24.4265 192.652 31.601C192.748 32.6407 192.578 33.835 192.316 34.6942C192.02 35.6695 191.095 36.7822 189.76 37.418C187.575 38.4577 184.919 37.9937 183.423 36.1635C181.726 34.0885 181.272 31.4464 181.395 29.4186C181.508 27.5798 182.062 25.333 183.724 23.4942C185.586 21.4321 188.5 21.2473 190.528 21.3118C194.933 21.4492 196.054 23.2107 196.678 23.3309C197.437 22.781 196.054 21.2172 195.514 20.6459L199.134 20.358C200.316 20.2635 201.677 20.1174 202.837 19.894L209.825 18.6868C213.802 18.4978 214.356 22.2268 210.505 22.7896L205.428 23.7563C204.276 24.057 202.645 24.2288 201.463 24.3749C200.761 24.4565 200.168 24.5468 199.461 24.594C198.192 24.6842 198.829 26.0504 198.833 26.0547C199.478 26.987 204.848 25.7282 206.453 25.2943C209.942 24.6284 212.18 24.1988 213.925 24.0828C218.408 23.782 218.081 27.9364 214.226 28.5722C210.448 29.1995 205.62 30.3122 201.93 30.6945C200.944 30.7976 199.775 30.7676 199.361 31.7901C199.252 32.0478 199.138 32.7137 199.422 33.0617C199.984 33.762 209.327 31.5881 210.435 31.2359C216.611 29.4358 216.158 34.0584 212.974 35.0293C212.459 35.2442 212.045 35.2785 211.543 35.416C208.533 36.2452 204.752 37.0356 201.773 37.375C200.451 37.5254 199.627 38.6553 199.888 39.1837C200.364 40.1375 201.52 39.9613 202.37 39.8367C204.246 39.5532 206.008 39.2653 207.897 38.8701C208.717 38.7025 210.038 38.4963 210.557 39.0849C211.155 39.7594 210.557 40.9194 210.021 41.5208C208.547 43.1834 206.322 43.4498 204.503 43.7376C200.961 44.2961 197.873 44.5969 194.327 44.6871C194.083 44.6957 193.856 44.7086 193.634 44.6312C194.454 44.12 194.968 43.7161 195.544 43.0202C195.915 42.5648 196.591 41.6841 196.264 41.1642C195.374 41.3576 195.269 41.6712 194.554 42.2125C192.09 44.0856 188.334 44.932 185.521 44.2317C185.211 44.1544 185.015 44.1329 184.705 44.0384L182.38 43.2393Z" fill="#CFB595"/>
</svg>
