<svg width="16" height="16" viewBox="0 0 16 16" fill="none" xmlns="http://www.w3.org/2000/svg">
<g clip-path="url(#clip0_316_204)">
<path d="M4.16879 7.59755L11.0202 0.832543C11.2447 0.611025 11.6081 0.611398 11.8322 0.833689C12.0561 1.05595 12.0556 1.416 11.831 1.63769L5.38746 8.00005L11.8313 14.3624C12.0558 14.5841 12.0563 14.9439 11.8324 15.1662C11.7201 15.2776 11.5729 15.3334 11.4257 15.3334C11.279 15.3334 11.1324 15.278 11.0202 15.1674L4.16879 8.40252C4.06067 8.29601 4 8.15107 4 8.00005C4 7.84903 4.06084 7.70425 4.16879 7.59755Z" fill="#CAB090"/>
</g>
<defs>
<clipPath id="clip0_316_204">
<rect width="16" height="16" fill="white" transform="matrix(-1 0 0 1 16 0)"/>
</clipPath>
</defs>
</svg>
