<svg width="24" height="24" viewBox="0 0 24 24" fill="none" xmlns="http://www.w3.org/2000/svg">
<path d="M22.7181 21.4119L17.7909 16.4848C19.1351 14.8484 19.9443 12.7535 19.9443 10.4742C19.9443 5.25038 15.696 1.00208 10.4722 1.00208C5.24831 1.00208 1 5.25038 1 10.4742C1 15.6981 5.24831 19.9464 10.4722 19.9464C12.7514 19.9464 14.8463 19.1372 16.4827 17.793L21.4099 22.7202C21.783 23.0933 22.3449 23.0933 22.7181 22.7202C23.0957 22.347 23.0957 21.785 22.7181 21.4119ZM2.84318 10.4742C2.84318 6.26638 6.26431 2.84526 10.4722 2.84526C14.68 2.84526 18.1011 6.26638 18.1011 10.4742C18.1011 14.6821 14.68 18.1032 10.4722 18.1032C6.26431 18.1032 2.84318 14.682 2.84318 10.4742Z" fill="white"/>
</svg>
